<?xml version="1.0" standalone="no"?>
<!DOCTYPE svg PUBLIC "-//W3C//DTD SVG 1.1//EN" "http://www.w3.org/Graphics/SVG/1.1/DTD/svg11.dtd" >
<svg>
<metadata>
Created by FontForge 20090914 at Thu Nov  5 22:53:34 2020
 By www-data
Copyright (c) 2014 by &#194;&#169; 2009 Designed by Svetoslav Simov &#194;&#169; Fontfabric, Inc. All rights reserved.
</metadata>
<defs>
<font id="UniSansHeavyCAPS" horiz-adv-x="588" >
  <font-face 
    font-family="Uni Sans Heavy CAPS"
    font-weight="900"
    font-variant="small-caps"
    font-stretch="normal"
    units-per-em="1000"
    panose-1="0 0 5 0 0 0 0 0 0 0"
    ascent="756"
    descent="-244"
    x-height="708"
    cap-height="708"
    bbox="-57 -254.005 1085 997"
    underline-thickness="50"
    underline-position="-150"
    unicode-range="U+0020-U+FB02"
  />
<missing-glyph horiz-adv-x="601" 
d="M540 700v-700h-529v700h529zM206 562l70 -104l31.5 48l37.5 56h-139zM229 349l-8 14l-80 121v-262zM335 363l-8 -14l88 -127v262zM205 139h139c-2.66699 3.33301 -25.667 37.333 -69 102z" />
    <glyph glyph-name="fi" unicode="fi" horiz-adv-x="833" 
d="M237 538v-127h273v-167h-273v-244h-181v708h493v-170h-312zM777 708v-708h-179v708h179z" />
    <glyph glyph-name="fl" unicode="fl" horiz-adv-x="1100" 
d="M237 538v-127h273v-167h-273v-244h-181v708h493v-170h-312zM617 0v708h180v-531h288v-177h-468z" />
    <glyph glyph-name=".notdef" horiz-adv-x="601" 
d="M540 700v-700h-529v700h529zM206 562l70 -104l31.5 48l37.5 56h-139zM229 349l-8 14l-80 121v-262zM335 363l-8 -14l88 -127v262zM205 139h139c-2.66699 3.33301 -25.667 37.333 -69 102z" />
    <glyph glyph-name="space" unicode=" " horiz-adv-x="182" 
 />
    <glyph glyph-name="exclam" unicode="!" horiz-adv-x="291" 
d="M53 220l-10 492h204l-10 -492h-184zM47 89c0 28 9.66699 51.833 29 71.5s42.666 29.5 69.999 29.5c28 0 51.833 -9.83301 71.5 -29.5s29.5 -43.5 29.5 -71.5c0 -27.333 -9.83301 -50.666 -29.5 -69.999s-43.5 -29 -71.5 -29c-27.333 0 -50.666 9.66699 -69.999 29
s-29 42.666 -29 69.999z" />
    <glyph glyph-name="quotedbl" unicode="&#x22;" horiz-adv-x="462" 
d="M220 709l-21 -290h-152v290h173zM425 709l-20 -290h-153v290h173z" />
    <glyph glyph-name="numbersign" unicode="#" horiz-adv-x="647" 
d="M503 315h66l-43 -146h-67l-50 -170h-158l49 170h-42l-49 -170h-163l50 170h-74l43 146h74l9 33h-74l45 152h74l47 161h158l-47 -161h42l47 161h165l-48 -161h66l-44 -152h-67zM308 361l-17 -59h59l16 59h-58z" />
    <glyph glyph-name="dollar" unicode="$" horiz-adv-x="570" 
d="M225 -65l-0.000976562 64.001c-82 3.33301 -149 49.666 -201 138.999l128 88c20.667 -28.667 45 -45 73 -49v97c-127.333 30 -190.333 103.667 -189 221c2.66699 53.333 21.667 97.5 57 132.5s79.333 58.167 132 69.5v59h129v-58c36 -4.66699 67.333 -16 94 -34
s53 -46.333 79 -85l-120 -76c-11.333 19.333 -29 31.333 -53 36v-112c29.333 -7.33301 54.833 -16 76.5 -26s41.834 -23.5 60.501 -40.5s32.667 -39.167 42 -66.5s13 -59.333 11 -96c-4 -51.333 -23.667 -94 -59 -128s-79 -57.333 -131 -70v-65h-129zM193.999 494.001
l-0.000976562 -1c-1.33301 -30 11.334 -49.667 38.001 -59v114c-25.333 -14 -38 -32 -38 -54zM385.998 217.001l0.000976562 1c1.33301 30 -11.334 49.667 -38.001 59v-114c25.333 14 38 32 38 54z" />
    <glyph glyph-name="percent" unicode="%" horiz-adv-x="740" 
d="M55 7l492 760l129 -86l-492 -757zM325 541c0 -54 -14.167 -96.999 -42.5 -128.999s-64.5 -48 -108.5 -48c-47.333 0 -83.833 15.333 -109.5 46s-38.5 75 -38.5 133c0 52.667 13.833 95 41.5 127s63.167 48 106.5 48c48.667 0 86 -15.333 112 -46s39 -74.334 39 -131.001z
M206 541.001c0 40 -11 60 -33 60c-23.333 0 -35 -19.667 -35 -59s11.667 -59 35 -59c22 0 33 19.333 33 58zM715 171.001c0 -54 -14.167 -96.999 -42.5 -128.999s-64.5 -48 -108.5 -48c-47.333 0 -83.833 15.333 -109.5 46s-38.5 75 -38.5 133c0 52.667 13.833 95 41.5 127
s63.167 48 106.5 48c48.667 0 86 -15.333 112 -46s39 -74.334 39 -131.001zM596 171.002c0 40 -11 60 -33 60c-23.333 0 -35 -19.667 -35 -59s11.667 -59 35 -59c22 0 33 19.333 33 58z" />
    <glyph glyph-name="ampersand" unicode="&#x26;" horiz-adv-x="682" 
d="M522 349l99.999 -128.001l-66 -54l133 -166h-210l-48 57c-35.333 -31.333 -76.5 -50.666 -123.5 -57.999s-91 -3.83301 -132 10.5s-75.667 40.5 -104 78.5s-42.5 83.333 -42.5 136c0 76.667 35.333 136 106 178c-29.333 30.667 -46.166 65 -50.499 103
s1.66699 72.333 18 103s41.666 56.167 75.999 76.5s72.5 29.833 114.5 28.5c52.667 -1.33301 97.834 -19 135.501 -53s56.5 -77.667 56.5 -131c0 -68.667 -28.667 -123 -86 -163l59 -73zM289.999 572.999c-12.667 0 -23.666 -4.5 -32.999 -13.5s-14 -19.833 -14 -32.5
c0 -11.333 12.333 -32 37 -62c32.667 22 49 43.667 49 65c0 11.333 -3.83301 21.333 -11.5 30s-16.834 13 -27.501 13zM327 177.999l-87 102c-20.667 -10.667 -33.334 -26.667 -38.001 -48s-1 -39.333 11 -54c12.667 -18 30.834 -27 54.501 -27s43.5 9 59.5 27z" />
    <glyph glyph-name="quotesingle" unicode="'" horiz-adv-x="257" 
d="M218 708l-15 -290h-155v290h170z" />
    <glyph glyph-name="parenleft" unicode="(" horiz-adv-x="322" 
d="M190 795l118 -77.001c-81.333 -123.333 -121.5 -248.666 -120.5 -375.999s42.167 -253.666 123.5 -378.999l-127 -85c-50.667 71.333 -89.167 147.833 -115.5 229.5s-39.5 161.5 -39.5 239.5c0 80.667 13.833 160.667 41.5 240s67.5 148.666 119.5 207.999z" />
    <glyph glyph-name="parenright" unicode=")" horiz-adv-x="316" 
d="M12 707l114 76c52.667 -60 92.667 -127.833 120 -203.5s41 -153.167 41 -232.5c0 -78.667 -13.167 -158.5 -39.5 -239.5s-64.833 -156.833 -115.5 -227.5l-120 81c78.667 126 118.667 252.5 120 379.5s-38.667 249.167 -120 366.5z" />
    <glyph glyph-name="asterisk" unicode="*" horiz-adv-x="477" 
d="M406 649l47 -159l-112 -14l81 -78l-129 -99l-54 101l-52 -101l-134 97l81 84l-110 13l46 158l102 -48l-15 107h164l-19 -106z" />
    <glyph glyph-name="plus" unicode="+" horiz-adv-x="566" 
d="M202 406v170h169v-170h168v-170h-168v-171h-169v171h-175v170h175z" />
    <glyph glyph-name="comma" unicode="," horiz-adv-x="287" 
d="M251 106l-100 -255h-173l85 255h188z" />
    <glyph glyph-name="hyphen" unicode="-" horiz-adv-x="404" 
d="M358 375v-170h-312v170h312z" />
    <glyph glyph-name="period" unicode="." horiz-adv-x="257" 
d="M29 95c0 27.333 9.66699 50.666 29 69.999s42.666 29 69.999 29s50.833 -9.66699 70.5 -29s29.5 -42.666 29.5 -69.999c0 -28 -9.83301 -51.833 -29.5 -71.5s-43.167 -29.5 -70.5 -29.5s-50.666 9.83301 -69.999 29.5s-29 43.5 -29 71.5z" />
    <glyph glyph-name="slash" unicode="/" horiz-adv-x="490" 
d="M471 709l-294 -779l-158 57l295 777z" />
    <glyph glyph-name="zero" unicode="0" horiz-adv-x="596" 
d="M298 -10c-42.667 0 -82.666 7.33301 -119.999 22s-69.333 39 -96 73s-40 74.667 -40 122v293c0 70 25.833 123.833 77.5 161.5s111.167 56.5 178.5 56.5c68 0 127.667 -18.833 179 -56.5s77 -91.5 77 -161.5v-293c0 -47.333 -13.167 -88 -39.5 -122
s-58.333 -58.333 -96 -73s-77.834 -22 -120.501 -22zM298.001 561c-22.667 0 -42.667 -6 -60 -18s-26 -28 -26 -48v-290c0 -19.333 8.5 -34.666 25.5 -45.999s37.167 -17 60.5 -17c22.667 0 42.667 5.66699 60 17s26 26.666 26 45.999v290c0 20 -8.83301 36 -26.5 48
s-37.5 18 -59.5 18z" />
    <glyph glyph-name="one" unicode="1" horiz-adv-x="374" 
d="M323 0h-161v475l-68 -47l-94 82l188 198h135v-708z" />
    <glyph glyph-name="two" unicode="2" horiz-adv-x="558" 
d="M165 484l-134.002 73.001c28 53.333 64.167 93.5 108.5 120.5s91.833 40.5 142.5 40.5c74 0 132 -21.5 174 -64.5s63 -94.167 63 -153.5c0 -77.333 -29.333 -143.333 -88 -198l-156 -148l83 17h160v-170h-456l-45 93l288 324c31.333 35.333 38.333 68.666 21 99.999
c-13.333 24.667 -34.666 36.667 -63.999 36c-39.333 0 -71.666 -23.333 -96.999 -70z" />
    <glyph glyph-name="three" unicode="3" horiz-adv-x="540" 
d="M16 118l116 106.999c24.667 -40 62.667 -60 114 -60c24.667 0 45.667 5.5 63 16.5s26 25.833 26 44.5c0 19.333 -6.66699 35.5 -20 48.5s-32.333 19.5 -57 19.5h-110v143h106c22 0 37.333 10.833 46 32.5s7.33398 39.834 -3.99902 54.501
c-16.667 24 -42.334 34.333 -77.001 31s-63.334 -18 -86.001 -44l-104 92c28.667 36 63 64.167 103 84.5s80 30.5 120 30.5c108.667 0 179.667 -41.333 213 -124c16 -33.333 20.167 -72.333 12.5 -117s-28.5 -77.667 -62.5 -99c33.333 -16.667 57.5 -40.5 72.5 -71.5
s22.5 -62.5 22.5 -94.5c0 -66 -25.667 -119.5 -77 -160.5s-111.333 -61.5 -180 -61.5c-48 0 -93.167 10.667 -135.5 32s-76.166 53.333 -101.499 96z" />
    <glyph glyph-name="four" unicode="4" horiz-adv-x="574" 
d="M543 299v-145h-66v-154h-171v154h-249l-57 105l330 449h147v-409h66zM194 297h125l2 181z" />
    <glyph glyph-name="five" unicode="5" horiz-adv-x="541" 
d="M28 121l127.001 99.998c21.333 -26 46.666 -41.833 75.999 -47.5s54.833 -1.16699 76.5 13.5s33.167 35.334 34.5 62.001c2 34 -5.83301 60 -23.5 78s-40.834 27 -69.501 27c-47.333 0 -85.666 -19.667 -114.999 -59h-82v413h420v-157h-277v-80
c58.667 18.667 111.834 21.834 159.501 9.50098s86.667 -39.333 117 -81s45.5 -90.5 45.5 -146.5c0 -72 -22.833 -133.833 -68.5 -185.5s-111.834 -77.5 -198.501 -77.5c-42.667 0 -83.5 10.833 -122.5 32.5s-72.167 54.5 -99.5 98.5z" />
    <glyph glyph-name="six" unicode="6" horiz-adv-x="584" 
d="M528 587l-125.001 -72.001c-20.667 33.333 -53.334 50 -98.001 50c-25.333 0 -47.166 -6.5 -65.499 -19.5s-27.5 -30.167 -27.5 -51.5v-73c33.333 23.333 70.666 36.333 111.999 39s79.333 -3.66602 114 -18.999s63.834 -39.5 87.501 -72.5s35.5 -70.833 35.5 -113.5v-42
c0 -69.333 -25.333 -123.833 -76 -163.5s-111.334 -59.5 -182.001 -59.5c-71.333 0 -132.833 19.833 -184.5 59.5s-77.5 94.167 -77.5 163.5v282c0 67.333 26.5 121.333 79.5 162s114.5 61 184.5 61c48.667 0 92.834 -11 132.501 -33s69.834 -54.667 90.501 -98z
M389.999 206.999v53c0 23.333 -14.833 39.833 -44.5 49.5s-59.334 9.66699 -89.001 0s-44.5 -26.167 -44.5 -49.5v-53c0 -25.333 14.833 -43.166 44.5 -53.499s59.334 -10.333 89.001 0s44.5 28.166 44.5 53.499z" />
    <glyph glyph-name="seven" unicode="7" horiz-adv-x="529" 
d="M22 708h457l48 -96l-273 -612h-192l230 538h-270v170z" />
    <glyph glyph-name="eight" unicode="8" horiz-adv-x="600" 
d="M308 -10l-14 0.000976562c-82 0 -146.5 19.5 -193.5 58.5s-70.5 93.833 -70.5 164.5c0 62.667 31.667 117.667 95 165c-41.333 27.333 -62 69.666 -62 126.999c0 38.667 7.66699 72.667 23 102s35.166 51.666 59.499 66.999s49 26.5 74 33.5s49.833 10.5 74.5 10.5h14
c64.667 0 119.334 -18.167 164.001 -54.5s67 -91.5 67 -165.5c0 -18 -5.5 -39.167 -16.5 -63.5s-25.833 -42.833 -44.5 -55.5c30 -15.333 53 -38.166 69 -68.499s23.667 -59.5 23 -87.5c-1.33301 -74 -23.833 -131.333 -67.5 -172s-108.5 -61 -194.5 -61zM309 572.001
l-15.0029 0.00195312c-29.333 -0.666992 -49.666 -12.667 -60.999 -36s-10.666 -46.5 2.00098 -69.5s34.334 -34.5 65.001 -34.5c20.667 0 38 4.66699 52 14s22.5 20.666 25.5 33.999s3 26.666 0 39.999s-10.667 25 -23 35s-27.5 15.667 -45.5 17zM292.997 157.003
l17 0.000976562c37.333 0 62.833 13.333 76.5 40s13 52.667 -2 78s-38.833 36.666 -71.5 33.999h-23c-31.333 0.666992 -54.5 -11.333 -69.5 -36s-15.833 -50 -2.5 -76s38.333 -39.333 75 -40z" />
    <glyph glyph-name="nine" unicode="9" 
d="M44 125l127.003 83.999c24 -39.333 61.333 -59 112 -59c25.333 0 47.166 6.5 65.499 19.5s27.5 29.167 27.5 48.5v73c-33.333 -24 -70.666 -37.333 -111.999 -40s-79.333 3.83301 -114 19.5s-63.834 40 -87.501 73s-35.5 70.833 -35.5 113.5v42
c0 69.333 25.167 123.166 75.5 161.499s111.166 57.5 182.499 57.5s132.666 -19.167 183.999 -57.5s77.333 -92.166 78 -161.499v-282c0 -69.333 -26.167 -124.5 -78.5 -165.5s-113.5 -61.5 -183.5 -61.5c-52 0 -99.833 11.333 -143.5 34s-76.167 56.334 -97.5 101.001z
M198.003 504.999v-53c0 -23.333 14.833 -39.833 44.5 -49.5s59.334 -9.66699 89.001 0s44.5 26.167 44.5 49.5v53c0 23.333 -14.833 39.833 -44.5 49.5s-59.334 9.66699 -89.001 0s-44.5 -26.167 -44.5 -49.5z" />
    <glyph glyph-name="colon" unicode=":" horiz-adv-x="277" 
d="M39 393c0 27.333 9.83301 50.5 29.5 69.5s43.167 28.5 70.5 28.5s50.666 -9.5 69.999 -28.5s29 -42.167 29 -69.5c0 -28 -9.66699 -51.833 -29 -71.5s-42.666 -29.5 -69.999 -29.5s-50.833 9.83301 -70.5 29.5s-29.5 43.5 -29.5 71.5zM39 106
c0 28.667 9.66602 52.5 28.999 71.5s43 28.5 71 28.5s51.5 -9.5 70.5 -28.5s28.5 -42.833 28.5 -71.5c0 -27.333 -9.66699 -50.833 -29 -70.5s-42.666 -29.5 -69.999 -29.5s-50.833 9.83301 -70.5 29.5s-29.5 43.167 -29.5 70.5z" />
    <glyph glyph-name="semicolon" unicode=";" horiz-adv-x="293" 
d="M45 382c0 28 9.33301 51.333 28 70s42.667 28 72 28c28 0 51.333 -9.33301 70 -28s28 -42 28 -70c0 -28.667 -9.33301 -52.667 -28 -72s-42 -29 -70 -29c-29.333 0 -53.333 9.66699 -72 29s-28 43.333 -28 72zM255 127l-92 -255h-156l61 255h187z" />
    <glyph glyph-name="less" unicode="&#x3c;" horiz-adv-x="445" 
d="M391 383l-161 -91l161 -87v-199l-366 232v109l366 235v-199z" />
    <glyph glyph-name="equal" unicode="=" horiz-adv-x="528" 
d="M481 474v-155h-434v155h434zM481 271v-156h-434v156h434z" />
    <glyph glyph-name="greater" unicode="&#x3e;" horiz-adv-x="445" 
d="M420 347v-109l-367 -232v199l169 87l-169 91v199z" />
    <glyph glyph-name="question" unicode="?" horiz-adv-x="491" 
d="M123 497l-102.001 87.001c23.333 44.667 54.166 78.667 92.499 102s77.333 34.166 117 32.499s77.334 -10.834 113.001 -27.501s64.834 -42.667 87.501 -78s34 -75 34 -119c0 -47.333 -14.667 -90 -44 -128s-72 -61 -128 -69l-10 -117h-150l-10 228
c42.667 -18 81 -19.167 115 -3.5s51 41.834 51 78.501c0 23.333 -10.833 40.833 -32.5 52.5s-46.167 14.167 -73.5 7.5s-47.333 -22 -60 -46zM116.999 65.001c0 26 8.66699 47.5 26 64.5s39 25.5 65 25.5c25.333 0 46.666 -8.5 63.999 -25.5s26 -38.5 26 -64.5
c0 -25.333 -8.66699 -46.833 -26 -64.5s-38.666 -26.5 -63.999 -26.5s-46.833 8.83301 -64.5 26.5s-26.5 39.167 -26.5 64.5z" />
    <glyph glyph-name="at" unicode="@" horiz-adv-x="759" 
d="M500 538l72.0029 -17.998c-16 22.667 -40.167 40 -72.5 52s-64.166 18 -95.499 18c-51.333 0 -96.333 -14 -135 -42s-67.334 -62.5 -86.001 -103.5s-28 -84.167 -28 -129.5c0 -80 28 -140.833 84 -182.5s125.667 -49.834 209 -24.501l27 -96
c-44.667 -14 -86.334 -21 -125.001 -21c-91.333 0 -168 32.667 -230 98s-90.667 149.333 -86 252c4.66699 61.333 21.667 119.5 51 174.5s71.5 100.833 126.5 137.5s116.167 55 183.5 55c36 0 71 -4.33301 105 -13c43.333 -12.667 83.666 -33.167 120.999 -61.5
s65 -59.5 83 -93.5c30 -58 38.5 -123.667 25.5 -197s-43.833 -131 -92.5 -173c-16 -14.667 -36.167 -26.834 -60.5 -36.501s-48.5 -14.5 -72.5 -14.5c-28.667 0 -53 7 -73 21c-20.667 -12.667 -44.334 -19 -71.001 -19c-52 0 -94.5 18.333 -127.5 55s-49.5 82.667 -49.5 138
c0 64 19 120.5 57 169.5s83.667 73.5 137 73.5c37.333 0 72.333 -13.333 105 -40zM589.003 495.002l-46.998 -256c24.667 11.333 43.667 32 57 62s19.666 61.333 18.999 94s-7.33398 60 -20.001 82zM375.005 244.002c19.333 0 34.333 5.33301 45 16l32 147
c-35.333 37.333 -68.333 43 -99 17c-24.667 -20 -38 -50 -40 -90c-1.33301 -30 6 -54.667 22 -74c10 -10.667 23.333 -16 40 -16z" />
    <glyph glyph-name="A" unicode="A" horiz-adv-x="648" 
d="M404 708l253 -708h-192l-46 142h-189l-44 -142h-192l247 708h163zM270 301h106l-49 207h-5z" />
    <glyph glyph-name="B" unicode="B" horiz-adv-x="624" 
d="M570 492c-0.666992 -19.333 -7.16797 -40.333 -19.501 -63s-30.166 -40 -53.499 -52c43.333 -22 72.333 -51.333 87 -88s19 -72 13 -106c-19.333 -122 -103.333 -183 -252 -183h-289v708h284c69.333 0 125.5 -19.5 168.5 -58.5s63.5 -91.5 61.5 -157.5zM235.999 431
h103.999c27.333 0 46.833 10.5 58.5 31.5s11.834 42 0.500977 63s-31 31.5 -59 31.5h-104v-126zM235.998 157h104c34 0 57.833 12.167 71.5 36.5s13.5 48.5 -0.5 72.5s-37.667 36 -71 36h-104v-145z" />
    <glyph glyph-name="C" unicode="C" horiz-adv-x="582" 
d="M417 221l156.001 -72.001c-18.667 -36.667 -42.834 -67.334 -72.501 -92.001s-59.667 -42 -90 -52s-61.166 -15 -92.499 -15c-75.333 0 -140.666 21.333 -195.999 64s-83 102 -83 178v244c0 51.333 13.833 95.666 41.5 132.999s62.5 64.833 104.5 82.5
s87.333 26.5 136 26.5c50 0 97.5 -12.667 142.5 -38s80.5 -67 106.5 -125l-146 -59c-15.333 28 -39.833 45.833 -73.5 53.5s-64.167 4.33398 -91.5 -9.99902s-41 -35.5 -41 -63.5v-244c0 -20.667 8.5 -37.667 25.5 -51s36.667 -21.166 59 -23.499
s44.666 1.83398 66.999 12.501s38.166 27.667 47.499 51z" />
    <glyph glyph-name="D" unicode="D" horiz-adv-x="636" 
d="M56 708l265.001 0.00195312c49.333 0 94.166 -8 134.499 -24s73.833 -42.333 100.5 -79s40 -81.334 40 -134.001v-238c0 -76.667 -26.5 -134.834 -79.5 -174.501s-118.167 -59.167 -195.5 -58.5h-265v708zM236.001 168.002l91 0.000976562
c29.333 0 51.5 6.83301 66.5 20.5s22.5 32.5 22.5 56.5v221c0 23.333 -7.5 41.666 -22.5 54.999s-37.167 20 -66.5 20h-91v-373z" />
    <glyph glyph-name="E" unicode="E" 
d="M237 540v-110h287v-155h-287v-106h312v-169h-493v708h493v-168h-312z" />
    <glyph glyph-name="F" unicode="F" horiz-adv-x="576" 
d="M237 538v-127h273v-167h-273v-244h-181v708h493v-170h-312z" />
    <glyph glyph-name="G" unicode="G" horiz-adv-x="624" 
d="M565 567l-150.002 -68.9971c-9.33301 22.667 -25 39.167 -47 49.5s-44 14.166 -66 11.499s-41.5 -11.334 -58.5 -26.001s-25.5 -33 -25.5 -55v-243c0 -26 10.833 -46.5 32.5 -61.5s45.334 -22.5 71.001 -22.5s49.334 7.5 71.001 22.5s32.5 35.5 32.5 61.5v26h-113v150
h285v-176c0 -77.333 -27.167 -137.5 -81.5 -180.5s-119.833 -64.5 -196.5 -64.5c-76 0 -141.667 21.667 -197 65s-83 103.333 -83 180v243c0 75.333 27.667 134.166 83 176.499s121 63.5 197 63.5c32.667 0 64 -4.5 94 -13.5s59 -25.167 87 -48.5s49.667 -53 65 -89z" />
    <glyph glyph-name="H" unicode="H" horiz-adv-x="676" 
d="M236 267v-267h-180v708h180v-268h204v268h180v-708h-180v267h-204z" />
    <glyph glyph-name="I" unicode="I" horiz-adv-x="291" 
d="M235 708v-708h-179v708h179z" />
    <glyph glyph-name="J" unicode="J" horiz-adv-x="587" 
d="M3 208l169 35c4.66699 -26.667 16.667 -46.667 36 -60s41 -20 65 -20c22.667 0 42.667 6.33301 60 19s26 29 26 49v315h-161v162h338v-477c0 -73.333 -27 -131.833 -81 -175.5s-117 -65.5 -189 -65.5c-66 0 -124 18.667 -174 56s-79.667 91.333 -89 162z" />
    <glyph glyph-name="K" unicode="K" horiz-adv-x="640" 
d="M236 446l192 262h223l-280 -342l279 -366h-227l-181 253l-6 -8v-245h-180v708h180v-262z" />
    <glyph glyph-name="L" unicode="L" horiz-adv-x="539" 
d="M56 0v708h180v-531h288v-177h-468z" />
    <glyph glyph-name="M" unicode="M" horiz-adv-x="769" 
d="M56 0v708h179l149 -346l150 346h179v-708h-180l1 204l11 143l-6 1l-93 -243h-123l-95 243l-5 -1l12 -143v-204h-179z" />
    <glyph glyph-name="N" unicode="N" horiz-adv-x="676" 
d="M56 0v708h170l171 -302l60 -142l5 1l-10 61c-6 40.667 -9.33301 61 -10 61v321h178v-708h-181l-160 279l-62 142l-5 -1l23 -137v-283h-179z" />
    <glyph glyph-name="O" unicode="O" horiz-adv-x="665" 
d="M39 233v242c0 76.667 28.833 136.334 86.5 179.001s126.5 64 206.5 64c79.333 0 148.166 -21.333 206.499 -64s87.5 -102.334 87.5 -179.001v-242c0 -76.667 -29 -136.334 -87 -179.001s-126.667 -64 -206 -64s-148.166 21.333 -206.499 64s-87.5 102.334 -87.5 179.001z
M218 475l-0.000976562 -242c0 -24.667 11.333 -43.667 34 -57s49.667 -20 81 -20c30.667 0 57.334 6.83301 80.001 20.5s34 32.5 34 56.5v242c0 26 -11.5 45.833 -34.5 59.5s-50.5 20.5 -82.5 20.5c-30 0 -56.167 -7.16699 -78.5 -21.5s-33.5 -33.833 -33.5 -58.5z" />
    <glyph glyph-name="P" unicode="P" horiz-adv-x="618" 
d="M56 0l0.000976562 708h283c81.333 0 144.833 -24.667 190.5 -74s68.5 -108 68.5 -176s-22.833 -126.833 -68.5 -176.5s-108.834 -74.5 -189.501 -74.5h-105v-207h-179zM235.001 366h104c20.667 0 38 6 52 18s22.667 26.667 26 44s3.33301 34.5 0 51.5s-12 31.5 -26 43.5
s-31.333 18 -52 18h-104v-175z" />
    <glyph glyph-name="Q" unicode="Q" horiz-adv-x="665" 
d="M39 233l0.000976562 241.999c0 76.667 28.833 136.334 86.5 179.001s126.5 64 206.5 64c79.333 0 148.166 -21.333 206.499 -64s87.5 -102.334 87.5 -179.001v-242c0 -46 -12 -87.667 -36 -125l55 -56l-99 -89l-58 60c-46.667 -22 -98.334 -33 -155.001 -33
c-79.333 0 -148.166 21.333 -206.499 64s-87.5 102.334 -87.5 179.001zM218.001 474.999v-242.002c0 -31.333 15.667 -55 47 -71s62 -17.667 92 -5l-58 60l99 86l49 -50v222c0 26 -12 46.167 -36 60.5s-50.167 21.333 -78.5 21s-54.5 -7.66602 -78.5 -21.999
s-36 -34.166 -36 -59.499z" />
    <glyph glyph-name="R" unicode="R" horiz-adv-x="646" 
d="M433 0l-164 224.999h-32v-225h-181v708h283c78 0 140.833 -19 188.5 -57s72.5 -96.667 74.5 -176c0 -125.333 -46.333 -202.666 -139 -231.999l193 -243h-223zM237 378.999h105c35.333 0 60.333 13.5 75 40.5s14.667 54 0 81s-39.667 40.5 -75 40.5h-105v-162z" />
    <glyph glyph-name="S" unicode="S" horiz-adv-x="564" 
d="M22 118l113.003 105.995c13.333 -16.667 30.166 -30.667 50.499 -42s40.5 -18.666 60.5 -21.999s39 -4.16602 57 -2.49902s33 7.16699 45 16.5s18.333 21.333 19 36c0.666992 18.667 -11 34 -35 46s-52.667 20.333 -86 25c-62 10 -113.833 34.167 -155.5 72.5
s-62.5 89.166 -62.5 152.499c0 66 25.167 117.833 75.5 155.5s110.5 56.5 180.5 56.5c99.333 0 180 -37.667 242 -113l-117 -90c-24 25.333 -52 42.5 -84 51.5s-59.833 8.33301 -83.5 -2s-35.834 -28.833 -36.501 -55.5c2 -30.667 33.333 -52.667 94 -66
c28.667 -5.33301 53.667 -11 75 -17s43.666 -15.167 66.999 -27.5s42.166 -26.666 56.499 -42.999s25.833 -37.666 34.5 -63.999s12.334 -56.166 11.001 -89.499c-2 -43.333 -17.5 -81.666 -46.5 -114.999s-64 -57.833 -105 -73.5s-83.833 -23.5 -128.5 -23.5
c-43.333 0 -86.333 11 -129 33s-80 53.667 -112 95z" />
    <glyph glyph-name="T" unicode="T" horiz-adv-x="585" 
d="M571 539h-188v-539h-181v539h-188v170h557v-170z" />
    <glyph glyph-name="U" unicode="U" horiz-adv-x="667" 
d="M233 708v-471c0 -21.333 7 -39.5 21 -54.5s30.833 -24.167 50.5 -27.5s39.5 -3.33301 59.5 0s37 12.5 51 27.5s21 33.167 21 54.5v471h181v-471c0 -36 -6.5 -68.833 -19.5 -98.5s-30.5 -54.167 -52.5 -73.5s-47.167 -35.833 -75.5 -49.5s-58 -21.834 -89 -24.501
s-62.167 -2.66699 -93.5 0s-61.166 10.834 -89.499 24.501s-53.333 30.167 -75 49.5s-38.834 43.833 -51.501 73.5s-19 62.5 -19 98.5v471h181z" />
    <glyph glyph-name="V" unicode="V" horiz-adv-x="656" 
d="M361 362l112 347h192l-255 -708h-164l-255 708h192l111 -346l32 -168h3z" />
    <glyph glyph-name="W" unicode="W" horiz-adv-x="915" 
d="M644 367l86 341h185l-204 -708h-166l-63 196l-25 162h-3l-27 -161l-56 -197h-166l-205 708h186l84 -339l18 -150h5l17 149l79 248h136l73 -249l23 -148h3z" />
    <glyph glyph-name="X" unicode="X" horiz-adv-x="656" 
d="M327 466l124 242h208l-198 -355l198 -353h-208l-124 241l-121 -241h-209l199 353l-199 355h209z" />
    <glyph glyph-name="Y" unicode="Y" horiz-adv-x="655" 
d="M417 0h-179v279l-247 429h208l128 -260l128 260h210l-248 -429v-279z" />
    <glyph glyph-name="Z" unicode="Z" horiz-adv-x="605" 
d="M36 708h515l38 -60l-305 -485l288 2v-165h-525l-33 66l306 476h-284v166z" />
    <glyph glyph-name="bracketleft" unicode="[" horiz-adv-x="328" 
d="M221 544v-479h69v-165h-240v810h240v-166h-69z" />
    <glyph glyph-name="backslash" unicode="\" horiz-adv-x="503" 
d="M325 -58l-306 769l161 56l304 -771z" />
    <glyph glyph-name="bracketright" unicode="]" horiz-adv-x="328" 
d="M105 63v484h-67v163h240v-810h-240v163h67z" />
    <glyph glyph-name="asciicircum" unicode="^" horiz-adv-x="652" 
d="M371 707l254 -303h-207l-97 115l-95 -115h-200l247 303h98z" />
    <glyph glyph-name="underscore" unicode="_" horiz-adv-x="593" 
d="M548 34v-169h-504v169h504z" />
    <glyph glyph-name="grave" unicode="`" horiz-adv-x="406" 
d="M306 756h-155l-131 166h186z" />
    <glyph glyph-name="a" unicode="a" horiz-adv-x="648" 
d="M404 708l253 -708h-192l-46 142h-189l-44 -142h-192l247 708h163zM270 301h106l-49 207h-5z" />
    <glyph glyph-name="b" unicode="b" horiz-adv-x="624" 
d="M570 492c-0.666992 -19.333 -7.16797 -40.333 -19.501 -63s-30.166 -40 -53.499 -52c43.333 -22 72.333 -51.333 87 -88s19 -72 13 -106c-19.333 -122 -103.333 -183 -252 -183h-289v708h284c69.333 0 125.5 -19.5 168.5 -58.5s63.5 -91.5 61.5 -157.5zM235.999 431
h103.999c27.333 0 46.833 10.5 58.5 31.5s11.834 42 0.500977 63s-31 31.5 -59 31.5h-104v-126zM235.998 157h104c34 0 57.833 12.167 71.5 36.5s13.5 48.5 -0.5 72.5s-37.667 36 -71 36h-104v-145z" />
    <glyph glyph-name="c" unicode="c" horiz-adv-x="582" 
d="M417 221l156.001 -72.001c-18.667 -36.667 -42.834 -67.334 -72.501 -92.001s-59.667 -42 -90 -52s-61.166 -15 -92.499 -15c-75.333 0 -140.666 21.333 -195.999 64s-83 102 -83 178v244c0 51.333 13.833 95.666 41.5 132.999s62.5 64.833 104.5 82.5
s87.333 26.5 136 26.5c50 0 97.5 -12.667 142.5 -38s80.5 -67 106.5 -125l-146 -59c-15.333 28 -39.833 45.833 -73.5 53.5s-64.167 4.33398 -91.5 -9.99902s-41 -35.5 -41 -63.5v-244c0 -20.667 8.5 -37.667 25.5 -51s36.667 -21.166 59 -23.499
s44.666 1.83398 66.999 12.501s38.166 27.667 47.499 51z" />
    <glyph glyph-name="d" unicode="d" horiz-adv-x="636" 
d="M56 708l265.001 0.00195312c49.333 0 94.166 -8 134.499 -24s73.833 -42.333 100.5 -79s40 -81.334 40 -134.001v-238c0 -76.667 -26.5 -134.834 -79.5 -174.501s-118.167 -59.167 -195.5 -58.5h-265v708zM236.001 168.002l91 0.000976562
c29.333 0 51.5 6.83301 66.5 20.5s22.5 32.5 22.5 56.5v221c0 23.333 -7.5 41.666 -22.5 54.999s-37.167 20 -66.5 20h-91v-373z" />
    <glyph glyph-name="e" unicode="e" 
d="M237 540v-110h287v-155h-287v-106h312v-169h-493v708h493v-168h-312z" />
    <glyph glyph-name="f" unicode="f" horiz-adv-x="576" 
d="M237 538v-127h273v-167h-273v-244h-181v708h493v-170h-312z" />
    <glyph glyph-name="g" unicode="g" horiz-adv-x="624" 
d="M565 567l-150.002 -68.9971c-9.33301 22.667 -25 39.167 -47 49.5s-44 14.166 -66 11.499s-41.5 -11.334 -58.5 -26.001s-25.5 -33 -25.5 -55v-243c0 -26 10.833 -46.5 32.5 -61.5s45.334 -22.5 71.001 -22.5s49.334 7.5 71.001 22.5s32.5 35.5 32.5 61.5v26h-113v150
h285v-176c0 -77.333 -27.167 -137.5 -81.5 -180.5s-119.833 -64.5 -196.5 -64.5c-76 0 -141.667 21.667 -197 65s-83 103.333 -83 180v243c0 75.333 27.667 134.166 83 176.499s121 63.5 197 63.5c32.667 0 64 -4.5 94 -13.5s59 -25.167 87 -48.5s49.667 -53 65 -89z" />
    <glyph glyph-name="h" unicode="h" horiz-adv-x="676" 
d="M236 267v-267h-180v708h180v-268h204v268h180v-708h-180v267h-204z" />
    <glyph glyph-name="i" unicode="i" horiz-adv-x="291" 
d="M235 708v-708h-179v708h179z" />
    <glyph glyph-name="j" unicode="j" horiz-adv-x="587" 
d="M3 208l169 35c4.66699 -26.667 16.667 -46.667 36 -60s41 -20 65 -20c22.667 0 42.667 6.33301 60 19s26 29 26 49v315h-161v162h338v-477c0 -73.333 -27 -131.833 -81 -175.5s-117 -65.5 -189 -65.5c-66 0 -124 18.667 -174 56s-79.667 91.333 -89 162z" />
    <glyph glyph-name="k" unicode="k" horiz-adv-x="640" 
d="M236 446l192 262h223l-280 -342l279 -366h-227l-181 253l-6 -8v-245h-180v708h180v-262z" />
    <glyph glyph-name="l" unicode="l" horiz-adv-x="539" 
d="M56 0v708h180v-531h288v-177h-468z" />
    <glyph glyph-name="m" unicode="m" horiz-adv-x="769" 
d="M56 0v708h179l149 -346l150 346h179v-708h-180l1 204l11 143l-6 1l-93 -243h-123l-95 243l-5 -1l12 -143v-204h-179z" />
    <glyph glyph-name="n" unicode="n" horiz-adv-x="676" 
d="M56 0v708h170l171 -302l60 -142l5 1l-10 61c-6 40.667 -9.33301 61 -10 61v321h178v-708h-181l-160 279l-62 142l-5 -1l23 -137v-283h-179z" />
    <glyph glyph-name="o" unicode="o" horiz-adv-x="665" 
d="M39 233v242c0 76.667 28.833 136.334 86.5 179.001s126.5 64 206.5 64c79.333 0 148.166 -21.333 206.499 -64s87.5 -102.334 87.5 -179.001v-242c0 -76.667 -29 -136.334 -87 -179.001s-126.667 -64 -206 -64s-148.166 21.333 -206.499 64s-87.5 102.334 -87.5 179.001z
M218 475l-0.000976562 -242c0 -24.667 11.333 -43.667 34 -57s49.667 -20 81 -20c30.667 0 57.334 6.83301 80.001 20.5s34 32.5 34 56.5v242c0 26 -11.5 45.833 -34.5 59.5s-50.5 20.5 -82.5 20.5c-30 0 -56.167 -7.16699 -78.5 -21.5s-33.5 -33.833 -33.5 -58.5z" />
    <glyph glyph-name="p" unicode="p" horiz-adv-x="618" 
d="M56 0l0.000976562 708h283c81.333 0 144.833 -24.667 190.5 -74s68.5 -108 68.5 -176s-22.833 -126.833 -68.5 -176.5s-108.834 -74.5 -189.501 -74.5h-105v-207h-179zM235.001 366h104c20.667 0 38 6 52 18s22.667 26.667 26 44s3.33301 34.5 0 51.5s-12 31.5 -26 43.5
s-31.333 18 -52 18h-104v-175z" />
    <glyph glyph-name="q" unicode="q" horiz-adv-x="665" 
d="M39 233l0.000976562 241.999c0 76.667 28.833 136.334 86.5 179.001s126.5 64 206.5 64c79.333 0 148.166 -21.333 206.499 -64s87.5 -102.334 87.5 -179.001v-242c0 -46 -12 -87.667 -36 -125l55 -56l-99 -89l-58 60c-46.667 -22 -98.334 -33 -155.001 -33
c-79.333 0 -148.166 21.333 -206.499 64s-87.5 102.334 -87.5 179.001zM218.001 474.999v-242.002c0 -31.333 15.667 -55 47 -71s62 -17.667 92 -5l-58 60l99 86l49 -50v222c0 26 -12 46.167 -36 60.5s-50.167 21.333 -78.5 21s-54.5 -7.66602 -78.5 -21.999
s-36 -34.166 -36 -59.499z" />
    <glyph glyph-name="r" unicode="r" horiz-adv-x="646" 
d="M433 0l-164 224.999h-32v-225h-181v708h283c78 0 140.833 -19 188.5 -57s72.5 -96.667 74.5 -176c0 -125.333 -46.333 -202.666 -139 -231.999l193 -243h-223zM237 378.999h105c35.333 0 60.333 13.5 75 40.5s14.667 54 0 81s-39.667 40.5 -75 40.5h-105v-162z" />
    <glyph glyph-name="s" unicode="s" horiz-adv-x="564" 
d="M22 118l113.003 105.995c13.333 -16.667 30.166 -30.667 50.499 -42s40.5 -18.666 60.5 -21.999s39 -4.16602 57 -2.49902s33 7.16699 45 16.5s18.333 21.333 19 36c0.666992 18.667 -11 34 -35 46s-52.667 20.333 -86 25c-62 10 -113.833 34.167 -155.5 72.5
s-62.5 89.166 -62.5 152.499c0 66 25.167 117.833 75.5 155.5s110.5 56.5 180.5 56.5c99.333 0 180 -37.667 242 -113l-117 -90c-24 25.333 -52 42.5 -84 51.5s-59.833 8.33301 -83.5 -2s-35.834 -28.833 -36.501 -55.5c2 -30.667 33.333 -52.667 94 -66
c28.667 -5.33301 53.667 -11 75 -17s43.666 -15.167 66.999 -27.5s42.166 -26.666 56.499 -42.999s25.833 -37.666 34.5 -63.999s12.334 -56.166 11.001 -89.499c-2 -43.333 -17.5 -81.666 -46.5 -114.999s-64 -57.833 -105 -73.5s-83.833 -23.5 -128.5 -23.5
c-43.333 0 -86.333 11 -129 33s-80 53.667 -112 95z" />
    <glyph glyph-name="t" unicode="t" horiz-adv-x="585" 
d="M571 539h-188v-539h-181v539h-188v170h557v-170z" />
    <glyph glyph-name="u" unicode="u" horiz-adv-x="667" 
d="M233 708v-471c0 -21.333 7 -39.5 21 -54.5s30.833 -24.167 50.5 -27.5s39.5 -3.33301 59.5 0s37 12.5 51 27.5s21 33.167 21 54.5v471h181v-471c0 -36 -6.5 -68.833 -19.5 -98.5s-30.5 -54.167 -52.5 -73.5s-47.167 -35.833 -75.5 -49.5s-58 -21.834 -89 -24.501
s-62.167 -2.66699 -93.5 0s-61.166 10.834 -89.499 24.501s-53.333 30.167 -75 49.5s-38.834 43.833 -51.501 73.5s-19 62.5 -19 98.5v471h181z" />
    <glyph glyph-name="v" unicode="v" horiz-adv-x="656" 
d="M361 362l112 347h192l-255 -708h-164l-255 708h192l111 -346l32 -168h3z" />
    <glyph glyph-name="w" unicode="w" horiz-adv-x="915" 
d="M644 367l86 341h185l-204 -708h-166l-63 196l-25 162h-3l-27 -161l-56 -197h-166l-205 708h186l84 -339l18 -150h5l17 149l79 248h136l73 -249l23 -148h3z" />
    <glyph glyph-name="x" unicode="x" horiz-adv-x="656" 
d="M327 466l124 242h208l-198 -355l198 -353h-208l-124 241l-121 -241h-209l199 353l-199 355h209z" />
    <glyph glyph-name="y" unicode="y" horiz-adv-x="655" 
d="M417 0h-179v279l-247 429h208l128 -260l128 260h210l-248 -429v-279z" />
    <glyph glyph-name="z" unicode="z" horiz-adv-x="605" 
d="M36 708h515l38 -60l-305 -485l288 2v-165h-525l-33 66l306 476h-284v166z" />
    <glyph glyph-name="braceleft" unicode="{" horiz-adv-x="351" 
d="M254 547v-129c0 -22.667 -6.83301 -46 -20.5 -70s-30.834 -40 -51.501 -48c22.667 -8 40.334 -23.333 53.001 -46s19 -47 19 -73v-118h59v-163h-90c-52.667 0 -89.167 12.833 -109.5 38.5s-30.5 64.167 -30.5 115.5v111c0 35.333 -18 53 -54 53v163c36 0 54 17.333 54 52
v122c0 50 11.167 88.333 33.5 115s60.5 40 114.5 40h82v-163h-59z" />
    <glyph glyph-name="bar" unicode="|" horiz-adv-x="269" 
d="M219 -135h-169v859h169v-859z" />
    <glyph glyph-name="braceright" unicode="}" horiz-adv-x="344" 
d="M39 708h68.999c63.333 0 104.5 -12.333 123.5 -37s28.5 -64 28.5 -118v-120c0 -34.667 18.333 -52 55 -52v-163c-36.667 0 -55 -17.667 -55 -53v-119c0 -52 -10.833 -90.667 -32.5 -116s-62.167 -38 -121.5 -38h-67v163h51v126
c-1.33301 24.667 5.83398 48.834 21.501 72.501s34.167 39.5 55.5 47.5c-20.667 10 -39.167 26.167 -55.5 48.5s-23.5 45.166 -21.5 68.499v127h-51v163z" />
    <glyph glyph-name="asciitilde" unicode="~" horiz-adv-x="489" 
d="M362 391l102.002 -84.9971c-48 -82 -101.667 -123 -161 -123c-16 0 -32.833 4.66699 -50.5 14s-31.834 18 -42.501 26s-22.667 10.5 -36 7.5s-26 -14.833 -38 -35.5l-111 93c52 76 104 114 156 114c15.333 0 30.666 -3.83301 45.999 -11.5s28.166 -15.334 38.499 -23.001
s20.833 -13.834 31.5 -18.501s21.334 -3.83398 32.001 2.49902s21.667 19.5 33 39.5z" />
    <glyph glyph-name="uni00A0" unicode="&#xa0;" horiz-adv-x="182" 
 />
    <glyph glyph-name="exclamdown" unicode="&#xa1;" horiz-adv-x="268" 
d="M233 416c0 -28.667 -9.5 -52.5 -28.5 -71.5s-42.833 -28.5 -71.5 -28.5s-52.167 9.33301 -70.5 28s-27.5 42.667 -27.5 72c0 28 9.16699 51.333 27.5 70s41.833 28 70.5 28s52.5 -9.5 71.5 -28.5s28.5 -42.167 28.5 -69.5zM219 291v-475h-171v475h171z" />
    <glyph glyph-name="cent" unicode="&#xa2;" horiz-adv-x="478" 
d="M318 587v-72.999c64.667 -19.333 106.667 -63.333 126 -132l-142 -44c-2.66699 12 -7.66699 21.833 -15 29.5s-15.5 12.167 -24.5 13.5s-18 1 -27 -1s-16.333 -6.83301 -22 -14.5s-8.5 -16.834 -8.5 -27.501v-158c0 -17.333 7.16699 -30 21.5 -38s30 -8.66699 47 -2
s28.5 19.667 34.5 39l146 -33c-22.667 -72.667 -68 -120 -136 -142v-73h-128v70c-44 10.667 -80 31.5 -108 62.5s-42 70.833 -42 119.5v151c0 48.667 14 88.5 42 119.5s64 51.833 108 62.5v71h128z" />
    <glyph glyph-name="sterling" unicode="&#xa3;" horiz-adv-x="530" 
d="M501 627l-99 -95c-20.667 22.667 -45.167 29.667 -73.5 21s-42.5 -28.667 -42.5 -60v-70h168v-153h-168v-112h206v-158h-455v158h78v112h-78v153h78v75c0 25.333 3.66699 49.833 11 73.5s18.833 46.167 34.5 67.5s38 38.5 67 51.5s63.167 19.5 102.5 19.5
c28 0 57.5 -6.83301 88.5 -20.5s58.5 -34.5 82.5 -62.5z" />
    <glyph glyph-name="currency" unicode="&#xa4;" horiz-adv-x="616" 
d="M34 171l46 49c-16 33.333 -24 70.333 -24 111c0 36 8 73 24 111l-48 47l114 122l53 -53c34 15.333 70 23 108 23c36 0 72.333 -8.33301 109 -25l54 54l113 -121l-49 -48c16.667 -34.667 25 -71.334 25 -110.001c0 -39.333 -8 -76.666 -24 -111.999l48 -46l-113 -121
l-53 53c-31.333 -16 -68 -24 -110 -24c-39.333 0 -75.333 7.66699 -108 23l-54 -51zM208 330c0 -27.333 9.66699 -50.666 29 -69.999s42.666 -29 69.999 -29c26.667 0 49.667 9.66699 69 29s29 42.666 29 69.999c0 28 -9.66699 51.833 -29 71.5s-42.333 29.5 -69 29.5
c-27.333 0 -50.666 -9.83301 -69.999 -29.5s-29 -43.5 -29 -71.5z" />
    <glyph glyph-name="yen" unicode="&#xa5;" horiz-adv-x="712" 
d="M563 361l-23 -108h-95v-31h118l-23 -108h-95v-114h-179v114h-109l22 108h87v31h-109l22 108h40l-200 347h208l128 -270l128 270h210l-201 -347h71z" />
    <glyph glyph-name="brokenbar" unicode="&#xa6;" horiz-adv-x="274" 
d="M222 313h-170v347h170v-347zM222 -110h-170v377h170v-377z" />
    <glyph glyph-name="section" unicode="&#xa7;" horiz-adv-x="475" 
d="M36 37l117.004 77.9941c12 -17.333 27.167 -29.166 45.5 -35.499s34.333 -6.83301 48 -1.5s20.5 14.333 20.5 27c0 10.667 -8 21.334 -24 32.001s-35.5 21.334 -58.5 32.001s-46.167 22.834 -69.5 36.501s-43 31.334 -59 53.001s-24 45.834 -24 72.501
c0 47.333 16.667 82.666 50 105.999c-21.333 25.333 -32 54.333 -32 87c0 56 19.667 100.833 59 134.5s85.666 50.5 138.999 50.5c65.333 0 121.666 -35.333 168.999 -106l-118 -71c-8.66699 14.667 -19.334 23.5 -32.001 26.5s-23.5 0.833008 -32.5 -6.5
s-13.5 -16.666 -13.5 -27.999c0 -12 7.66699 -22.833 23 -32.5s33.833 -19 55.5 -28s43.5 -19.333 65.5 -31s40.667 -28.334 56 -50.001s23 -47.5 23 -77.5c0 -40.667 -16 -74 -48 -100c25.333 -31.333 38 -66.666 38 -105.999c0 -48.667 -19.833 -91 -59.5 -127
s-86.834 -54 -141.501 -54c-36.667 0 -72.667 10.333 -108 31s-65 50 -89 88zM209.004 304.994l79.999 -37.999c16 16.667 16.167 33.167 0.5 49.5s-47.167 34.166 -94.5 53.499c-16.667 -10 -23.167 -21.5 -19.5 -34.5s14.834 -23.167 33.501 -30.5z" />
    <glyph glyph-name="dieresis" unicode="&#xa8;" horiz-adv-x="510" 
d="M50 834c0 24 8.16699 44.167 24.5 60.5s36.166 24.5 59.499 24.5s43.166 -8.16699 59.499 -24.5s24.5 -36.5 24.5 -60.5c0 -23.333 -8.16699 -43 -24.5 -59s-36.166 -24 -59.499 -24s-43.166 8 -59.499 24s-24.5 35.667 -24.5 59zM291 834c0 24 8 44.167 24 60.5
s36 24.5 60 24.5s44.167 -8.16699 60.5 -24.5s24.5 -36.5 24.5 -60.5c0 -23.333 -8.16699 -43 -24.5 -59s-36.5 -24 -60.5 -24s-44 8 -60 24s-24 35.667 -24 59z" />
    <glyph glyph-name="copyright" unicode="&#xa9;" horiz-adv-x="778" 
d="M30 351c0 98.667 35.3311 183.167 105.998 253.5s155.334 105.5 254.001 105.5s183 -35.167 253 -105.5s105 -154.833 105 -253.5s-35 -183.167 -105 -253.5s-154.333 -105.5 -253 -105.5c-99.333 0 -184.166 35.167 -254.499 105.5s-105.5 154.833 -105.5 253.5z
M132.998 351c0 -71.333 25 -132 75 -182s110.667 -75 182 -75c70.667 0 130.834 25 180.501 75s74.5 110.667 74.5 182s-24.833 131.833 -74.5 181.5s-109.834 74.5 -180.501 74.5c-71.333 0 -132 -24.833 -182 -74.5s-75 -110.167 -75 -181.5zM197.998 404
l0.000976562 -110.998c0 -53.333 19 -94.333 57 -123s83 -43 135 -43c42.667 0 82.167 10.333 118.5 31s60.5 52.667 72.5 96l-96 36c-4.66699 -17.333 -13.834 -31.5 -27.501 -42.5s-28.834 -17.333 -45.501 -19s-33 -0.833984 -49 2.49902s-29.667 10.5 -41 21.5
s-18 24.167 -20 39.5v113c2 15.333 8.66699 28.5 20 39.5s25 18.167 41 21.5s32.333 4.16602 49 2.49902s31.834 -8 45.501 -19s22.834 -25.167 27.501 -42.5l94 36c-12 43.333 -35.833 75.333 -71.5 96s-74.834 31 -117.501 31c-52 0 -97 -14.333 -135 -43
s-57 -69.667 -57 -123z" />
    <glyph glyph-name="ordfeminine" unicode="&#xaa;" horiz-adv-x="373" 
d="M94 574l-56 51.9951c25.333 39.333 61.5 63.833 108.5 73.5s89.333 2.33398 127 -21.999s56.5 -61.166 56.5 -110.499v-233c-36 -10 -70 -16.333 -102 -19s-63.667 -1.5 -95 3.5s-56.166 18.333 -74.499 40s-27.5 50.834 -27.5 87.501c0 28 6.66699 51.5 20 70.5
s29.833 31.833 49.5 38.5s40.5 10.834 62.5 12.501s41.667 -1.16602 59 -8.49902c-1.33301 26 -17.833 40 -49.5 42s-57.834 -7 -78.501 -27zM215 404.995v66c-14 7.33301 -30 8.33301 -48 3s-27.333 -15.666 -28 -30.999c0 -18.667 8.16699 -30.834 24.5 -36.501
s33.5 -6.16699 51.5 -1.5z" />
    <glyph glyph-name="guillemotleft" unicode="&#xab;" horiz-adv-x="613" 
d="M179 524l145 -86l-103 -151l104 -153l-147 -86l-159 239zM437 524l145 -86l-104 -153l106 -150l-147 -87l-160 239z" />
    <glyph glyph-name="logicalnot" unicode="&#xac;" horiz-adv-x="577" 
d="M40 260v169h487v-301h-168v132h-319z" />
    <glyph glyph-name="uni00AD" unicode="&#xad;" horiz-adv-x="407" 
d="M360 332v-171h-313v171h313z" />
    <glyph glyph-name="registered" unicode="&#xae;" horiz-adv-x="778" 
d="M30 351c0 98.667 35.3311 183.167 105.998 253.5s155.334 105.5 254.001 105.5s183 -35.167 253 -105.5s105 -154.833 105 -253.5s-35 -183.167 -105 -253.5s-154.333 -105.5 -253 -105.5c-99.333 0 -184.166 35.167 -254.499 105.5s-105.5 154.833 -105.5 253.5z
M136.998 351c0 -70 24.833 -130 74.5 -180s109.834 -75 180.501 -75c69.333 0 128.833 25 178.5 75s74.5 110 74.5 180s-24.833 129.833 -74.5 179.5s-109.167 74.5 -178.5 74.5c-70.667 0 -130.834 -24.667 -180.501 -74s-74.5 -109.333 -74.5 -180zM243.998 169
l-0.00195312 358h162c38 0 69 -10.167 93 -30.5s38.333 -43.5 43 -69.5s0.833984 -52.167 -11.499 -78.5s-32.166 -44.833 -59.499 -55.5l86 -124h-116l-78 117h-21v-117h-98zM341.996 366l60.999 -0.000976562c16.667 0 28.334 6.33301 35.001 19s6.5 25.334 -0.5 38.001
s-18.833 19 -35.5 19h-60v-76z" />
    <glyph glyph-name="macron" unicode="&#xaf;" horiz-adv-x="397" 
d="M50 758v134h297v-134h-297z" />
    <glyph glyph-name="degree" unicode="&#xb0;" horiz-adv-x="377" 
d="M189 392c-45.333 0 -84.167 16.1689 -116.5 48.502s-48.5 71.166 -48.5 116.499c0 46 16 84.833 48 116.5s71 47.5 117 47.5c45.333 0 84 -15.833 116 -47.5s48 -70.5 48 -116.5c0 -44.667 -16.167 -83.334 -48.5 -116.001s-70.833 -49 -115.5 -49zM188.999 507.002
c14.667 0 26.667 4.66699 36 14s14 20.666 14 33.999c0 14 -4.83301 26.167 -14.5 36.5s-21.5 15.5 -35.5 15.5s-25.833 -5.16699 -35.5 -15.5s-14.5 -22.5 -14.5 -36.5c0 -13.333 4.66699 -24.666 14 -33.999s21.333 -14 36 -14z" />
    <glyph glyph-name="plusminus" unicode="&#xb1;" horiz-adv-x="539" 
d="M183 520v132h170v-132h141v-170h-141v-131h-170v131h-138v170h138zM495 181v-168h-451v168h451z" />
    <glyph glyph-name="twosuperior" unicode="&#xb2;" horiz-adv-x="398" 
d="M126 532l-91.998 78.998c36.667 58 88 87 154 87c48 0 87 -14.833 117 -44.5s45 -65.5 45 -107.5c0 -46 -17.333 -83.667 -52 -113l-59 -56h119v-131h-301l-28 76l155 176c23.333 26.667 28.666 47.334 15.999 62.001c-10.667 12 -25.334 13 -44.001 3
c-12 -7.33301 -22 -17.666 -30 -30.999z" />
    <glyph glyph-name="threesuperior" unicode="&#xb3;" horiz-adv-x="373" 
d="M131 532h50.0039c12.667 0 20 7 22 21c2 16.667 -4.33301 27.667 -19 33l-15 2c-22 -1.33301 -39 -9.66602 -51 -24.999l-76 64c22 23.333 42 40.5 60 51.5s39.333 17.167 64 18.5c28 1.33301 54.167 -4.33398 78.5 -17.001s43 -29 56 -49s18 -42.833 15 -68.5
s-15.833 -49.5 -38.5 -71.5c26 -12 44.167 -29.333 54.5 -52s12.666 -45.667 6.99902 -69s-16.834 -44.333 -33.501 -63c-25.333 -28 -57.333 -45.667 -96 -53s-75.834 -2.83301 -111.501 13.5s-61.834 41.833 -78.501 76.5l91 57c7.33301 -13.333 19 -22.166 35 -26.499
s30.5 -3.33301 43.5 3s19.5 16.166 19.5 29.499c0 6 -2.5 11.833 -7.5 17.5s-11.167 8.16699 -18.5 7.5h-51v100z" />
    <glyph glyph-name="acute" unicode="&#xb4;" horiz-adv-x="386" 
d="M386 922l-131 -166h-155l100 166h186z" />
    <glyph glyph-name="mu" unicode="&#xb5;" horiz-adv-x="528" 
d="M336 -1l-6 38.001c-17.333 -25.333 -36.833 -37.833 -58.5 -37.5s-39.5 11.833 -53.5 34.5v-206h-171v688h171v-310c0 -20.667 7.5 -35.5 22.5 -44.5s30 -9.33301 45 -1s22.5 23.166 22.5 44.499v311h172l2 -518z" />
    <glyph glyph-name="paragraph" unicode="&#xb6;" horiz-adv-x="661" 
d="M228 -83v301c-64.667 8.66699 -115 35.667 -151 81s-54 97 -54 155c0 65.333 21.5 121.5 64.5 168.5s103.167 70.5 180.5 70.5h336v-776h-168v614h-40v-614h-168z" />
    <glyph glyph-name="periodcentered" unicode="&#xb7;" horiz-adv-x="264" 
d="M33 303c0 28.667 9.33301 52.667 28 72s42.667 29 72 29c28 0 51.333 -9.83301 70 -29.5s28 -43.5 28 -71.5s-9.33301 -51.333 -28 -70s-42 -28 -70 -28c-29.333 0 -53.333 9.33301 -72 28s-28 42 -28 70z" />
    <glyph glyph-name="cedilla" unicode="&#xb8;" horiz-adv-x="385" 
d="M293 40l-31.998 -70.9961c25.333 -6.66699 44.833 -18.834 58.5 -36.501s19.667 -36.834 18 -57.501s-7.5 -40.834 -17.5 -60.501s-26.167 -36 -48.5 -49s-47.5 -19.5 -75.5 -19.5c-56 0 -104.667 17 -146 51l32 86c15.333 -10.667 30.666 -18.834 45.999 -24.501
s29.166 -7.5 41.499 -5.5s20.166 9 23.499 21s-2.16699 23.167 -16.5 33.5s-34.166 16.5 -59.499 18.5l51 114h125z" />
    <glyph glyph-name="onesuperior" unicode="&#xb9;" horiz-adv-x="290" 
d="M57 500l-50 70l126 137h107v-441h-134v262z" />
    <glyph glyph-name="ordmasculine" unicode="&#xba;" horiz-adv-x="410" 
d="M205 298c-46 0 -86.167 13.167 -120.5 39.5s-51.5 62.833 -51.5 109.5v120c0 46.667 17.167 83.167 51.5 109.5s74.5 39.5 120.5 39.5s86.167 -13.167 120.5 -39.5s51.5 -62.833 51.5 -109.5v-120c0 -46.667 -17.167 -83.167 -51.5 -109.5s-74.5 -39.5 -120.5 -39.5z
M168 567v-120.001c0 -14 6.16699 -24 18.5 -30s24.666 -6.16699 36.999 -0.5s18.5 15.834 18.5 30.501v119c0 14.667 -6.16699 25.167 -18.5 31.5s-24.666 6.5 -36.999 0.5s-18.5 -16.333 -18.5 -31z" />
    <glyph glyph-name="guillemotright" unicode="&#xbb;" horiz-adv-x="603" 
d="M177 49l-148 85l105 153l-103 151l144 87l161 -238zM425 48l-145 87l103 152l-104 152l147 85l159 -237z" />
    <glyph glyph-name="onequarter" unicode="&#xbc;" horiz-adv-x="830" 
d="M659 649l-422 -694l-117 70l422 694zM254 272v441h-107l-126 -137l50 -70l49 28v-262h134zM761 468h-113l-240 -291l58 -90h161v-87h134v87h36v117h-36v264zM639 200h-84l82 94l4 -1z" />
    <glyph glyph-name="onehalf" unicode="&#xbd;" horiz-adv-x="857" 
d="M666 649l-423 -694l-115 71l422 693zM254 272v441h-107l-126 -137l50 -70l49 28v-262h134zM507 356l91 -76.001c14.667 25.333 32.667 37 54 35c15.333 -1.33301 23.333 -9 24 -23c0.666992 -13.333 -6.33301 -28.333 -21 -45l-153 -170l28 -74h291v127h-112l59 54
c34 28.667 51 65 51 109c0 40.667 -14.833 75.334 -44.5 104.001s-68.167 43 -115.5 43c-65.333 0 -116 -28 -152 -84z" />
    <glyph glyph-name="threequarters" unicode="&#xbe;" horiz-adv-x="860" 
d="M717 649l-422 -694l-113 71l422 693zM140 438l54 0.00195312c8 0.666992 14.5 -1.83301 19.5 -7.5s7.5 -11.834 7.5 -18.501c0 -14 -6.83301 -24.167 -20.5 -30.5s-29 -7.33301 -46 -3s-29.167 13.5 -36.5 27.5l-95 -58c17.333 -36 44.666 -62.333 81.999 -79
s76.333 -21.334 117 -14.001s74.334 25.666 101.001 54.999c17.333 19.333 28.833 41 34.5 65s3.16699 47.5 -7.5 70.5s-29.667 40.833 -57 53.5c24 22 37.667 46.333 41 73s-1.83398 50.167 -15.501 70.5s-33.334 37.166 -59.001 50.499s-53.167 19.333 -82.5 18
c-26 -1.33301 -48.5 -7.66602 -67.5 -18.999s-39.833 -29 -62.5 -53l80 -66c12.667 16 30.334 24.667 53.001 26c20 0.666992 31.667 -7.66602 35 -24.999c2.66699 -14.667 -1.66602 -25 -12.999 -31c-2.66699 -1.33301 -5.66699 -2 -9 -2h-53v-103zM690 452.002l-232 -281
l56 -87h163v-84h118v84h35v113h-35v255h-105zM600 193.002l79 91l4 -1l-2 -90h-81z" />
    <glyph glyph-name="questiondown" unicode="&#xbf;" horiz-adv-x="487" 
d="M372 435c0 -26 -8.66699 -47.5 -26 -64.5s-39 -25.5 -65 -25.5c-25.333 0 -46.666 8.5 -63.999 25.5s-26 38.5 -26 64.5c0 25.333 8.66699 46.833 26 64.5s38.666 26.5 63.999 26.5s46.833 -8.83301 64.5 -26.5s26.5 -39.167 26.5 -64.5zM468 -84l-102.001 87.001
c-12.667 -24 -32.667 -39.333 -60 -46s-51.833 -4.16699 -73.5 7.5s-32.5 29.167 -32.5 52.5c0 36.667 17 62.834 51 78.501s72.333 14.5 115 -3.5l-10 224h-150l-10 -113c-56 -8 -98.667 -31 -128 -69s-44 -80.667 -44 -128c0 -44 11.333 -83.667 34 -119
s51.834 -61.333 87.501 -78s73.334 -25.834 113.001 -27.501s78.667 9.16602 117 32.499s69.166 57.333 92.499 102z" />
    <glyph glyph-name="Agrave" unicode="&#xc0;" horiz-adv-x="648" 
d="M426 756h-155l-131 166h186zM404 708l253 -708h-192l-46 142h-189l-44 -142h-192l247 708h163zM270 301h106l-49 207h-5z" />
    <glyph glyph-name="Aacute" unicode="&#xc1;" horiz-adv-x="648" 
d="M507 922l-131 -166h-155l100 166h186zM404 708l253 -708h-192l-46 142h-189l-44 -142h-192l247 708h163zM270 301h106l-49 207h-5z" />
    <glyph glyph-name="Acircumflex" unicode="&#xc2;" horiz-adv-x="648" 
d="M382 924l150 -168h-162l-46 52l-44 -52h-169l154 168h117zM404 708l253 -708h-192l-46 142h-189l-44 -142h-192l247 708h163zM270 301h106l-49 207h-5z" />
    <glyph glyph-name="Atilde" unicode="&#xc3;" horiz-adv-x="648" 
d="M219 749l-86.9971 48.998c15.333 80.667 57.666 120 126.999 118c12 0 26.333 -3.66699 43 -11s30.5 -14 41.5 -20s22.333 -7.33301 34 -4s21.167 13.666 28.5 30.999l91 -52c-9.33301 -37.333 -22.833 -65.666 -40.5 -84.999s-38.834 -28.666 -63.501 -27.999
c-16.667 0 -34.834 3.66699 -54.501 11s-35.667 13.833 -48 19.5s-25 6.83398 -38 3.50098s-24.167 -14 -33.5 -32zM404.003 707.998l253 -708h-192l-46 142h-189l-44 -142h-192l247 708h163zM270.003 300.998h106l-49 207h-5z" />
    <glyph glyph-name="Adieresis" unicode="&#xc4;" horiz-adv-x="648" 
d="M119 834c0 24 8.16699 44.167 24.5 60.5s36.166 24.5 59.499 24.5s43.166 -8.16699 59.499 -24.5s24.5 -36.5 24.5 -60.5c0 -23.333 -8.16699 -43 -24.5 -59s-36.166 -24 -59.499 -24s-43.166 8 -59.499 24s-24.5 35.667 -24.5 59zM360 834c0 24 8 44.167 24 60.5
s36 24.5 60 24.5s44.167 -8.16699 60.5 -24.5s24.5 -36.5 24.5 -60.5c0 -23.333 -8.16699 -43 -24.5 -59s-36.5 -24 -60.5 -24s-44 8 -60 24s-24 35.667 -24 59zM404 708l253 -708h-192l-46 142h-189l-44 -142h-192l247 708h163zM270 301h106l-49 207h-5z" />
    <glyph glyph-name="Aring" unicode="&#xc5;" horiz-adv-x="648" 
d="M465 0l-46 142h-189l-44 -142h-192l240 688c-26.667 24.667 -40 55.667 -40 93c0 35.333 12.667 65.833 38 91.5s56.333 38.5 93 38.5c35.333 0 65.5 -13.333 90.5 -40s37.5 -57 37.5 -91c0 -36.667 -13.667 -67.667 -41 -93l245 -687h-192zM325 819
c-11.333 0 -20.5 -3.83301 -27.5 -11.5s-10.5 -17.167 -10.5 -28.5c0 -8.66699 3.5 -16.667 10.5 -24s16.167 -11 27.5 -11c10 0 18.5 3.16699 25.5 9.5s10.5 14.833 10.5 25.5s-3.5 20 -10.5 28s-15.5 12 -25.5 12zM327 508h-5l-52 -207h106z" />
    <glyph glyph-name="AE" unicode="&#xc6;" horiz-adv-x="834" 
d="M794 532h-245v-93h220v-173h-220v-95h245v-171h-415v192h-108l-69 -192h-215l302 708h505v-176zM316 345h72l4 180h-8z" />
    <glyph glyph-name="Ccedilla" unicode="&#xc7;" horiz-adv-x="582" 
d="M417 221l156.004 -71.998c-40 -79.333 -102.333 -129.666 -187 -150.999l-13 -29c25.333 -6.66699 44.833 -18.834 58.5 -36.501s19.667 -36.834 18 -57.501s-7.5 -40.834 -17.5 -60.501s-26.167 -36 -48.5 -49s-47.5 -19.5 -75.5 -19.5c-56 0 -104.667 17 -146 51l32 86
c15.333 -10.667 30.666 -18.834 45.999 -24.501s29.166 -7.5 41.499 -5.5s20.166 9 23.499 21s-2.16699 23.167 -16.5 33.5s-34.166 16.5 -59.499 18.5l31 69c-63.333 10 -116 35.667 -158 77s-63 94.666 -63 159.999v244c0 51.333 13.833 95.666 41.5 132.999
s62.5 64.833 104.5 82.5s87.333 26.5 136 26.5c50 0 97.5 -12.667 142.5 -38s80.5 -67 106.5 -125l-146 -59c-15.333 28 -39.833 45.833 -73.5 53.5s-64.167 4.33398 -91.5 -9.99902s-41 -35.5 -41 -63.5v-244c0 -20.667 8.5 -37.667 25.5 -51s36.667 -21.166 59 -23.499
s44.666 1.83398 66.999 12.501s38.166 27.667 47.499 51z" />
    <glyph glyph-name="Egrave" unicode="&#xc8;" 
d="M411 756h-155l-131 166h186zM237 540v-110h287v-155h-287v-106h312v-169h-493v708h493v-168h-312z" />
    <glyph glyph-name="Eacute" unicode="&#xc9;" 
d="M492 922l-131 -166h-155l100 166h186zM237 540v-110h287v-155h-287v-106h312v-169h-493v708h493v-168h-312z" />
    <glyph glyph-name="Ecircumflex" unicode="&#xca;" 
d="M367 924l150 -168h-162l-46 52l-44 -52h-169l154 168h117zM237 540v-110h287v-155h-287v-106h312v-169h-493v708h493v-168h-312z" />
    <glyph glyph-name="Edieresis" unicode="&#xcb;" 
d="M104 834c0 24 8.16699 44.167 24.5 60.5s36.166 24.5 59.499 24.5s43.166 -8.16699 59.499 -24.5s24.5 -36.5 24.5 -60.5c0 -23.333 -8.16699 -43 -24.5 -59s-36.166 -24 -59.499 -24s-43.166 8 -59.499 24s-24.5 35.667 -24.5 59zM345 834c0 24 8 44.167 24 60.5
s36 24.5 60 24.5s44.167 -8.16699 60.5 -24.5s24.5 -36.5 24.5 -60.5c0 -23.333 -8.16699 -43 -24.5 -59s-36.5 -24 -60.5 -24s-44 8 -60 24s-24 35.667 -24 59zM237 540v-110h287v-155h-287v-106h312v-169h-493v708h493v-168h-312z" />
    <glyph glyph-name="Igrave" unicode="&#xcc;" horiz-adv-x="291" 
d="M248 756h-155l-131 166h186zM235 708v-708h-179v708h179z" />
    <glyph glyph-name="Iacute" unicode="&#xcd;" horiz-adv-x="291" 
d="M329 922l-131 -166h-155l100 166h186zM235 708v-708h-179v708h179z" />
    <glyph glyph-name="Icircumflex" unicode="&#xce;" horiz-adv-x="291" 
d="M204 924l140 -168h-162l-36 50l-34 -50h-169l144 168h117zM235 708v-708h-179v708h179z" />
    <glyph glyph-name="Idieresis" unicode="&#xcf;" horiz-adv-x="291" 
d="M-43 834c0 24 8.16699 44.167 24.5 60.5s36.166 24.5 59.499 24.5s43.166 -8.16699 59.499 -24.5s24.5 -36.5 24.5 -60.5c0 -23.333 -8.16699 -43 -24.5 -59s-36.166 -24 -59.499 -24s-43.166 8 -59.499 24s-24.5 35.667 -24.5 59zM168 834c0 24 8 44.167 24 60.5
s36 24.5 60 24.5s44.167 -8.16699 60.5 -24.5s24.5 -36.5 24.5 -60.5c0 -23.333 -8.16699 -43 -24.5 -59s-36.5 -24 -60.5 -24s-44 8 -60 24s-24 35.667 -24 59zM235 708v-708h-179v708h179z" />
    <glyph glyph-name="Eth" unicode="&#xd0;" horiz-adv-x="642" 
d="M62 428v280.001h286c76 0 137.333 -19.333 184 -58s70 -97.334 70 -176.001v-241c0 -78 -23.333 -136.333 -70 -175s-108 -58 -184 -58h-286v285h-48v143h48zM243 176.001h105c49.333 0 74 19 74 57v241c0 38.667 -24.667 58 -74 58h-105v-104h83v-143h-83v-109z" />
    <glyph glyph-name="Ntilde" unicode="&#xd1;" horiz-adv-x="676" 
d="M238 745l-86.9971 48.998c15.333 80.667 57.666 120 126.999 118c12 0 26.333 -3.66699 43 -11s30.5 -14 41.5 -20s22.333 -7.33301 34 -4s21.167 13.666 28.5 30.999l91 -52c-9.33301 -37.333 -22.833 -65.666 -40.5 -84.999s-38.834 -28.666 -63.501 -27.999
c-16.667 0 -34.834 3.66699 -54.501 11s-35.667 13.833 -48 19.5s-25 6.83398 -38 3.50098s-24.167 -14 -33.5 -32zM56.0029 -0.00195312v708h170l171 -302l60 -142l5 1l-10 61c-6 40.667 -9.33301 61 -10 61v321h178v-708h-181l-160 279l-62 142l-5 -1l23 -137v-283h-179z
" />
    <glyph glyph-name="Ograve" unicode="&#xd2;" horiz-adv-x="665" 
d="M434 758h-155l-131 166h186zM39 233v242c0 76.667 28.833 136.334 86.5 179.001s126.5 64 206.5 64c79.333 0 148.166 -21.333 206.499 -64s87.5 -102.334 87.5 -179.001v-242c0 -76.667 -29 -136.334 -87 -179.001s-126.667 -64 -206 -64s-148.166 21.333 -206.499 64
s-87.5 102.334 -87.5 179.001zM218 475l-0.000976562 -242c0 -24.667 11.333 -43.667 34 -57s49.667 -20 81 -20c30.667 0 57.334 6.83301 80.001 20.5s34 32.5 34 56.5v242c0 26 -11.5 45.833 -34.5 59.5s-50.5 20.5 -82.5 20.5c-30 0 -56.167 -7.16699 -78.5 -21.5
s-33.5 -33.833 -33.5 -58.5z" />
    <glyph glyph-name="Oacute" unicode="&#xd3;" horiz-adv-x="665" 
d="M515 924l-131 -166h-155l100 166h186zM39 233v242c0 76.667 28.833 136.334 86.5 179.001s126.5 64 206.5 64c79.333 0 148.166 -21.333 206.499 -64s87.5 -102.334 87.5 -179.001v-242c0 -76.667 -29 -136.334 -87 -179.001s-126.667 -64 -206 -64
s-148.166 21.333 -206.499 64s-87.5 102.334 -87.5 179.001zM218 475l-0.000976562 -242c0 -24.667 11.333 -43.667 34 -57s49.667 -20 81 -20c30.667 0 57.334 6.83301 80.001 20.5s34 32.5 34 56.5v242c0 26 -11.5 45.833 -34.5 59.5s-50.5 20.5 -82.5 20.5
c-30 0 -56.167 -7.16699 -78.5 -21.5s-33.5 -33.833 -33.5 -58.5z" />
    <glyph glyph-name="Ocircumflex" unicode="&#xd4;" horiz-adv-x="665" 
d="M390 926l150 -168h-162l-46 52l-44 -52h-169l154 168h117zM39 233v242c0 76.667 28.833 136.334 86.5 179.001s126.5 64 206.5 64c79.333 0 148.166 -21.333 206.499 -64s87.5 -102.334 87.5 -179.001v-242c0 -76.667 -29 -136.334 -87 -179.001s-126.667 -64 -206 -64
s-148.166 21.333 -206.499 64s-87.5 102.334 -87.5 179.001zM218 475l-0.000976562 -242c0 -24.667 11.333 -43.667 34 -57s49.667 -20 81 -20c30.667 0 57.334 6.83301 80.001 20.5s34 32.5 34 56.5v242c0 26 -11.5 45.833 -34.5 59.5s-50.5 20.5 -82.5 20.5
c-30 0 -56.167 -7.16699 -78.5 -21.5s-33.5 -33.833 -33.5 -58.5z" />
    <glyph glyph-name="Otilde" unicode="&#xd5;" horiz-adv-x="665" 
d="M230 747l-86.9971 48.998c15.333 80.667 57.666 120 126.999 118c12 0 26.333 -3.66699 43 -11s30.5 -14 41.5 -20s22.333 -7.33301 34 -4s21.167 13.666 28.5 30.999l91 -52c-9.33301 -37.333 -22.833 -65.666 -40.5 -84.999s-38.834 -28.666 -63.501 -27.999
c-16.667 0 -34.834 3.66699 -54.501 11s-35.667 13.833 -48 19.5s-25 6.83398 -38 3.50098s-24.167 -14 -33.5 -32zM39.0029 232.998v242c0 76.667 28.833 136.334 86.5 179.001s126.5 64 206.5 64c79.333 0 148.166 -21.333 206.499 -64s87.5 -102.334 87.5 -179.001v-242
c0 -76.667 -29 -136.334 -87 -179.001s-126.667 -64 -206 -64s-148.166 21.333 -206.499 64s-87.5 102.334 -87.5 179.001zM218.003 474.998l-0.000976562 -242c0 -24.667 11.333 -43.667 34 -57s49.667 -20 81 -20c30.667 0 57.334 6.83301 80.001 20.5s34 32.5 34 56.5
v242c0 26 -11.5 45.833 -34.5 59.5s-50.5 20.5 -82.5 20.5c-30 0 -56.167 -7.16699 -78.5 -21.5s-33.5 -33.833 -33.5 -58.5z" />
    <glyph glyph-name="Odieresis" unicode="&#xd6;" horiz-adv-x="665" 
d="M127 836c0 24 8.16699 44.167 24.5 60.5s36.166 24.5 59.499 24.5s43.166 -8.16699 59.499 -24.5s24.5 -36.5 24.5 -60.5c0 -23.333 -8.16699 -43 -24.5 -59s-36.166 -24 -59.499 -24s-43.166 8 -59.499 24s-24.5 35.667 -24.5 59zM368 836c0 24 8 44.167 24 60.5
s36 24.5 60 24.5s44.167 -8.16699 60.5 -24.5s24.5 -36.5 24.5 -60.5c0 -23.333 -8.16699 -43 -24.5 -59s-36.5 -24 -60.5 -24s-44 8 -60 24s-24 35.667 -24 59zM39 233v242c0 76.667 28.833 136.334 86.5 179.001s126.5 64 206.5 64c79.333 0 148.166 -21.333 206.499 -64
s87.5 -102.334 87.5 -179.001v-242c0 -76.667 -29 -136.334 -87 -179.001s-126.667 -64 -206 -64s-148.166 21.333 -206.499 64s-87.5 102.334 -87.5 179.001zM218 475l-0.000976562 -242c0 -24.667 11.333 -43.667 34 -57s49.667 -20 81 -20
c30.667 0 57.334 6.83301 80.001 20.5s34 32.5 34 56.5v242c0 26 -11.5 45.833 -34.5 59.5s-50.5 20.5 -82.5 20.5c-30 0 -56.167 -7.16699 -78.5 -21.5s-33.5 -33.833 -33.5 -58.5z" />
    <glyph glyph-name="multiply" unicode="&#xd7;" horiz-adv-x="536" 
d="M268 412l122 122l119 -122l-119 -119l119 -120l-120 -120l-120 120l-62.5 -62l-60.5 -61l-117 121l120 120l-124 125l120 119z" />
    <glyph glyph-name="Oslash" unicode="&#xd8;" horiz-adv-x="665" 
d="M574 756l-38.999 -99.001c60.667 -45.333 91 -106 91 -182v-242c0 -76.667 -29 -136.334 -87 -179.001s-126.667 -64 -206 -64c-16.667 0 -32.334 1 -47.001 3l-39 -96l-158 56l42 98c-61.333 44.667 -92 105.334 -92 182.001v242c0 76.667 28.833 136.334 86.5 179.001
s126.5 64 206.5 64c16.667 0 33 -1 49 -3l36 93zM447.001 232.999l-0.000976562 242c0 26 -11.5 45.833 -34.5 59.5s-50.5 20.5 -82.5 20.5c-30 0 -56.167 -7.16699 -78.5 -21.5s-33.5 -33.833 -33.5 -58.5v-242c0 -24.667 11.333 -43.667 34 -57s49.667 -20 81 -20
c30.667 0 57.334 6.83301 80.001 20.5s34 32.5 34 56.5z" />
    <glyph glyph-name="Ugrave" unicode="&#xd9;" horiz-adv-x="667" 
d="M437 756h-155l-131 166h186zM233 708v-471c0 -21.333 7 -39.5 21 -54.5s30.833 -24.167 50.5 -27.5s39.5 -3.33301 59.5 0s37 12.5 51 27.5s21 33.167 21 54.5v471h181v-471c0 -36 -6.5 -68.833 -19.5 -98.5s-30.5 -54.167 -52.5 -73.5s-47.167 -35.833 -75.5 -49.5
s-58 -21.834 -89 -24.501s-62.167 -2.66699 -93.5 0s-61.166 10.834 -89.499 24.501s-53.333 30.167 -75 49.5s-38.834 43.833 -51.501 73.5s-19 62.5 -19 98.5v471h181z" />
    <glyph glyph-name="Uacute" unicode="&#xda;" horiz-adv-x="667" 
d="M518 922l-131 -166h-155l100 166h186zM233 708v-471c0 -21.333 7 -39.5 21 -54.5s30.833 -24.167 50.5 -27.5s39.5 -3.33301 59.5 0s37 12.5 51 27.5s21 33.167 21 54.5v471h181v-471c0 -36 -6.5 -68.833 -19.5 -98.5s-30.5 -54.167 -52.5 -73.5
s-47.167 -35.833 -75.5 -49.5s-58 -21.834 -89 -24.501s-62.167 -2.66699 -93.5 0s-61.166 10.834 -89.499 24.501s-53.333 30.167 -75 49.5s-38.834 43.833 -51.501 73.5s-19 62.5 -19 98.5v471h181z" />
    <glyph glyph-name="Ucircumflex" unicode="&#xdb;" horiz-adv-x="667" 
d="M393 924l150 -168h-162l-46 52l-44 -52h-169l154 168h117zM233 708v-471c0 -21.333 7 -39.5 21 -54.5s30.833 -24.167 50.5 -27.5s39.5 -3.33301 59.5 0s37 12.5 51 27.5s21 33.167 21 54.5v471h181v-471c0 -36 -6.5 -68.833 -19.5 -98.5s-30.5 -54.167 -52.5 -73.5
s-47.167 -35.833 -75.5 -49.5s-58 -21.834 -89 -24.501s-62.167 -2.66699 -93.5 0s-61.166 10.834 -89.499 24.501s-53.333 30.167 -75 49.5s-38.834 43.833 -51.501 73.5s-19 62.5 -19 98.5v471h181z" />
    <glyph glyph-name="Udieresis" unicode="&#xdc;" horiz-adv-x="667" 
d="M130 834c0 24 8.16699 44.167 24.5 60.5s36.166 24.5 59.499 24.5s43.166 -8.16699 59.499 -24.5s24.5 -36.5 24.5 -60.5c0 -23.333 -8.16699 -43 -24.5 -59s-36.166 -24 -59.499 -24s-43.166 8 -59.499 24s-24.5 35.667 -24.5 59zM371 834c0 24 8 44.167 24 60.5
s36 24.5 60 24.5s44.167 -8.16699 60.5 -24.5s24.5 -36.5 24.5 -60.5c0 -23.333 -8.16699 -43 -24.5 -59s-36.5 -24 -60.5 -24s-44 8 -60 24s-24 35.667 -24 59zM233 708v-471c0 -21.333 7 -39.5 21 -54.5s30.833 -24.167 50.5 -27.5s39.5 -3.33301 59.5 0s37 12.5 51 27.5
s21 33.167 21 54.5v471h181v-471c0 -36 -6.5 -68.833 -19.5 -98.5s-30.5 -54.167 -52.5 -73.5s-47.167 -35.833 -75.5 -49.5s-58 -21.834 -89 -24.501s-62.167 -2.66699 -93.5 0s-61.166 10.834 -89.499 24.501s-53.333 30.167 -75 49.5s-38.834 43.833 -51.501 73.5
s-19 62.5 -19 98.5v471h181z" />
    <glyph glyph-name="Yacute" unicode="&#xdd;" horiz-adv-x="655" 
d="M507 922l-131 -166h-155l100 166h186zM417 0h-179v279l-247 429h208l128 -260l128 260h210l-248 -429v-279z" />
    <glyph glyph-name="Thorn" unicode="&#xde;" horiz-adv-x="556" 
d="M237 602h10c95.333 0 167.833 -20.167 217.5 -60.5s74.5 -100.166 74.5 -179.499c0 -44 -8.5 -82 -25.5 -114s-40.333 -56.333 -70 -73s-61.5 -28.834 -95.5 -36.501s-71 -11.5 -111 -11.5v-126h-181v714h181v-113zM237 439v-153.999c56 -6.66699 94.667 6.33301 116 39
c16.667 25.333 16.667 50.666 0 75.999c-22 32 -60.667 45 -116 39z" />
    <glyph glyph-name="germandbls" unicode="&#xdf;" horiz-adv-x="576" 
d="M48 0l-0.000976562 507c-0.666992 66 22.5 117.667 69.5 155s102.5 56 166.5 56c62.667 0 116.5 -18 161.5 -54s67.5 -86.667 67.5 -152c0 -66.667 -24.667 -116.334 -74 -149.001c38.667 -14 67.334 -37.667 86.001 -71s27 -68.5 25 -105.5s-12.667 -70.5 -32 -100.5
c-18.667 -30.667 -46 -54.334 -82 -71.001s-74.333 -25 -115 -25c-23.333 0 -47.333 3 -72 9v158c28.667 -14.667 55.334 -14.167 80.001 1.5s37 36.834 37 63.501c0 18.667 -6.83301 33.334 -20.5 44.001s-30.834 16 -51.501 16h-45v152c42 -8.66699 70.667 2 86 32
c12.667 24 11.667 46.667 -3 68c-12 16.667 -28.667 25.334 -50 26.001c-18 0 -33.333 -5.33301 -46 -16s-19 -25.334 -19 -44.001v-500h-169z" />
    <glyph glyph-name="agrave" unicode="&#xe0;" horiz-adv-x="648" 
d="M426 756h-155l-131 166h186zM404 708l253 -708h-192l-46 142h-189l-44 -142h-192l247 708h163zM270 301h106l-49 207h-5z" />
    <glyph glyph-name="aacute" unicode="&#xe1;" horiz-adv-x="648" 
d="M507 922l-131 -166h-155l100 166h186zM404 708l253 -708h-192l-46 142h-189l-44 -142h-192l247 708h163zM270 301h106l-49 207h-5z" />
    <glyph glyph-name="acircumflex" unicode="&#xe2;" horiz-adv-x="648" 
d="M382 924l150 -168h-162l-46 52l-44 -52h-169l154 168h117zM404 708l253 -708h-192l-46 142h-189l-44 -142h-192l247 708h163zM270 301h106l-49 207h-5z" />
    <glyph glyph-name="atilde" unicode="&#xe3;" horiz-adv-x="648" 
d="M219 749l-86.9971 48.998c15.333 80.667 57.666 120 126.999 118c12 0 26.333 -3.66699 43 -11s30.5 -14 41.5 -20s22.333 -7.33301 34 -4s21.167 13.666 28.5 30.999l91 -52c-9.33301 -37.333 -22.833 -65.666 -40.5 -84.999s-38.834 -28.666 -63.501 -27.999
c-16.667 0 -34.834 3.66699 -54.501 11s-35.667 13.833 -48 19.5s-25 6.83398 -38 3.50098s-24.167 -14 -33.5 -32zM404.003 707.998l253 -708h-192l-46 142h-189l-44 -142h-192l247 708h163zM270.003 300.998h106l-49 207h-5z" />
    <glyph glyph-name="adieresis" unicode="&#xe4;" horiz-adv-x="648" 
d="M119 834c0 24 8.16699 44.167 24.5 60.5s36.166 24.5 59.499 24.5s43.166 -8.16699 59.499 -24.5s24.5 -36.5 24.5 -60.5c0 -23.333 -8.16699 -43 -24.5 -59s-36.166 -24 -59.499 -24s-43.166 8 -59.499 24s-24.5 35.667 -24.5 59zM360 834c0 24 8 44.167 24 60.5
s36 24.5 60 24.5s44.167 -8.16699 60.5 -24.5s24.5 -36.5 24.5 -60.5c0 -23.333 -8.16699 -43 -24.5 -59s-36.5 -24 -60.5 -24s-44 8 -60 24s-24 35.667 -24 59zM404 708l253 -708h-192l-46 142h-189l-44 -142h-192l247 708h163zM270 301h106l-49 207h-5z" />
    <glyph glyph-name="aring" unicode="&#xe5;" horiz-adv-x="648" 
d="M465 0l-46 142h-189l-44 -142h-192l240 688c-26.667 24.667 -40 55.667 -40 93c0 35.333 12.667 65.833 38 91.5s56.333 38.5 93 38.5c35.333 0 65.5 -13.333 90.5 -40s37.5 -57 37.5 -91c0 -36.667 -13.667 -67.667 -41 -93l245 -687h-192zM325 819
c-11.333 0 -20.5 -3.83301 -27.5 -11.5s-10.5 -17.167 -10.5 -28.5c0 -8.66699 3.5 -16.667 10.5 -24s16.167 -11 27.5 -11c10 0 18.5 3.16699 25.5 9.5s10.5 14.833 10.5 25.5s-3.5 20 -10.5 28s-15.5 12 -25.5 12zM327 508h-5l-52 -207h106z" />
    <glyph glyph-name="ae" unicode="&#xe6;" horiz-adv-x="834" 
d="M794 532h-245v-93h220v-173h-220v-95h245v-171h-415v192h-108l-69 -192h-215l302 708h505v-176zM316 345h72l4 180h-8z" />
    <glyph glyph-name="ccedilla" unicode="&#xe7;" horiz-adv-x="582" 
d="M417 221l156.004 -71.998c-40 -79.333 -102.333 -129.666 -187 -150.999l-13 -29c25.333 -6.66699 44.833 -18.834 58.5 -36.501s19.667 -36.834 18 -57.501s-7.5 -40.834 -17.5 -60.501s-26.167 -36 -48.5 -49s-47.5 -19.5 -75.5 -19.5c-56 0 -104.667 17 -146 51l32 86
c15.333 -10.667 30.666 -18.834 45.999 -24.501s29.166 -7.5 41.499 -5.5s20.166 9 23.499 21s-2.16699 23.167 -16.5 33.5s-34.166 16.5 -59.499 18.5l31 69c-63.333 10 -116 35.667 -158 77s-63 94.666 -63 159.999v244c0 51.333 13.833 95.666 41.5 132.999
s62.5 64.833 104.5 82.5s87.333 26.5 136 26.5c50 0 97.5 -12.667 142.5 -38s80.5 -67 106.5 -125l-146 -59c-15.333 28 -39.833 45.833 -73.5 53.5s-64.167 4.33398 -91.5 -9.99902s-41 -35.5 -41 -63.5v-244c0 -20.667 8.5 -37.667 25.5 -51s36.667 -21.166 59 -23.499
s44.666 1.83398 66.999 12.501s38.166 27.667 47.499 51z" />
    <glyph glyph-name="egrave" unicode="&#xe8;" 
d="M411 756h-155l-131 166h186zM237 540v-110h287v-155h-287v-106h312v-169h-493v708h493v-168h-312z" />
    <glyph glyph-name="eacute" unicode="&#xe9;" 
d="M492 922l-131 -166h-155l100 166h186zM237 540v-110h287v-155h-287v-106h312v-169h-493v708h493v-168h-312z" />
    <glyph glyph-name="ecircumflex" unicode="&#xea;" 
d="M367 924l150 -168h-162l-46 52l-44 -52h-169l154 168h117zM237 540v-110h287v-155h-287v-106h312v-169h-493v708h493v-168h-312z" />
    <glyph glyph-name="edieresis" unicode="&#xeb;" 
d="M104 834c0 24 8.16699 44.167 24.5 60.5s36.166 24.5 59.499 24.5s43.166 -8.16699 59.499 -24.5s24.5 -36.5 24.5 -60.5c0 -23.333 -8.16699 -43 -24.5 -59s-36.166 -24 -59.499 -24s-43.166 8 -59.499 24s-24.5 35.667 -24.5 59zM345 834c0 24 8 44.167 24 60.5
s36 24.5 60 24.5s44.167 -8.16699 60.5 -24.5s24.5 -36.5 24.5 -60.5c0 -23.333 -8.16699 -43 -24.5 -59s-36.5 -24 -60.5 -24s-44 8 -60 24s-24 35.667 -24 59zM237 540v-110h287v-155h-287v-106h312v-169h-493v708h493v-168h-312z" />
    <glyph glyph-name="igrave" unicode="&#xec;" horiz-adv-x="291" 
d="M248 756h-155l-131 166h186zM235 708v-708h-179v708h179z" />
    <glyph glyph-name="iacute" unicode="&#xed;" horiz-adv-x="291" 
d="M329 922l-131 -166h-155l100 166h186zM235 708v-708h-179v708h179z" />
    <glyph glyph-name="icircumflex" unicode="&#xee;" horiz-adv-x="291" 
d="M204 924l140 -168h-162l-36 50l-34 -50h-169l144 168h117zM235 708v-708h-179v708h179z" />
    <glyph glyph-name="idieresis" unicode="&#xef;" horiz-adv-x="291" 
d="M-43 834c0 24 8.16699 44.167 24.5 60.5s36.166 24.5 59.499 24.5s43.166 -8.16699 59.499 -24.5s24.5 -36.5 24.5 -60.5c0 -23.333 -8.16699 -43 -24.5 -59s-36.166 -24 -59.499 -24s-43.166 8 -59.499 24s-24.5 35.667 -24.5 59zM168 834c0 24 8 44.167 24 60.5
s36 24.5 60 24.5s44.167 -8.16699 60.5 -24.5s24.5 -36.5 24.5 -60.5c0 -23.333 -8.16699 -43 -24.5 -59s-36.5 -24 -60.5 -24s-44 8 -60 24s-24 35.667 -24 59zM235 708v-708h-179v708h179z" />
    <glyph glyph-name="eth" unicode="&#xf0;" horiz-adv-x="642" 
d="M62 428v280.001h286c76 0 137.333 -19.333 184 -58s70 -97.334 70 -176.001v-241c0 -78 -23.333 -136.333 -70 -175s-108 -58 -184 -58h-286v285h-48v143h48zM243 176.001h105c49.333 0 74 19 74 57v241c0 38.667 -24.667 58 -74 58h-105v-104h83v-143h-83v-109z" />
    <glyph glyph-name="ntilde" unicode="&#xf1;" horiz-adv-x="676" 
d="M238 745l-86.9971 48.998c15.333 80.667 57.666 120 126.999 118c12 0 26.333 -3.66699 43 -11s30.5 -14 41.5 -20s22.333 -7.33301 34 -4s21.167 13.666 28.5 30.999l91 -52c-9.33301 -37.333 -22.833 -65.666 -40.5 -84.999s-38.834 -28.666 -63.501 -27.999
c-16.667 0 -34.834 3.66699 -54.501 11s-35.667 13.833 -48 19.5s-25 6.83398 -38 3.50098s-24.167 -14 -33.5 -32zM56.0029 -0.00195312v708h170l171 -302l60 -142l5 1l-10 61c-6 40.667 -9.33301 61 -10 61v321h178v-708h-181l-160 279l-62 142l-5 -1l23 -137v-283h-179z
" />
    <glyph glyph-name="ograve" unicode="&#xf2;" horiz-adv-x="665" 
d="M434 758h-155l-131 166h186zM39 233v242c0 76.667 28.833 136.334 86.5 179.001s126.5 64 206.5 64c79.333 0 148.166 -21.333 206.499 -64s87.5 -102.334 87.5 -179.001v-242c0 -76.667 -29 -136.334 -87 -179.001s-126.667 -64 -206 -64s-148.166 21.333 -206.499 64
s-87.5 102.334 -87.5 179.001zM218 475l-0.000976562 -242c0 -24.667 11.333 -43.667 34 -57s49.667 -20 81 -20c30.667 0 57.334 6.83301 80.001 20.5s34 32.5 34 56.5v242c0 26 -11.5 45.833 -34.5 59.5s-50.5 20.5 -82.5 20.5c-30 0 -56.167 -7.16699 -78.5 -21.5
s-33.5 -33.833 -33.5 -58.5z" />
    <glyph glyph-name="oacute" unicode="&#xf3;" horiz-adv-x="665" 
d="M515 924l-131 -166h-155l100 166h186zM39 233v242c0 76.667 28.833 136.334 86.5 179.001s126.5 64 206.5 64c79.333 0 148.166 -21.333 206.499 -64s87.5 -102.334 87.5 -179.001v-242c0 -76.667 -29 -136.334 -87 -179.001s-126.667 -64 -206 -64
s-148.166 21.333 -206.499 64s-87.5 102.334 -87.5 179.001zM218 475l-0.000976562 -242c0 -24.667 11.333 -43.667 34 -57s49.667 -20 81 -20c30.667 0 57.334 6.83301 80.001 20.5s34 32.5 34 56.5v242c0 26 -11.5 45.833 -34.5 59.5s-50.5 20.5 -82.5 20.5
c-30 0 -56.167 -7.16699 -78.5 -21.5s-33.5 -33.833 -33.5 -58.5z" />
    <glyph glyph-name="ocircumflex" unicode="&#xf4;" horiz-adv-x="665" 
d="M390 926l150 -168h-162l-46 52l-44 -52h-169l154 168h117zM39 233v242c0 76.667 28.833 136.334 86.5 179.001s126.5 64 206.5 64c79.333 0 148.166 -21.333 206.499 -64s87.5 -102.334 87.5 -179.001v-242c0 -76.667 -29 -136.334 -87 -179.001s-126.667 -64 -206 -64
s-148.166 21.333 -206.499 64s-87.5 102.334 -87.5 179.001zM218 475l-0.000976562 -242c0 -24.667 11.333 -43.667 34 -57s49.667 -20 81 -20c30.667 0 57.334 6.83301 80.001 20.5s34 32.5 34 56.5v242c0 26 -11.5 45.833 -34.5 59.5s-50.5 20.5 -82.5 20.5
c-30 0 -56.167 -7.16699 -78.5 -21.5s-33.5 -33.833 -33.5 -58.5z" />
    <glyph glyph-name="otilde" unicode="&#xf5;" horiz-adv-x="665" 
d="M230 747l-86.9971 48.998c15.333 80.667 57.666 120 126.999 118c12 0 26.333 -3.66699 43 -11s30.5 -14 41.5 -20s22.333 -7.33301 34 -4s21.167 13.666 28.5 30.999l91 -52c-9.33301 -37.333 -22.833 -65.666 -40.5 -84.999s-38.834 -28.666 -63.501 -27.999
c-16.667 0 -34.834 3.66699 -54.501 11s-35.667 13.833 -48 19.5s-25 6.83398 -38 3.50098s-24.167 -14 -33.5 -32zM39.0029 232.998v242c0 76.667 28.833 136.334 86.5 179.001s126.5 64 206.5 64c79.333 0 148.166 -21.333 206.499 -64s87.5 -102.334 87.5 -179.001v-242
c0 -76.667 -29 -136.334 -87 -179.001s-126.667 -64 -206 -64s-148.166 21.333 -206.499 64s-87.5 102.334 -87.5 179.001zM218.003 474.998l-0.000976562 -242c0 -24.667 11.333 -43.667 34 -57s49.667 -20 81 -20c30.667 0 57.334 6.83301 80.001 20.5s34 32.5 34 56.5
v242c0 26 -11.5 45.833 -34.5 59.5s-50.5 20.5 -82.5 20.5c-30 0 -56.167 -7.16699 -78.5 -21.5s-33.5 -33.833 -33.5 -58.5z" />
    <glyph glyph-name="odieresis" unicode="&#xf6;" horiz-adv-x="665" 
d="M127 836c0 24 8.16699 44.167 24.5 60.5s36.166 24.5 59.499 24.5s43.166 -8.16699 59.499 -24.5s24.5 -36.5 24.5 -60.5c0 -23.333 -8.16699 -43 -24.5 -59s-36.166 -24 -59.499 -24s-43.166 8 -59.499 24s-24.5 35.667 -24.5 59zM368 836c0 24 8 44.167 24 60.5
s36 24.5 60 24.5s44.167 -8.16699 60.5 -24.5s24.5 -36.5 24.5 -60.5c0 -23.333 -8.16699 -43 -24.5 -59s-36.5 -24 -60.5 -24s-44 8 -60 24s-24 35.667 -24 59zM39 233v242c0 76.667 28.833 136.334 86.5 179.001s126.5 64 206.5 64c79.333 0 148.166 -21.333 206.499 -64
s87.5 -102.334 87.5 -179.001v-242c0 -76.667 -29 -136.334 -87 -179.001s-126.667 -64 -206 -64s-148.166 21.333 -206.499 64s-87.5 102.334 -87.5 179.001zM218 475l-0.000976562 -242c0 -24.667 11.333 -43.667 34 -57s49.667 -20 81 -20
c30.667 0 57.334 6.83301 80.001 20.5s34 32.5 34 56.5v242c0 26 -11.5 45.833 -34.5 59.5s-50.5 20.5 -82.5 20.5c-30 0 -56.167 -7.16699 -78.5 -21.5s-33.5 -33.833 -33.5 -58.5z" />
    <glyph glyph-name="divide" unicode="&#xf7;" horiz-adv-x="509" 
d="M28 374h454v-152h-454v152zM163 98c0 26 9 47.5 27 64.5s40.333 25.5 67 25.5s49.167 -8.5 67.5 -25.5s27.5 -38.5 27.5 -64.5s-9.16699 -47.667 -27.5 -65s-40.833 -26 -67.5 -26s-49 8.66699 -67 26s-27 39 -27 65zM163 499c0 26 9 47.5 27 64.5s40.333 25.5 67 25.5
s49.167 -8.5 67.5 -25.5s27.5 -38.5 27.5 -64.5s-9.16699 -47.667 -27.5 -65s-40.833 -26 -67.5 -26s-49 8.66699 -67 26s-27 39 -27 65z" />
    <glyph glyph-name="oslash" unicode="&#xf8;" horiz-adv-x="665" 
d="M574 756l-38.999 -99.001c60.667 -45.333 91 -106 91 -182v-242c0 -76.667 -29 -136.334 -87 -179.001s-126.667 -64 -206 -64c-16.667 0 -32.334 1 -47.001 3l-39 -96l-158 56l42 98c-61.333 44.667 -92 105.334 -92 182.001v242c0 76.667 28.833 136.334 86.5 179.001
s126.5 64 206.5 64c16.667 0 33 -1 49 -3l36 93zM447.001 232.999l-0.000976562 242c0 26 -11.5 45.833 -34.5 59.5s-50.5 20.5 -82.5 20.5c-30 0 -56.167 -7.16699 -78.5 -21.5s-33.5 -33.833 -33.5 -58.5v-242c0 -24.667 11.333 -43.667 34 -57s49.667 -20 81 -20
c30.667 0 57.334 6.83301 80.001 20.5s34 32.5 34 56.5z" />
    <glyph glyph-name="ugrave" unicode="&#xf9;" horiz-adv-x="667" 
d="M437 756h-155l-131 166h186zM233 708v-471c0 -21.333 7 -39.5 21 -54.5s30.833 -24.167 50.5 -27.5s39.5 -3.33301 59.5 0s37 12.5 51 27.5s21 33.167 21 54.5v471h181v-471c0 -36 -6.5 -68.833 -19.5 -98.5s-30.5 -54.167 -52.5 -73.5s-47.167 -35.833 -75.5 -49.5
s-58 -21.834 -89 -24.501s-62.167 -2.66699 -93.5 0s-61.166 10.834 -89.499 24.501s-53.333 30.167 -75 49.5s-38.834 43.833 -51.501 73.5s-19 62.5 -19 98.5v471h181z" />
    <glyph glyph-name="uacute" unicode="&#xfa;" horiz-adv-x="667" 
d="M518 922l-131 -166h-155l100 166h186zM233 708v-471c0 -21.333 7 -39.5 21 -54.5s30.833 -24.167 50.5 -27.5s39.5 -3.33301 59.5 0s37 12.5 51 27.5s21 33.167 21 54.5v471h181v-471c0 -36 -6.5 -68.833 -19.5 -98.5s-30.5 -54.167 -52.5 -73.5
s-47.167 -35.833 -75.5 -49.5s-58 -21.834 -89 -24.501s-62.167 -2.66699 -93.5 0s-61.166 10.834 -89.499 24.501s-53.333 30.167 -75 49.5s-38.834 43.833 -51.501 73.5s-19 62.5 -19 98.5v471h181z" />
    <glyph glyph-name="ucircumflex" unicode="&#xfb;" horiz-adv-x="667" 
d="M393 924l150 -168h-162l-46 52l-44 -52h-169l154 168h117zM233 708v-471c0 -21.333 7 -39.5 21 -54.5s30.833 -24.167 50.5 -27.5s39.5 -3.33301 59.5 0s37 12.5 51 27.5s21 33.167 21 54.5v471h181v-471c0 -36 -6.5 -68.833 -19.5 -98.5s-30.5 -54.167 -52.5 -73.5
s-47.167 -35.833 -75.5 -49.5s-58 -21.834 -89 -24.501s-62.167 -2.66699 -93.5 0s-61.166 10.834 -89.499 24.501s-53.333 30.167 -75 49.5s-38.834 43.833 -51.501 73.5s-19 62.5 -19 98.5v471h181z" />
    <glyph glyph-name="udieresis" unicode="&#xfc;" horiz-adv-x="667" 
d="M130 834c0 24 8.16699 44.167 24.5 60.5s36.166 24.5 59.499 24.5s43.166 -8.16699 59.499 -24.5s24.5 -36.5 24.5 -60.5c0 -23.333 -8.16699 -43 -24.5 -59s-36.166 -24 -59.499 -24s-43.166 8 -59.499 24s-24.5 35.667 -24.5 59zM371 834c0 24 8 44.167 24 60.5
s36 24.5 60 24.5s44.167 -8.16699 60.5 -24.5s24.5 -36.5 24.5 -60.5c0 -23.333 -8.16699 -43 -24.5 -59s-36.5 -24 -60.5 -24s-44 8 -60 24s-24 35.667 -24 59zM233 708v-471c0 -21.333 7 -39.5 21 -54.5s30.833 -24.167 50.5 -27.5s39.5 -3.33301 59.5 0s37 12.5 51 27.5
s21 33.167 21 54.5v471h181v-471c0 -36 -6.5 -68.833 -19.5 -98.5s-30.5 -54.167 -52.5 -73.5s-47.167 -35.833 -75.5 -49.5s-58 -21.834 -89 -24.501s-62.167 -2.66699 -93.5 0s-61.166 10.834 -89.499 24.501s-53.333 30.167 -75 49.5s-38.834 43.833 -51.501 73.5
s-19 62.5 -19 98.5v471h181z" />
    <glyph glyph-name="yacute" unicode="&#xfd;" horiz-adv-x="655" 
d="M507 922l-131 -166h-155l100 166h186zM417 0h-179v279l-247 429h208l128 -260l128 260h210l-248 -429v-279z" />
    <glyph glyph-name="thorn" unicode="&#xfe;" horiz-adv-x="556" 
d="M237 602h10c95.333 0 167.833 -20.167 217.5 -60.5s74.5 -100.166 74.5 -179.499c0 -44 -8.5 -82 -25.5 -114s-40.333 -56.333 -70 -73s-61.5 -28.834 -95.5 -36.501s-71 -11.5 -111 -11.5v-126h-181v714h181v-113zM237 439v-153.999c56 -6.66699 94.667 6.33301 116 39
c16.667 25.333 16.667 50.666 0 75.999c-22 32 -60.667 45 -116 39z" />
    <glyph glyph-name="ydieresis" unicode="&#xff;" horiz-adv-x="655" 
d="M119 834c0 24 8.16699 44.167 24.5 60.5s36.166 24.5 59.499 24.5s43.166 -8.16699 59.499 -24.5s24.5 -36.5 24.5 -60.5c0 -23.333 -8.16699 -43 -24.5 -59s-36.166 -24 -59.499 -24s-43.166 8 -59.499 24s-24.5 35.667 -24.5 59zM360 834c0 24 8 44.167 24 60.5
s36 24.5 60 24.5s44.167 -8.16699 60.5 -24.5s24.5 -36.5 24.5 -60.5c0 -23.333 -8.16699 -43 -24.5 -59s-36.5 -24 -60.5 -24s-44 8 -60 24s-24 35.667 -24 59zM417 0h-179v279l-247 429h208l128 -260l128 260h210l-248 -429v-279z" />
    <glyph glyph-name="Amacron" unicode="&#x100;" horiz-adv-x="648" 
d="M174 758v134h297v-134h-297zM404 708l253 -708h-192l-46 142h-189l-44 -142h-192l247 708h163zM270 301h106l-49 207h-5z" />
    <glyph glyph-name="amacron" unicode="&#x101;" horiz-adv-x="648" 
d="M174 758v134h297v-134h-297zM404 708l253 -708h-192l-46 142h-189l-44 -142h-192l247 708h163zM270 301h106l-49 207h-5z" />
    <glyph glyph-name="Abreve" unicode="&#x102;" horiz-adv-x="648" 
d="M362 922h135c0 -36.667 -8.66699 -68.667 -26 -96s-39 -47 -65 -59s-54 -18 -84 -18s-58 6 -84 18s-47.667 31.667 -65 59s-26 59.333 -26 96h137c0 -16 6.5 -27.333 19.5 -34s26 -6.66699 39 0s19.5 18 19.5 34zM404 708l253 -708h-192l-46 142h-189l-44 -142h-192
l247 708h163zM270 301h106l-49 207h-5z" />
    <glyph glyph-name="abreve" unicode="&#x103;" horiz-adv-x="648" 
d="M362 922h135c0 -36.667 -8.66699 -68.667 -26 -96s-39 -47 -65 -59s-54 -18 -84 -18s-58 6 -84 18s-47.667 31.667 -65 59s-26 59.333 -26 96h137c0 -16 6.5 -27.333 19.5 -34s26 -6.66699 39 0s19.5 18 19.5 34zM404 708l253 -708h-192l-46 142h-189l-44 -142h-192
l247 708h163zM270 301h106l-49 207h-5z" />
    <glyph glyph-name="Aogonek" unicode="&#x104;" horiz-adv-x="648" 
d="M675 -97l28.001 -107.001c-32.667 -26.667 -71 -40 -115 -40c-68.667 0 -110.334 24.667 -125.001 74s4 106 56 170h-54l-46 142h-189l-44 -142h-192l247 708h163l253 -708c-37.333 -34 -54.333 -63.667 -51 -89c2 -15.333 11.667 -22.666 29 -21.999
c12 0 25.333 4.66699 40 14zM270.001 300.999h106l-49 207h-5z" />
    <glyph glyph-name="aogonek" unicode="&#x105;" horiz-adv-x="648" 
d="M675 -97l28.001 -107.001c-32.667 -26.667 -71 -40 -115 -40c-68.667 0 -110.334 24.667 -125.001 74s4 106 56 170h-54l-46 142h-189l-44 -142h-192l247 708h163l253 -708c-37.333 -34 -54.333 -63.667 -51 -89c2 -15.333 11.667 -22.666 29 -21.999
c12 0 25.333 4.66699 40 14zM270.001 300.999h106l-49 207h-5z" />
    <glyph glyph-name="Cacute" unicode="&#x106;" horiz-adv-x="582" 
d="M504 922l-131 -166h-155l100 166h186zM417 221l156.001 -72.001c-18.667 -36.667 -42.834 -67.334 -72.501 -92.001s-59.667 -42 -90 -52s-61.166 -15 -92.499 -15c-75.333 0 -140.666 21.333 -195.999 64s-83 102 -83 178v244c0 51.333 13.833 95.666 41.5 132.999
s62.5 64.833 104.5 82.5s87.333 26.5 136 26.5c50 0 97.5 -12.667 142.5 -38s80.5 -67 106.5 -125l-146 -59c-15.333 28 -39.833 45.833 -73.5 53.5s-64.167 4.33398 -91.5 -9.99902s-41 -35.5 -41 -63.5v-244c0 -20.667 8.5 -37.667 25.5 -51s36.667 -21.166 59 -23.499
s44.666 1.83398 66.999 12.501s38.166 27.667 47.499 51z" />
    <glyph glyph-name="cacute" unicode="&#x107;" horiz-adv-x="582" 
d="M504 922l-131 -166h-155l100 166h186zM417 221l156.001 -72.001c-18.667 -36.667 -42.834 -67.334 -72.501 -92.001s-59.667 -42 -90 -52s-61.166 -15 -92.499 -15c-75.333 0 -140.666 21.333 -195.999 64s-83 102 -83 178v244c0 51.333 13.833 95.666 41.5 132.999
s62.5 64.833 104.5 82.5s87.333 26.5 136 26.5c50 0 97.5 -12.667 142.5 -38s80.5 -67 106.5 -125l-146 -59c-15.333 28 -39.833 45.833 -73.5 53.5s-64.167 4.33398 -91.5 -9.99902s-41 -35.5 -41 -63.5v-244c0 -20.667 8.5 -37.667 25.5 -51s36.667 -21.166 59 -23.499
s44.666 1.83398 66.999 12.501s38.166 27.667 47.499 51z" />
    <glyph glyph-name="Cdotaccent" unicode="&#x10a;" horiz-adv-x="582" 
d="M222 851c0 27.333 9.5 50.333 28.5 69s42.5 28 70.5 28s51.167 -9.33301 69.5 -28s27.5 -41.667 27.5 -69c0 -28 -9.16699 -51.333 -27.5 -70s-41.5 -28 -69.5 -28s-51.5 9.5 -70.5 28.5s-28.5 42.167 -28.5 69.5zM417 221l156.001 -72.001
c-18.667 -36.667 -42.834 -67.334 -72.501 -92.001s-59.667 -42 -90 -52s-61.166 -15 -92.499 -15c-75.333 0 -140.666 21.333 -195.999 64s-83 102 -83 178v244c0 51.333 13.833 95.666 41.5 132.999s62.5 64.833 104.5 82.5s87.333 26.5 136 26.5
c50 0 97.5 -12.667 142.5 -38s80.5 -67 106.5 -125l-146 -59c-15.333 28 -39.833 45.833 -73.5 53.5s-64.167 4.33398 -91.5 -9.99902s-41 -35.5 -41 -63.5v-244c0 -20.667 8.5 -37.667 25.5 -51s36.667 -21.166 59 -23.499s44.666 1.83398 66.999 12.501
s38.166 27.667 47.499 51z" />
    <glyph glyph-name="cdotaccent" unicode="&#x10b;" horiz-adv-x="582" 
d="M222 851c0 27.333 9.5 50.333 28.5 69s42.5 28 70.5 28s51.167 -9.33301 69.5 -28s27.5 -41.667 27.5 -69c0 -28 -9.16699 -51.333 -27.5 -70s-41.5 -28 -69.5 -28s-51.5 9.5 -70.5 28.5s-28.5 42.167 -28.5 69.5zM417 221l156.001 -72.001
c-18.667 -36.667 -42.834 -67.334 -72.501 -92.001s-59.667 -42 -90 -52s-61.166 -15 -92.499 -15c-75.333 0 -140.666 21.333 -195.999 64s-83 102 -83 178v244c0 51.333 13.833 95.666 41.5 132.999s62.5 64.833 104.5 82.5s87.333 26.5 136 26.5
c50 0 97.5 -12.667 142.5 -38s80.5 -67 106.5 -125l-146 -59c-15.333 28 -39.833 45.833 -73.5 53.5s-64.167 4.33398 -91.5 -9.99902s-41 -35.5 -41 -63.5v-244c0 -20.667 8.5 -37.667 25.5 -51s36.667 -21.166 59 -23.499s44.666 1.83398 66.999 12.501
s38.166 27.667 47.499 51z" />
    <glyph glyph-name="Ccaron" unicode="&#x10c;" horiz-adv-x="582" 
d="M112 924h168l41 -52l46 52h167l-150 -168h-122zM417 221l156.001 -72.001c-18.667 -36.667 -42.834 -67.334 -72.501 -92.001s-59.667 -42 -90 -52s-61.166 -15 -92.499 -15c-75.333 0 -140.666 21.333 -195.999 64s-83 102 -83 178v244
c0 51.333 13.833 95.666 41.5 132.999s62.5 64.833 104.5 82.5s87.333 26.5 136 26.5c50 0 97.5 -12.667 142.5 -38s80.5 -67 106.5 -125l-146 -59c-15.333 28 -39.833 45.833 -73.5 53.5s-64.167 4.33398 -91.5 -9.99902s-41 -35.5 -41 -63.5v-244
c0 -20.667 8.5 -37.667 25.5 -51s36.667 -21.166 59 -23.499s44.666 1.83398 66.999 12.501s38.166 27.667 47.499 51z" />
    <glyph glyph-name="ccaron" unicode="&#x10d;" horiz-adv-x="582" 
d="M112 924h168l41 -52l46 52h167l-150 -168h-122zM417 221l156.001 -72.001c-18.667 -36.667 -42.834 -67.334 -72.501 -92.001s-59.667 -42 -90 -52s-61.166 -15 -92.499 -15c-75.333 0 -140.666 21.333 -195.999 64s-83 102 -83 178v244
c0 51.333 13.833 95.666 41.5 132.999s62.5 64.833 104.5 82.5s87.333 26.5 136 26.5c50 0 97.5 -12.667 142.5 -38s80.5 -67 106.5 -125l-146 -59c-15.333 28 -39.833 45.833 -73.5 53.5s-64.167 4.33398 -91.5 -9.99902s-41 -35.5 -41 -63.5v-244
c0 -20.667 8.5 -37.667 25.5 -51s36.667 -21.166 59 -23.499s44.666 1.83398 66.999 12.501s38.166 27.667 47.499 51z" />
    <glyph glyph-name="Dcaron" unicode="&#x10e;" horiz-adv-x="636" 
d="M80 924h168l41 -52l46 52h167l-150 -168h-122zM56 708l265.001 0.00195312c49.333 0 94.166 -8 134.499 -24s73.833 -42.333 100.5 -79s40 -81.334 40 -134.001v-238c0 -76.667 -26.5 -134.834 -79.5 -174.501s-118.167 -59.167 -195.5 -58.5h-265v708zM236.001 168.002
l91 0.000976562c29.333 0 51.5 6.83301 66.5 20.5s22.5 32.5 22.5 56.5v221c0 23.333 -7.5 41.666 -22.5 54.999s-37.167 20 -66.5 20h-91v-373z" />
    <glyph glyph-name="dcaron" unicode="&#x10f;" horiz-adv-x="636" 
d="M80 924h168l41 -52l46 52h167l-150 -168h-122zM56 708l265.001 0.00195312c49.333 0 94.166 -8 134.499 -24s73.833 -42.333 100.5 -79s40 -81.334 40 -134.001v-238c0 -76.667 -26.5 -134.834 -79.5 -174.501s-118.167 -59.167 -195.5 -58.5h-265v708zM236.001 168.002
l91 0.000976562c29.333 0 51.5 6.83301 66.5 20.5s22.5 32.5 22.5 56.5v221c0 23.333 -7.5 41.666 -22.5 54.999s-37.167 20 -66.5 20h-91v-373z" />
    <glyph glyph-name="Dcroat" unicode="&#x110;" horiz-adv-x="642" 
d="M62 428v280.001h286c76 0 137.333 -19.333 184 -58s70 -97.334 70 -176.001v-241c0 -78 -23.333 -136.333 -70 -175s-108 -58 -184 -58h-286v285h-48v143h48zM243 176.001h105c49.333 0 74 19 74 57v241c0 38.667 -24.667 58 -74 58h-105v-104h83v-143h-83v-109z" />
    <glyph glyph-name="dcroat" unicode="&#x111;" horiz-adv-x="642" 
d="M62 428v280.001h286c76 0 137.333 -19.333 184 -58s70 -97.334 70 -176.001v-241c0 -78 -23.333 -136.333 -70 -175s-108 -58 -184 -58h-286v285h-48v143h48zM243 176.001h105c49.333 0 74 19 74 57v241c0 38.667 -24.667 58 -74 58h-105v-104h83v-143h-83v-109z" />
    <glyph glyph-name="Emacron" unicode="&#x112;" 
d="M159 758v134h297v-134h-297zM237 540v-110h287v-155h-287v-106h312v-169h-493v708h493v-168h-312z" />
    <glyph glyph-name="emacron" unicode="&#x113;" 
d="M159 758v134h297v-134h-297zM237 540v-110h287v-155h-287v-106h312v-169h-493v708h493v-168h-312z" />
    <glyph glyph-name="Edotaccent" unicode="&#x116;" 
d="M210 851c0 27.333 9.5 50.333 28.5 69s42.5 28 70.5 28s51.167 -9.33301 69.5 -28s27.5 -41.667 27.5 -69c0 -28 -9.16699 -51.333 -27.5 -70s-41.5 -28 -69.5 -28s-51.5 9.5 -70.5 28.5s-28.5 42.167 -28.5 69.5zM237 540v-110h287v-155h-287v-106h312v-169h-493v708
h493v-168h-312z" />
    <glyph glyph-name="edotaccent" unicode="&#x117;" 
d="M210 851c0 27.333 9.5 50.333 28.5 69s42.5 28 70.5 28s51.167 -9.33301 69.5 -28s27.5 -41.667 27.5 -69c0 -28 -9.16699 -51.333 -27.5 -70s-41.5 -28 -69.5 -28s-51.5 9.5 -70.5 28.5s-28.5 42.167 -28.5 69.5zM237 540v-110h287v-155h-287v-106h312v-169h-493v708
h493v-168h-312z" />
    <glyph glyph-name="Eogonek" unicode="&#x118;" 
d="M568 -97l28.001 -107c-32.667 -26.667 -71 -40 -115 -40c-68.667 0 -110.334 24.667 -125.001 74s4 106 56 170h-356v708h493v-168h-312v-110h287v-155h-287v-106h312v-169c-38 -36 -54.667 -66.333 -50 -91c3.33301 -14 13 -20.667 29 -20c12 0 25.333 4.66699 40 14z
" />
    <glyph glyph-name="eogonek" unicode="&#x119;" 
d="M568 -97l28.001 -107c-32.667 -26.667 -71 -40 -115 -40c-68.667 0 -110.334 24.667 -125.001 74s4 106 56 170h-356v708h493v-168h-312v-110h287v-155h-287v-106h312v-169c-38 -36 -54.667 -66.333 -50 -91c3.33301 -14 13 -20.667 29 -20c12 0 25.333 4.66699 40 14z
" />
    <glyph glyph-name="Ecaron" unicode="&#x11a;" 
d="M100 924h168l41 -52l46 52h167l-150 -168h-122zM237 540v-110h287v-155h-287v-106h312v-169h-493v708h493v-168h-312z" />
    <glyph glyph-name="ecaron" unicode="&#x11b;" 
d="M100 924h168l41 -52l46 52h167l-150 -168h-122zM237 540v-110h287v-155h-287v-106h312v-169h-493v708h493v-168h-312z" />
    <glyph glyph-name="Gbreve" unicode="&#x11e;" horiz-adv-x="624" 
d="M357 922h135c0 -36.667 -8.66699 -68.667 -26 -96s-39 -47 -65 -59s-54 -18 -84 -18s-58 6 -84 18s-47.667 31.667 -65 59s-26 59.333 -26 96h137c0 -16 6.5 -27.333 19.5 -34s26 -6.66699 39 0s19.5 18 19.5 34zM565 567l-150.002 -68.9971
c-9.33301 22.667 -25 39.167 -47 49.5s-44 14.166 -66 11.499s-41.5 -11.334 -58.5 -26.001s-25.5 -33 -25.5 -55v-243c0 -26 10.833 -46.5 32.5 -61.5s45.334 -22.5 71.001 -22.5s49.334 7.5 71.001 22.5s32.5 35.5 32.5 61.5v26h-113v150h285v-176
c0 -77.333 -27.167 -137.5 -81.5 -180.5s-119.833 -64.5 -196.5 -64.5c-76 0 -141.667 21.667 -197 65s-83 103.333 -83 180v243c0 75.333 27.667 134.166 83 176.499s121 63.5 197 63.5c32.667 0 64 -4.5 94 -13.5s59 -25.167 87 -48.5s49.667 -53 65 -89z" />
    <glyph glyph-name="gbreve" unicode="&#x11f;" horiz-adv-x="624" 
d="M357 922h135c0 -36.667 -8.66699 -68.667 -26 -96s-39 -47 -65 -59s-54 -18 -84 -18s-58 6 -84 18s-47.667 31.667 -65 59s-26 59.333 -26 96h137c0 -16 6.5 -27.333 19.5 -34s26 -6.66699 39 0s19.5 18 19.5 34zM565 567l-150.002 -68.9971
c-9.33301 22.667 -25 39.167 -47 49.5s-44 14.166 -66 11.499s-41.5 -11.334 -58.5 -26.001s-25.5 -33 -25.5 -55v-243c0 -26 10.833 -46.5 32.5 -61.5s45.334 -22.5 71.001 -22.5s49.334 7.5 71.001 22.5s32.5 35.5 32.5 61.5v26h-113v150h285v-176
c0 -77.333 -27.167 -137.5 -81.5 -180.5s-119.833 -64.5 -196.5 -64.5c-76 0 -141.667 21.667 -197 65s-83 103.333 -83 180v243c0 75.333 27.667 134.166 83 176.499s121 63.5 197 63.5c32.667 0 64 -4.5 94 -13.5s59 -25.167 87 -48.5s49.667 -53 65 -89z" />
    <glyph glyph-name="Gdotaccent" unicode="&#x120;" horiz-adv-x="624" 
d="M220 851c0 27.333 9.5 50.333 28.5 69s42.5 28 70.5 28s51.167 -9.33301 69.5 -28s27.5 -41.667 27.5 -69c0 -28 -9.16699 -51.333 -27.5 -70s-41.5 -28 -69.5 -28s-51.5 9.5 -70.5 28.5s-28.5 42.167 -28.5 69.5zM565 567l-150.002 -68.9971
c-9.33301 22.667 -25 39.167 -47 49.5s-44 14.166 -66 11.499s-41.5 -11.334 -58.5 -26.001s-25.5 -33 -25.5 -55v-243c0 -26 10.833 -46.5 32.5 -61.5s45.334 -22.5 71.001 -22.5s49.334 7.5 71.001 22.5s32.5 35.5 32.5 61.5v26h-113v150h285v-176
c0 -77.333 -27.167 -137.5 -81.5 -180.5s-119.833 -64.5 -196.5 -64.5c-76 0 -141.667 21.667 -197 65s-83 103.333 -83 180v243c0 75.333 27.667 134.166 83 176.499s121 63.5 197 63.5c32.667 0 64 -4.5 94 -13.5s59 -25.167 87 -48.5s49.667 -53 65 -89z" />
    <glyph glyph-name="gdotaccent" unicode="&#x121;" horiz-adv-x="624" 
d="M220 851c0 27.333 9.5 50.333 28.5 69s42.5 28 70.5 28s51.167 -9.33301 69.5 -28s27.5 -41.667 27.5 -69c0 -28 -9.16699 -51.333 -27.5 -70s-41.5 -28 -69.5 -28s-51.5 9.5 -70.5 28.5s-28.5 42.167 -28.5 69.5zM565 567l-150.002 -68.9971
c-9.33301 22.667 -25 39.167 -47 49.5s-44 14.166 -66 11.499s-41.5 -11.334 -58.5 -26.001s-25.5 -33 -25.5 -55v-243c0 -26 10.833 -46.5 32.5 -61.5s45.334 -22.5 71.001 -22.5s49.334 7.5 71.001 22.5s32.5 35.5 32.5 61.5v26h-113v150h285v-176
c0 -77.333 -27.167 -137.5 -81.5 -180.5s-119.833 -64.5 -196.5 -64.5c-76 0 -141.667 21.667 -197 65s-83 103.333 -83 180v243c0 75.333 27.667 134.166 83 176.499s121 63.5 197 63.5c32.667 0 64 -4.5 94 -13.5s59 -25.167 87 -48.5s49.667 -53 65 -89z" />
    <glyph glyph-name="Gcommaaccent" unicode="&#x122;" horiz-adv-x="624" 
d="M565 567l-150.002 -68.9971c-9.33301 22.667 -25 39.167 -47 49.5s-44 14.166 -66 11.499s-41.5 -11.334 -58.5 -26.001s-25.5 -33 -25.5 -55v-243c0 -26 10.833 -46.5 32.5 -61.5s45.334 -22.5 71.001 -22.5s49.334 7.5 71.001 22.5s32.5 35.5 32.5 61.5v26h-113v150
h285v-176c0 -77.333 -27.167 -137.5 -81.5 -180.5s-119.833 -64.5 -196.5 -64.5c-76 0 -141.667 21.667 -197 65s-83 103.333 -83 180v243c0 75.333 27.667 134.166 83 176.499s121 63.5 197 63.5c32.667 0 64 -4.5 94 -13.5s59 -25.167 87 -48.5s49.667 -53 65 -89z
M427.998 -45.9971l-75 -204h-163l61 204h177z" />
    <glyph glyph-name="gcommaaccent" unicode="&#x123;" horiz-adv-x="624" 
d="M565 567l-150.002 -68.9971c-9.33301 22.667 -25 39.167 -47 49.5s-44 14.166 -66 11.499s-41.5 -11.334 -58.5 -26.001s-25.5 -33 -25.5 -55v-243c0 -26 10.833 -46.5 32.5 -61.5s45.334 -22.5 71.001 -22.5s49.334 7.5 71.001 22.5s32.5 35.5 32.5 61.5v26h-113v150
h285v-176c0 -77.333 -27.167 -137.5 -81.5 -180.5s-119.833 -64.5 -196.5 -64.5c-76 0 -141.667 21.667 -197 65s-83 103.333 -83 180v243c0 75.333 27.667 134.166 83 176.499s121 63.5 197 63.5c32.667 0 64 -4.5 94 -13.5s59 -25.167 87 -48.5s49.667 -53 65 -89z
M427.998 -45.9971l-75 -204h-163l61 204h177z" />
    <glyph glyph-name="Hbar" unicode="&#x126;" horiz-adv-x="697" 
d="M631 518v-518h-180v267h-204v-267h-180v518h-59v104h59v86h180v-86h204v86h180v-86h58v-104h-58zM247 518v-78h204v78h-204z" />
    <glyph glyph-name="hbar" unicode="&#x127;" horiz-adv-x="697" 
d="M631 518v-518h-180v267h-204v-267h-180v518h-59v104h59v86h180v-86h204v86h180v-86h58v-104h-58zM247 518v-78h204v78h-204z" />
    <glyph glyph-name="Imacron" unicode="&#x12a;" horiz-adv-x="291" 
d="M-4 758v134h297v-134h-297zM235 708v-708h-179v708h179z" />
    <glyph glyph-name="imacron" unicode="&#x12b;" horiz-adv-x="291" 
d="M-4 758v134h297v-134h-297zM235 708v-708h-179v708h179z" />
    <glyph glyph-name="Iogonek" unicode="&#x12e;" horiz-adv-x="291" 
d="M252 -97l28.001 -107c-32.667 -26.667 -71 -40 -115 -40c-68.667 0 -110.334 24.667 -125.001 74s4 106 56 170h-40v708h179v-708c-33.333 -28.667 -50.333 -56.334 -51 -83.001c0 -19.333 9.33301 -28.666 28 -27.999c12 0 25.333 4.66699 40 14z" />
    <glyph glyph-name="iogonek" unicode="&#x12f;" horiz-adv-x="291" 
d="M252 -97l28.001 -107c-32.667 -26.667 -71 -40 -115 -40c-68.667 0 -110.334 24.667 -125.001 74s4 106 56 170h-40v708h179v-708c-33.333 -28.667 -50.333 -56.334 -51 -83.001c0 -19.333 9.33301 -28.666 28 -27.999c12 0 25.333 4.66699 40 14z" />
    <glyph glyph-name="Idotaccent" unicode="&#x130;" horiz-adv-x="291" 
d="M47 851c0 27.333 9.5 50.333 28.5 69s42.5 28 70.5 28s51.167 -9.33301 69.5 -28s27.5 -41.667 27.5 -69c0 -28 -9.16699 -51.333 -27.5 -70s-41.5 -28 -69.5 -28s-51.5 9.5 -70.5 28.5s-28.5 42.167 -28.5 69.5zM235 708v-708h-179v708h179z" />
    <glyph glyph-name="dotlessi" unicode="&#x131;" horiz-adv-x="291" 
d="M235 708v-708h-179v708h179z" />
    <glyph glyph-name="IJ" unicode="&#x132;" horiz-adv-x="878" 
d="M235 708v-708h-179v708h179zM294 208l169 35c4.66699 -26.667 16.667 -46.667 36 -60s41 -20 65 -20c22.667 0 42.667 6.33301 60 19s26 29 26 49v315h-161v162h338v-477c0 -73.333 -27 -131.833 -81 -175.5s-117 -65.5 -189 -65.5c-66 0 -124 18.667 -174 56
s-79.667 91.333 -89 162z" />
    <glyph glyph-name="ij" unicode="&#x133;" horiz-adv-x="878" 
d="M235 708v-708h-179v708h179zM294 208l169 35c4.66699 -26.667 16.667 -46.667 36 -60s41 -20 65 -20c22.667 0 42.667 6.33301 60 19s26 29 26 49v315h-161v162h338v-477c0 -73.333 -27 -131.833 -81 -175.5s-117 -65.5 -189 -65.5c-66 0 -124 18.667 -174 56
s-79.667 91.333 -89 162z" />
    <glyph glyph-name="Kcommaaccent" unicode="&#x136;" horiz-adv-x="640" 
d="M236 446l192 262h223l-280 -342l279 -366h-227l-181 253l-6 -8v-245h-180v708h180v-262zM437 -50l-75 -204h-163l61 204h177z" />
    <glyph glyph-name="kcommaaccent" unicode="&#x137;" horiz-adv-x="640" 
d="M236 446l192 262h223l-280 -342l279 -366h-227l-181 253l-6 -8v-245h-180v708h180v-262zM437 -50l-75 -204h-163l61 204h177z" />
    <glyph glyph-name="Lacute" unicode="&#x139;" horiz-adv-x="539" 
d="M331 922l-131 -166h-155l100 166h186zM56 0v708h180v-531h288v-177h-468z" />
    <glyph glyph-name="lacute" unicode="&#x13a;" horiz-adv-x="539" 
d="M331 922l-131 -166h-155l100 166h186zM56 0v708h180v-531h288v-177h-468z" />
    <glyph glyph-name="Lcommaaccent" unicode="&#x13b;" horiz-adv-x="539" 
d="M56 0v708h180v-531h288v-177h-468zM406 -50l-75 -204h-163l61 204h177z" />
    <glyph glyph-name="lcommaaccent" unicode="&#x13c;" horiz-adv-x="539" 
d="M56 0v708h180v-531h288v-177h-468zM406 -50l-75 -204h-163l61 204h177z" />
    <glyph glyph-name="Lcaron" unicode="&#x13d;" horiz-adv-x="549" 
d="M56 0v708h180v-531h288v-177h-468zM544 704l-75 -204h-153l61 204h167z" />
    <glyph glyph-name="lcaron" unicode="&#x13e;" horiz-adv-x="549" 
d="M56 0v708h180v-531h288v-177h-468zM544 704l-75 -204h-153l61 204h167z" />
    <glyph glyph-name="Ldot" unicode="&#x13f;" horiz-adv-x="548" 
d="M56 0v708h180v-531h288v-177h-468zM293 380c0 27.333 9.16699 50.333 27.5 69s41.5 28 69.5 28c26.667 0 49 -9.33301 67 -28s27 -41.667 27 -69c0 -26.667 -9 -49 -27 -67s-40.333 -27 -67 -27c-28 0 -51.167 9 -69.5 27s-27.5 40.333 -27.5 67z" />
    <glyph glyph-name="ldot" unicode="&#x140;" horiz-adv-x="548" 
d="M56 0v708h180v-531h288v-177h-468zM293 380c0 27.333 9.16699 50.333 27.5 69s41.5 28 69.5 28c26.667 0 49 -9.33301 67 -28s27 -41.667 27 -69c0 -26.667 -9 -49 -27 -67s-40.333 -27 -67 -27c-28 0 -51.167 9 -69.5 27s-27.5 40.333 -27.5 67z" />
    <glyph glyph-name="Lslash" unicode="&#x141;" horiz-adv-x="570" 
d="M542 182v-182h-455v257l-41 -17l-45 113l86 36v319h181v-242l129 53l47 -112l-176 -73v-152h274z" />
    <glyph glyph-name="lslash" unicode="&#x142;" horiz-adv-x="570" 
d="M542 182v-182h-455v257l-41 -17l-45 113l86 36v319h181v-242l129 53l47 -112l-176 -73v-152h274z" />
    <glyph glyph-name="Nacute" unicode="&#x143;" horiz-adv-x="676" 
d="M523 922l-131 -166h-155l100 166h186zM56 0v708h170l171 -302l60 -142l5 1l-10 61c-6 40.667 -9.33301 61 -10 61v321h178v-708h-181l-160 279l-62 142l-5 -1l23 -137v-283h-179z" />
    <glyph glyph-name="nacute" unicode="&#x144;" horiz-adv-x="676" 
d="M523 922l-131 -166h-155l100 166h186zM56 0v708h170l171 -302l60 -142l5 1l-10 61c-6 40.667 -9.33301 61 -10 61v321h178v-708h-181l-160 279l-62 142l-5 -1l23 -137v-283h-179z" />
    <glyph glyph-name="Ncommaaccent" unicode="&#x145;" horiz-adv-x="676" 
d="M56 0v708h170l171 -302l60 -142l5 1l-10 61c-6 40.667 -9.33301 61 -10 61v321h178v-708h-181l-160 279l-62 142l-5 -1l23 -137v-283h-179zM455 -50l-75 -204h-163l61 204h177z" />
    <glyph glyph-name="ncommaaccent" unicode="&#x146;" horiz-adv-x="676" 
d="M56 0v708h170l171 -302l60 -142l5 1l-10 61c-6 40.667 -9.33301 61 -10 61v321h178v-708h-181l-160 279l-62 142l-5 -1l23 -137v-283h-179zM455 -50l-75 -204h-163l61 204h177z" />
    <glyph glyph-name="Ncaron" unicode="&#x147;" horiz-adv-x="676" 
d="M131 924h168l41 -52l46 52h167l-150 -168h-122zM56 0v708h170l171 -302l60 -142l5 1l-10 61c-6 40.667 -9.33301 61 -10 61v321h178v-708h-181l-160 279l-62 142l-5 -1l23 -137v-283h-179z" />
    <glyph glyph-name="ncaron" unicode="&#x148;" horiz-adv-x="676" 
d="M131 924h168l41 -52l46 52h167l-150 -168h-122zM56 0v708h170l171 -302l60 -142l5 1l-10 61c-6 40.667 -9.33301 61 -10 61v321h178v-708h-181l-160 279l-62 142l-5 -1l23 -137v-283h-179z" />
    <glyph glyph-name="Eng" unicode="&#x14a;" horiz-adv-x="676" 
d="M620 708v-713c0 -75.333 -23.333 -131.333 -70 -168s-105 -46 -175 -28v147c23.333 -5.33301 41.833 -2.5 55.5 8.5s20.5 25.167 20.5 42.5v10l-172 272l-62 142l-4 -1l22 -137v-283h-179v708h170l171 -294l60 -142l3 1l-9 61l-9 61v313h178z" />
    <glyph glyph-name="eng" unicode="&#x14b;" horiz-adv-x="676" 
d="M620 708v-713c0 -75.333 -23.333 -131.333 -70 -168s-105 -46 -175 -28v147c23.333 -5.33301 41.833 -2.5 55.5 8.5s20.5 25.167 20.5 42.5v10l-172 272l-62 142l-4 -1l22 -137v-283h-179v708h170l171 -294l60 -142l3 1l-9 61l-9 61v313h178z" />
    <glyph glyph-name="Omacron" unicode="&#x14c;" horiz-adv-x="665" 
d="M182 760v134h297v-134h-297zM39 233v242c0 76.667 28.833 136.334 86.5 179.001s126.5 64 206.5 64c79.333 0 148.166 -21.333 206.499 -64s87.5 -102.334 87.5 -179.001v-242c0 -76.667 -29 -136.334 -87 -179.001s-126.667 -64 -206 -64s-148.166 21.333 -206.499 64
s-87.5 102.334 -87.5 179.001zM218 475l-0.000976562 -242c0 -24.667 11.333 -43.667 34 -57s49.667 -20 81 -20c30.667 0 57.334 6.83301 80.001 20.5s34 32.5 34 56.5v242c0 26 -11.5 45.833 -34.5 59.5s-50.5 20.5 -82.5 20.5c-30 0 -56.167 -7.16699 -78.5 -21.5
s-33.5 -33.833 -33.5 -58.5z" />
    <glyph glyph-name="omacron" unicode="&#x14d;" horiz-adv-x="665" 
d="M182 760v134h297v-134h-297zM39 233v242c0 76.667 28.833 136.334 86.5 179.001s126.5 64 206.5 64c79.333 0 148.166 -21.333 206.499 -64s87.5 -102.334 87.5 -179.001v-242c0 -76.667 -29 -136.334 -87 -179.001s-126.667 -64 -206 -64s-148.166 21.333 -206.499 64
s-87.5 102.334 -87.5 179.001zM218 475l-0.000976562 -242c0 -24.667 11.333 -43.667 34 -57s49.667 -20 81 -20c30.667 0 57.334 6.83301 80.001 20.5s34 32.5 34 56.5v242c0 26 -11.5 45.833 -34.5 59.5s-50.5 20.5 -82.5 20.5c-30 0 -56.167 -7.16699 -78.5 -21.5
s-33.5 -33.833 -33.5 -58.5z" />
    <glyph glyph-name="Ohungarumlaut" unicode="&#x150;" horiz-adv-x="665" 
d="M390 916l-111 -158h-141l75 158h177zM622 916l-117 -158h-140l74 158h183zM39 233v242c0 76.667 28.833 136.334 86.5 179.001s126.5 64 206.5 64c79.333 0 148.166 -21.333 206.499 -64s87.5 -102.334 87.5 -179.001v-242c0 -76.667 -29 -136.334 -87 -179.001
s-126.667 -64 -206 -64s-148.166 21.333 -206.499 64s-87.5 102.334 -87.5 179.001zM218 475l-0.000976562 -242c0 -24.667 11.333 -43.667 34 -57s49.667 -20 81 -20c30.667 0 57.334 6.83301 80.001 20.5s34 32.5 34 56.5v242c0 26 -11.5 45.833 -34.5 59.5
s-50.5 20.5 -82.5 20.5c-30 0 -56.167 -7.16699 -78.5 -21.5s-33.5 -33.833 -33.5 -58.5z" />
    <glyph glyph-name="ohungarumlaut" unicode="&#x151;" horiz-adv-x="665" 
d="M390 916l-111 -158h-141l75 158h177zM622 916l-117 -158h-140l74 158h183zM39 233v242c0 76.667 28.833 136.334 86.5 179.001s126.5 64 206.5 64c79.333 0 148.166 -21.333 206.499 -64s87.5 -102.334 87.5 -179.001v-242c0 -76.667 -29 -136.334 -87 -179.001
s-126.667 -64 -206 -64s-148.166 21.333 -206.499 64s-87.5 102.334 -87.5 179.001zM218 475l-0.000976562 -242c0 -24.667 11.333 -43.667 34 -57s49.667 -20 81 -20c30.667 0 57.334 6.83301 80.001 20.5s34 32.5 34 56.5v242c0 26 -11.5 45.833 -34.5 59.5
s-50.5 20.5 -82.5 20.5c-30 0 -56.167 -7.16699 -78.5 -21.5s-33.5 -33.833 -33.5 -58.5z" />
    <glyph glyph-name="OE" unicode="&#x152;" horiz-adv-x="812" 
d="M535 539v-105h212v-163h-212v-103h238v-168h-391v32c-35.333 -28 -76 -42 -122 -42c-70 0 -123.833 20.333 -161.5 61s-56.5 94.334 -56.5 161.001v278c0 67.333 20.833 122.166 62.5 164.499s91.5 63.5 149.5 63.5c46 0 88.667 -11.667 128 -35v25h391v-169h-238z
M382 171l-0.000976562 368.001c-29.333 24.667 -63.333 31.5 -102 20.5s-58 -34.5 -58 -70.5v-261c0 -28.667 8.33301 -49.834 25 -63.501s37 -20.5 61 -20.5c34.667 0 59.334 9 74.001 27z" />
    <glyph glyph-name="oe" unicode="&#x153;" horiz-adv-x="812" 
d="M535 539v-105h212v-163h-212v-103h238v-168h-391v32c-35.333 -28 -76 -42 -122 -42c-70 0 -123.833 20.333 -161.5 61s-56.5 94.334 -56.5 161.001v278c0 67.333 20.833 122.166 62.5 164.499s91.5 63.5 149.5 63.5c46 0 88.667 -11.667 128 -35v25h391v-169h-238z
M382 171l-0.000976562 368.001c-29.333 24.667 -63.333 31.5 -102 20.5s-58 -34.5 -58 -70.5v-261c0 -28.667 8.33301 -49.834 25 -63.501s37 -20.5 61 -20.5c34.667 0 59.334 9 74.001 27z" />
    <glyph glyph-name="Racute" unicode="&#x154;" horiz-adv-x="646" 
d="M490 922l-131 -166h-155l100 166h186zM433 0l-164 224.999h-32v-225h-181v708h283c78 0 140.833 -19 188.5 -57s72.5 -96.667 74.5 -176c0 -125.333 -46.333 -202.666 -139 -231.999l193 -243h-223zM237 378.999h105c35.333 0 60.333 13.5 75 40.5s14.667 54 0 81
s-39.667 40.5 -75 40.5h-105v-162z" />
    <glyph glyph-name="racute" unicode="&#x155;" horiz-adv-x="646" 
d="M490 922l-131 -166h-155l100 166h186zM433 0l-164 224.999h-32v-225h-181v708h283c78 0 140.833 -19 188.5 -57s72.5 -96.667 74.5 -176c0 -125.333 -46.333 -202.666 -139 -231.999l193 -243h-223zM237 378.999h105c35.333 0 60.333 13.5 75 40.5s14.667 54 0 81
s-39.667 40.5 -75 40.5h-105v-162z" />
    <glyph glyph-name="Rcommaaccent" unicode="&#x156;" horiz-adv-x="646" 
d="M433 0l-164 224.999h-32v-225h-181v708h283c78 0 140.833 -19 188.5 -57s72.5 -96.667 74.5 -176c0 -125.333 -46.333 -202.666 -139 -231.999l193 -243h-223zM237 378.999h105c35.333 0 60.333 13.5 75 40.5s14.667 54 0 81s-39.667 40.5 -75 40.5h-105v-162z
M443 -50.001l-75 -204h-163l61 204h177z" />
    <glyph glyph-name="rcommaaccent" unicode="&#x157;" horiz-adv-x="646" 
d="M433 0l-164 224.999h-32v-225h-181v708h283c78 0 140.833 -19 188.5 -57s72.5 -96.667 74.5 -176c0 -125.333 -46.333 -202.666 -139 -231.999l193 -243h-223zM237 378.999h105c35.333 0 60.333 13.5 75 40.5s14.667 54 0 81s-39.667 40.5 -75 40.5h-105v-162z
M443 -50.001l-75 -204h-163l61 204h177z" />
    <glyph glyph-name="Rcaron" unicode="&#x158;" horiz-adv-x="646" 
d="M98 924h168l41 -52l46 52h167l-150 -168h-122zM433 0l-164 224.999h-32v-225h-181v708h283c78 0 140.833 -19 188.5 -57s72.5 -96.667 74.5 -176c0 -125.333 -46.333 -202.666 -139 -231.999l193 -243h-223zM237 378.999h105c35.333 0 60.333 13.5 75 40.5
s14.667 54 0 81s-39.667 40.5 -75 40.5h-105v-162z" />
    <glyph glyph-name="rcaron" unicode="&#x159;" horiz-adv-x="646" 
d="M98 924h168l41 -52l46 52h167l-150 -168h-122zM433 0l-164 224.999h-32v-225h-181v708h283c78 0 140.833 -19 188.5 -57s72.5 -96.667 74.5 -176c0 -125.333 -46.333 -202.666 -139 -231.999l193 -243h-223zM237 378.999h105c35.333 0 60.333 13.5 75 40.5
s14.667 54 0 81s-39.667 40.5 -75 40.5h-105v-162z" />
    <glyph glyph-name="Sacute" unicode="&#x15a;" horiz-adv-x="564" 
d="M467 922l-131 -166h-155l100 166h186zM22 118l113.003 105.995c13.333 -16.667 30.166 -30.667 50.499 -42s40.5 -18.666 60.5 -21.999s39 -4.16602 57 -2.49902s33 7.16699 45 16.5s18.333 21.333 19 36c0.666992 18.667 -11 34 -35 46s-52.667 20.333 -86 25
c-62 10 -113.833 34.167 -155.5 72.5s-62.5 89.166 -62.5 152.499c0 66 25.167 117.833 75.5 155.5s110.5 56.5 180.5 56.5c99.333 0 180 -37.667 242 -113l-117 -90c-24 25.333 -52 42.5 -84 51.5s-59.833 8.33301 -83.5 -2s-35.834 -28.833 -36.501 -55.5
c2 -30.667 33.333 -52.667 94 -66c28.667 -5.33301 53.667 -11 75 -17s43.666 -15.167 66.999 -27.5s42.166 -26.666 56.499 -42.999s25.833 -37.666 34.5 -63.999s12.334 -56.166 11.001 -89.499c-2 -43.333 -17.5 -81.666 -46.5 -114.999s-64 -57.833 -105 -73.5
s-83.833 -23.5 -128.5 -23.5c-43.333 0 -86.333 11 -129 33s-80 53.667 -112 95z" />
    <glyph glyph-name="sacute" unicode="&#x15b;" horiz-adv-x="564" 
d="M467 922l-131 -166h-155l100 166h186zM22 118l113.003 105.995c13.333 -16.667 30.166 -30.667 50.499 -42s40.5 -18.666 60.5 -21.999s39 -4.16602 57 -2.49902s33 7.16699 45 16.5s18.333 21.333 19 36c0.666992 18.667 -11 34 -35 46s-52.667 20.333 -86 25
c-62 10 -113.833 34.167 -155.5 72.5s-62.5 89.166 -62.5 152.499c0 66 25.167 117.833 75.5 155.5s110.5 56.5 180.5 56.5c99.333 0 180 -37.667 242 -113l-117 -90c-24 25.333 -52 42.5 -84 51.5s-59.833 8.33301 -83.5 -2s-35.834 -28.833 -36.501 -55.5
c2 -30.667 33.333 -52.667 94 -66c28.667 -5.33301 53.667 -11 75 -17s43.666 -15.167 66.999 -27.5s42.166 -26.666 56.499 -42.999s25.833 -37.666 34.5 -63.999s12.334 -56.166 11.001 -89.499c-2 -43.333 -17.5 -81.666 -46.5 -114.999s-64 -57.833 -105 -73.5
s-83.833 -23.5 -128.5 -23.5c-43.333 0 -86.333 11 -129 33s-80 53.667 -112 95z" />
    <glyph glyph-name="Scedilla" unicode="&#x15e;" horiz-adv-x="564" 
d="M299 443c28.667 -5.33301 53.6719 -11 75.0049 -17s43.666 -15.167 66.999 -27.5s42.166 -26.666 56.499 -42.999s25.833 -37.666 34.5 -63.999s12.334 -56.166 11.001 -89.499c-2.66699 -50.667 -22.167 -93.5 -58.5 -128.5s-81.5 -59.167 -135.5 -72.5l-14 -32
c25.333 -6.66699 44.833 -18.834 58.5 -36.501s19.667 -36.834 18 -57.501s-7.5 -40.834 -17.5 -60.501s-26.167 -36 -48.5 -49s-47.5 -19.5 -75.5 -19.5c-56 0 -104.667 17 -146 51l32 86c15.333 -10.667 30.666 -18.834 45.999 -24.501s29.166 -7.5 41.499 -5.5
s20.166 9 23.499 21s-2.16699 23.167 -16.5 33.5s-34.166 16.5 -59.499 18.5l30 67c-78 13.333 -144.333 55 -199 125l113 106c13.333 -16.667 30.166 -30.667 50.499 -42s40.5 -18.666 60.5 -21.999s39 -4.16602 57 -2.49902s33 7.16699 45 16.5s18.333 21.333 19 36
c0.666992 18.667 -11 34 -35 46s-52.667 20.333 -86 25c-62 10 -113.833 34.167 -155.5 72.5s-62.5 89.166 -62.5 152.499c0 66 25.167 117.833 75.5 155.5s110.5 56.5 180.5 56.5c99.333 0 180 -37.667 242 -113l-117 -90c-24 25.333 -52 42.5 -84 51.5
s-59.833 8.33301 -83.5 -2s-35.834 -28.833 -36.501 -55.5c2 -30.667 33.333 -52.667 94 -66z" />
    <glyph glyph-name="scedilla" unicode="&#x15f;" horiz-adv-x="564" 
d="M299 443c28.667 -5.33301 53.6719 -11 75.0049 -17s43.666 -15.167 66.999 -27.5s42.166 -26.666 56.499 -42.999s25.833 -37.666 34.5 -63.999s12.334 -56.166 11.001 -89.499c-2.66699 -50.667 -22.167 -93.5 -58.5 -128.5s-81.5 -59.167 -135.5 -72.5l-14 -32
c25.333 -6.66699 44.833 -18.834 58.5 -36.501s19.667 -36.834 18 -57.501s-7.5 -40.834 -17.5 -60.501s-26.167 -36 -48.5 -49s-47.5 -19.5 -75.5 -19.5c-56 0 -104.667 17 -146 51l32 86c15.333 -10.667 30.666 -18.834 45.999 -24.501s29.166 -7.5 41.499 -5.5
s20.166 9 23.499 21s-2.16699 23.167 -16.5 33.5s-34.166 16.5 -59.499 18.5l30 67c-78 13.333 -144.333 55 -199 125l113 106c13.333 -16.667 30.166 -30.667 50.499 -42s40.5 -18.666 60.5 -21.999s39 -4.16602 57 -2.49902s33 7.16699 45 16.5s18.333 21.333 19 36
c0.666992 18.667 -11 34 -35 46s-52.667 20.333 -86 25c-62 10 -113.833 34.167 -155.5 72.5s-62.5 89.166 -62.5 152.499c0 66 25.167 117.833 75.5 155.5s110.5 56.5 180.5 56.5c99.333 0 180 -37.667 242 -113l-117 -90c-24 25.333 -52 42.5 -84 51.5
s-59.833 8.33301 -83.5 -2s-35.834 -28.833 -36.501 -55.5c2 -30.667 33.333 -52.667 94 -66z" />
    <glyph glyph-name="Scaron" unicode="&#x160;" horiz-adv-x="564" 
d="M75 924h168l41 -52l46 52h167l-150 -168h-122zM22 118l113.003 105.995c13.333 -16.667 30.166 -30.667 50.499 -42s40.5 -18.666 60.5 -21.999s39 -4.16602 57 -2.49902s33 7.16699 45 16.5s18.333 21.333 19 36c0.666992 18.667 -11 34 -35 46s-52.667 20.333 -86 25
c-62 10 -113.833 34.167 -155.5 72.5s-62.5 89.166 -62.5 152.499c0 66 25.167 117.833 75.5 155.5s110.5 56.5 180.5 56.5c99.333 0 180 -37.667 242 -113l-117 -90c-24 25.333 -52 42.5 -84 51.5s-59.833 8.33301 -83.5 -2s-35.834 -28.833 -36.501 -55.5
c2 -30.667 33.333 -52.667 94 -66c28.667 -5.33301 53.667 -11 75 -17s43.666 -15.167 66.999 -27.5s42.166 -26.666 56.499 -42.999s25.833 -37.666 34.5 -63.999s12.334 -56.166 11.001 -89.499c-2 -43.333 -17.5 -81.666 -46.5 -114.999s-64 -57.833 -105 -73.5
s-83.833 -23.5 -128.5 -23.5c-43.333 0 -86.333 11 -129 33s-80 53.667 -112 95z" />
    <glyph glyph-name="scaron" unicode="&#x161;" horiz-adv-x="564" 
d="M75 924h168l41 -52l46 52h167l-150 -168h-122zM22 118l113.003 105.995c13.333 -16.667 30.166 -30.667 50.499 -42s40.5 -18.666 60.5 -21.999s39 -4.16602 57 -2.49902s33 7.16699 45 16.5s18.333 21.333 19 36c0.666992 18.667 -11 34 -35 46s-52.667 20.333 -86 25
c-62 10 -113.833 34.167 -155.5 72.5s-62.5 89.166 -62.5 152.499c0 66 25.167 117.833 75.5 155.5s110.5 56.5 180.5 56.5c99.333 0 180 -37.667 242 -113l-117 -90c-24 25.333 -52 42.5 -84 51.5s-59.833 8.33301 -83.5 -2s-35.834 -28.833 -36.501 -55.5
c2 -30.667 33.333 -52.667 94 -66c28.667 -5.33301 53.667 -11 75 -17s43.666 -15.167 66.999 -27.5s42.166 -26.666 56.499 -42.999s25.833 -37.666 34.5 -63.999s12.334 -56.166 11.001 -89.499c-2 -43.333 -17.5 -81.666 -46.5 -114.999s-64 -57.833 -105 -73.5
s-83.833 -23.5 -128.5 -23.5c-43.333 0 -86.333 11 -129 33s-80 53.667 -112 95z" />
    <glyph glyph-name="Tcommaaccent" unicode="&#x162;" horiz-adv-x="585" 
d="M571 539h-188v-539h-181v539h-188v170h557v-170zM406 -50l-75 -204h-163l61 204h177z" />
    <glyph glyph-name="tcommaaccent" unicode="&#x163;" horiz-adv-x="585" 
d="M571 539h-188v-539h-181v539h-188v170h557v-170zM406 -50l-75 -204h-163l61 204h177z" />
    <glyph glyph-name="Tcaron" unicode="&#x164;" horiz-adv-x="585" 
d="M79 924h168l41 -52l46 52h167l-150 -168h-122zM571 539h-188v-539h-181v539h-188v170h557v-170z" />
    <glyph glyph-name="tcaron" unicode="&#x165;" horiz-adv-x="585" 
d="M79 924h168l41 -52l46 52h167l-150 -168h-122zM571 539h-188v-539h-181v539h-188v170h557v-170z" />
    <glyph glyph-name="Tbar" unicode="&#x166;" horiz-adv-x="589" 
d="M385 345h76v-134h-76v-211h-181v211h-80v134h80v194h-188v170h557v-170h-188v-194z" />
    <glyph glyph-name="tbar" unicode="&#x167;" horiz-adv-x="589" 
d="M385 345h76v-134h-76v-211h-181v211h-80v134h80v194h-188v170h557v-170h-188v-194z" />
    <glyph glyph-name="Umacron" unicode="&#x16a;" horiz-adv-x="667" 
d="M185 758v134h297v-134h-297zM233 708v-471c0 -21.333 7 -39.5 21 -54.5s30.833 -24.167 50.5 -27.5s39.5 -3.33301 59.5 0s37 12.5 51 27.5s21 33.167 21 54.5v471h181v-471c0 -36 -6.5 -68.833 -19.5 -98.5s-30.5 -54.167 -52.5 -73.5s-47.167 -35.833 -75.5 -49.5
s-58 -21.834 -89 -24.501s-62.167 -2.66699 -93.5 0s-61.166 10.834 -89.499 24.501s-53.333 30.167 -75 49.5s-38.834 43.833 -51.501 73.5s-19 62.5 -19 98.5v471h181z" />
    <glyph glyph-name="umacron" unicode="&#x16b;" horiz-adv-x="667" 
d="M185 758v134h297v-134h-297zM233 708v-471c0 -21.333 7 -39.5 21 -54.5s30.833 -24.167 50.5 -27.5s39.5 -3.33301 59.5 0s37 12.5 51 27.5s21 33.167 21 54.5v471h181v-471c0 -36 -6.5 -68.833 -19.5 -98.5s-30.5 -54.167 -52.5 -73.5s-47.167 -35.833 -75.5 -49.5
s-58 -21.834 -89 -24.501s-62.167 -2.66699 -93.5 0s-61.166 10.834 -89.499 24.501s-53.333 30.167 -75 49.5s-38.834 43.833 -51.501 73.5s-19 62.5 -19 98.5v471h181z" />
    <glyph glyph-name="Uring" unicode="&#x16e;" horiz-adv-x="667" 
d="M203 851c0 33.333 13 61.502 39 84.502s57.333 34.5 94 34.5c36 0 66.667 -12 92 -36s38 -51.667 38 -83c0 -32.667 -12.833 -60.334 -38.5 -83.001s-56.167 -34 -91.5 -34c-36.667 0 -68 11.167 -94 33.5s-39 50.166 -39 83.499zM372 850.002
c0 10 -3.50098 18.667 -10.501 26s-15.5 11 -25.5 11c-11.333 0 -20.5 -3.66699 -27.5 -11s-10.5 -16 -10.5 -26c0 -8 3.5 -15.5 10.5 -22.5s16.167 -10.5 27.5 -10.5c10.667 0 19.334 3 26.001 9s10 14 10 24zM232.999 708.002v-471c0 -21.333 7 -39.5 21 -54.5
s30.833 -24.167 50.5 -27.5s39.5 -3.33301 59.5 0s37 12.5 51 27.5s21 33.167 21 54.5v471h181v-471c0 -36 -6.5 -68.833 -19.5 -98.5s-30.5 -54.167 -52.5 -73.5s-47.167 -35.833 -75.5 -49.5s-58 -21.834 -89 -24.501s-62.167 -2.66699 -93.5 0
s-61.166 10.834 -89.499 24.501s-53.333 30.167 -75 49.5s-38.834 43.833 -51.501 73.5s-19 62.5 -19 98.5v471h181z" />
    <glyph glyph-name="uring" unicode="&#x16f;" horiz-adv-x="667" 
d="M203 851c0 33.333 13 61.502 39 84.502s57.333 34.5 94 34.5c36 0 66.667 -12 92 -36s38 -51.667 38 -83c0 -32.667 -12.833 -60.334 -38.5 -83.001s-56.167 -34 -91.5 -34c-36.667 0 -68 11.167 -94 33.5s-39 50.166 -39 83.499zM372 850.002
c0 10 -3.50098 18.667 -10.501 26s-15.5 11 -25.5 11c-11.333 0 -20.5 -3.66699 -27.5 -11s-10.5 -16 -10.5 -26c0 -8 3.5 -15.5 10.5 -22.5s16.167 -10.5 27.5 -10.5c10.667 0 19.334 3 26.001 9s10 14 10 24zM232.999 708.002v-471c0 -21.333 7 -39.5 21 -54.5
s30.833 -24.167 50.5 -27.5s39.5 -3.33301 59.5 0s37 12.5 51 27.5s21 33.167 21 54.5v471h181v-471c0 -36 -6.5 -68.833 -19.5 -98.5s-30.5 -54.167 -52.5 -73.5s-47.167 -35.833 -75.5 -49.5s-58 -21.834 -89 -24.501s-62.167 -2.66699 -93.5 0
s-61.166 10.834 -89.499 24.501s-53.333 30.167 -75 49.5s-38.834 43.833 -51.501 73.5s-19 62.5 -19 98.5v471h181z" />
    <glyph glyph-name="Uhungarumlaut" unicode="&#x170;" horiz-adv-x="667" 
d="M393 914l-111 -158h-141l75 158h177zM625 914l-117 -158h-140l74 158h183zM233 708v-471c0 -21.333 7 -39.5 21 -54.5s30.833 -24.167 50.5 -27.5s39.5 -3.33301 59.5 0s37 12.5 51 27.5s21 33.167 21 54.5v471h181v-471c0 -36 -6.5 -68.833 -19.5 -98.5
s-30.5 -54.167 -52.5 -73.5s-47.167 -35.833 -75.5 -49.5s-58 -21.834 -89 -24.501s-62.167 -2.66699 -93.5 0s-61.166 10.834 -89.499 24.501s-53.333 30.167 -75 49.5s-38.834 43.833 -51.501 73.5s-19 62.5 -19 98.5v471h181z" />
    <glyph glyph-name="uhungarumlaut" unicode="&#x171;" horiz-adv-x="667" 
d="M393 914l-111 -158h-141l75 158h177zM625 914l-117 -158h-140l74 158h183zM233 708v-471c0 -21.333 7 -39.5 21 -54.5s30.833 -24.167 50.5 -27.5s39.5 -3.33301 59.5 0s37 12.5 51 27.5s21 33.167 21 54.5v471h181v-471c0 -36 -6.5 -68.833 -19.5 -98.5
s-30.5 -54.167 -52.5 -73.5s-47.167 -35.833 -75.5 -49.5s-58 -21.834 -89 -24.501s-62.167 -2.66699 -93.5 0s-61.166 10.834 -89.499 24.501s-53.333 30.167 -75 49.5s-38.834 43.833 -51.501 73.5s-19 62.5 -19 98.5v471h181z" />
    <glyph glyph-name="Uogonek" unicode="&#x172;" horiz-adv-x="667" 
d="M616 708v-471.002c0 -48.667 -11.5 -91 -34.5 -127s-54.167 -64.333 -93.5 -85c-34.667 -25.333 -53.667 -55.666 -57 -90.999c-2 -25.333 5 -40 21 -44c2.66699 -0.666992 5.33398 -1 8.00098 -1c12 0 25.333 4.66699 40 14l28 -107c-32.667 -26.667 -71 -40 -115 -40
c-66.667 0 -108.334 23.333 -125.001 70s-2 100.667 44 162c-76 0 -141.833 21.833 -197.5 65.5s-83.5 104.834 -83.5 183.501v471h181v-471c0 -21.333 7 -39.5 21 -54.5s30.833 -24.167 50.5 -27.5s39.5 -3.33301 59.5 0s37 12.5 51 27.5s21 33.167 21 54.5v471h181z" />
    <glyph glyph-name="uogonek" unicode="&#x173;" horiz-adv-x="667" 
d="M616 708v-471.002c0 -48.667 -11.5 -91 -34.5 -127s-54.167 -64.333 -93.5 -85c-34.667 -25.333 -53.667 -55.666 -57 -90.999c-2 -25.333 5 -40 21 -44c2.66699 -0.666992 5.33398 -1 8.00098 -1c12 0 25.333 4.66699 40 14l28 -107c-32.667 -26.667 -71 -40 -115 -40
c-66.667 0 -108.334 23.333 -125.001 70s-2 100.667 44 162c-76 0 -141.833 21.833 -197.5 65.5s-83.5 104.834 -83.5 183.501v471h181v-471c0 -21.333 7 -39.5 21 -54.5s30.833 -24.167 50.5 -27.5s39.5 -3.33301 59.5 0s37 12.5 51 27.5s21 33.167 21 54.5v471h181z" />
    <glyph glyph-name="Wcircumflex" unicode="&#x174;" horiz-adv-x="915" 
d="M519 924l150 -168h-162l-46 52l-44 -52h-169l154 168h117zM644 367l86 341h185l-204 -708h-166l-63 196l-25 162h-3l-27 -161l-56 -197h-166l-205 708h186l84 -339l18 -150h5l17 149l79 248h136l73 -249l23 -148h3z" />
    <glyph glyph-name="wcircumflex" unicode="&#x175;" horiz-adv-x="915" 
d="M519 924l150 -168h-162l-46 52l-44 -52h-169l154 168h117zM644 367l86 341h185l-204 -708h-166l-63 196l-25 162h-3l-27 -161l-56 -197h-166l-205 708h186l84 -339l18 -150h5l17 149l79 248h136l73 -249l23 -148h3z" />
    <glyph glyph-name="Ycircumflex" unicode="&#x176;" horiz-adv-x="655" 
d="M382 924l150 -168h-162l-46 52l-44 -52h-169l154 168h117zM417 0h-179v279l-247 429h208l128 -260l128 260h210l-248 -429v-279z" />
    <glyph glyph-name="ycircumflex" unicode="&#x177;" horiz-adv-x="655" 
d="M382 924l150 -168h-162l-46 52l-44 -52h-169l154 168h117zM417 0h-179v279l-247 429h208l128 -260l128 260h210l-248 -429v-279z" />
    <glyph glyph-name="Ydieresis" unicode="&#x178;" horiz-adv-x="655" 
d="M119 834c0 24 8.16699 44.167 24.5 60.5s36.166 24.5 59.499 24.5s43.166 -8.16699 59.499 -24.5s24.5 -36.5 24.5 -60.5c0 -23.333 -8.16699 -43 -24.5 -59s-36.166 -24 -59.499 -24s-43.166 8 -59.499 24s-24.5 35.667 -24.5 59zM360 834c0 24 8 44.167 24 60.5
s36 24.5 60 24.5s44.167 -8.16699 60.5 -24.5s24.5 -36.5 24.5 -60.5c0 -23.333 -8.16699 -43 -24.5 -59s-36.5 -24 -60.5 -24s-44 8 -60 24s-24 35.667 -24 59zM417 0h-179v279l-247 429h208l128 -260l128 260h210l-248 -429v-279z" />
    <glyph glyph-name="Zacute" unicode="&#x179;" horiz-adv-x="605" 
d="M494 922l-131 -166h-155l100 166h186zM36 708h515l38 -60l-305 -485l288 2v-165h-525l-33 66l306 476h-284v166z" />
    <glyph glyph-name="zacute" unicode="&#x17a;" horiz-adv-x="605" 
d="M494 922l-131 -166h-155l100 166h186zM36 708h515l38 -60l-305 -485l288 2v-165h-525l-33 66l306 476h-284v166z" />
    <glyph glyph-name="Zdotaccent" unicode="&#x17b;" horiz-adv-x="605" 
d="M212 851c0 27.333 9.5 50.333 28.5 69s42.5 28 70.5 28s51.167 -9.33301 69.5 -28s27.5 -41.667 27.5 -69c0 -28 -9.16699 -51.333 -27.5 -70s-41.5 -28 -69.5 -28s-51.5 9.5 -70.5 28.5s-28.5 42.167 -28.5 69.5zM36 708h515l38 -60l-305 -485l288 2v-165h-525l-33 66
l306 476h-284v166z" />
    <glyph glyph-name="zdotaccent" unicode="&#x17c;" horiz-adv-x="605" 
d="M212 851c0 27.333 9.5 50.333 28.5 69s42.5 28 70.5 28s51.167 -9.33301 69.5 -28s27.5 -41.667 27.5 -69c0 -28 -9.16699 -51.333 -27.5 -70s-41.5 -28 -69.5 -28s-51.5 9.5 -70.5 28.5s-28.5 42.167 -28.5 69.5zM36 708h515l38 -60l-305 -485l288 2v-165h-525l-33 66
l306 476h-284v166z" />
    <glyph glyph-name="Zcaron" unicode="&#x17d;" horiz-adv-x="605" 
d="M102 924h168l41 -52l46 52h167l-150 -168h-122zM36 708h515l38 -60l-305 -485l288 2v-165h-525l-33 66l306 476h-284v166z" />
    <glyph glyph-name="zcaron" unicode="&#x17e;" horiz-adv-x="605" 
d="M102 924h168l41 -52l46 52h167l-150 -168h-122zM36 708h515l38 -60l-305 -485l288 2v-165h-525l-33 66l306 476h-284v166z" />
    <glyph glyph-name="florin" unicode="&#x192;" horiz-adv-x="510" 
d="M11 -83l40.998 122.999c36.667 -18 58.334 -8.33301 65.001 29l45 235h-71v146h98l21 96c7.33301 46.667 26.5 85.667 57.5 117s66.667 48.333 107 51s82.5 -12 126.5 -44l-56 -108c-35.333 14.667 -56.666 3.33398 -63.999 -33.999l-18 -78h70v-146h-96l-49 -269
c-12.667 -67.333 -47 -112.333 -103 -135s-114 -17 -174 17z" />
    <glyph glyph-name="Scommaaccent" unicode="&#x218;" horiz-adv-x="564" 
d="M22 118l113.003 105.995c13.333 -16.667 30.166 -30.667 50.499 -42s40.5 -18.666 60.5 -21.999s39 -4.16602 57 -2.49902s33 7.16699 45 16.5s18.333 21.333 19 36c0.666992 18.667 -11 34 -35 46s-52.667 20.333 -86 25c-62 10 -113.833 34.167 -155.5 72.5
s-62.5 89.166 -62.5 152.499c0 66 25.167 117.833 75.5 155.5s110.5 56.5 180.5 56.5c99.333 0 180 -37.667 242 -113l-117 -90c-24 25.333 -52 42.5 -84 51.5s-59.833 8.33301 -83.5 -2s-35.834 -28.833 -36.501 -55.5c2 -30.667 33.333 -52.667 94 -66
c28.667 -5.33301 53.667 -11 75 -17s43.666 -15.167 66.999 -27.5s42.166 -26.666 56.499 -42.999s25.833 -37.666 34.5 -63.999s12.334 -56.166 11.001 -89.499c-2 -43.333 -17.5 -81.666 -46.5 -114.999s-64 -57.833 -105 -73.5s-83.833 -23.5 -128.5 -23.5
c-43.333 0 -86.333 11 -129 33s-80 53.667 -112 95zM380.003 -50.0049l-75 -204h-163l61 204h177z" />
    <glyph glyph-name="scommaaccent" unicode="&#x219;" horiz-adv-x="564" 
d="M22 118l113.003 105.995c13.333 -16.667 30.166 -30.667 50.499 -42s40.5 -18.666 60.5 -21.999s39 -4.16602 57 -2.49902s33 7.16699 45 16.5s18.333 21.333 19 36c0.666992 18.667 -11 34 -35 46s-52.667 20.333 -86 25c-62 10 -113.833 34.167 -155.5 72.5
s-62.5 89.166 -62.5 152.499c0 66 25.167 117.833 75.5 155.5s110.5 56.5 180.5 56.5c99.333 0 180 -37.667 242 -113l-117 -90c-24 25.333 -52 42.5 -84 51.5s-59.833 8.33301 -83.5 -2s-35.834 -28.833 -36.501 -55.5c2 -30.667 33.333 -52.667 94 -66
c28.667 -5.33301 53.667 -11 75 -17s43.666 -15.167 66.999 -27.5s42.166 -26.666 56.499 -42.999s25.833 -37.666 34.5 -63.999s12.334 -56.166 11.001 -89.499c-2 -43.333 -17.5 -81.666 -46.5 -114.999s-64 -57.833 -105 -73.5s-83.833 -23.5 -128.5 -23.5
c-43.333 0 -86.333 11 -129 33s-80 53.667 -112 95zM380.003 -50.0049l-75 -204h-163l61 204h177z" />
    <glyph glyph-name="uni021A" unicode="&#x21a;" horiz-adv-x="585" 
d="M571 539h-188v-539h-181v539h-188v170h557v-170zM406 -50l-75 -204h-163l61 204h177z" />
    <glyph glyph-name="uni021B" unicode="&#x21b;" horiz-adv-x="585" 
d="M571 539h-188v-539h-181v539h-188v170h557v-170zM406 -50l-75 -204h-163l61 204h177z" />
    <glyph glyph-name="circumflex" unicode="&#x2c6;" horiz-adv-x="501" 
d="M311 924l150 -168h-162l-46 52l-44 -52h-169l154 168h117z" />
    <glyph glyph-name="caron" unicode="&#x2c7;" horiz-adv-x="441" 
d="M14 924h168l41 -52l46 52h167l-150 -168h-122z" />
    <glyph glyph-name="uni02C9" unicode="&#x2c9;" horiz-adv-x="330" 
d="M50 758v134h297v-134h-297z" />
    <glyph glyph-name="breve" unicode="&#x2d8;" horiz-adv-x="450" 
d="M265 922h135c0 -36.667 -8.66699 -68.667 -26 -96s-39 -47 -65 -59s-54 -18 -84 -18s-58 6 -84 18s-47.667 31.667 -65 59s-26 59.333 -26 96h137c0 -16 6.5 -27.333 19.5 -34s26 -6.66699 39 0s19.5 18 19.5 34z" />
    <glyph glyph-name="dotaccent" unicode="&#x2d9;" horiz-adv-x="296" 
d="M50 851c0 27.333 9.5 50.333 28.5 69s42.5 28 70.5 28s51.167 -9.33301 69.5 -28s27.5 -41.667 27.5 -69c0 -28 -9.16699 -51.333 -27.5 -70s-41.5 -28 -69.5 -28s-51.5 9.5 -70.5 28.5s-28.5 42.167 -28.5 69.5z" />
    <glyph glyph-name="ring" unicode="&#x2da;" horiz-adv-x="359" 
d="M48 871c0 35.333 13 65.167 39 89.5s57.333 36.5 94 36.5c36 0 66.667 -12.833 92 -38.5s38 -55.167 38 -88.5c0 -34 -12.833 -63.167 -38.5 -87.5s-56.167 -36.5 -91.5 -36.5c-36.667 0 -68 12 -94 36s-39 53.667 -39 89zM217 869.001c0 10.667 -3.5 20 -10.5 28
s-15.5 12 -25.5 12c-11.333 0 -20.5 -3.83301 -27.5 -11.5s-10.5 -17.167 -10.5 -28.5c0 -8.66699 3.5 -16.667 10.5 -24s16.167 -11 27.5 -11c10 0 18.5 3.16699 25.5 9.5s10.5 14.833 10.5 25.5z" />
    <glyph glyph-name="ogonek" unicode="&#x2db;" horiz-adv-x="380" 
d="M276 11l5 -11.001c-35.333 -34.667 -51.333 -64.334 -48 -89.001c2 -15.333 11.667 -22.666 29 -21.999c12 0 25.333 4.66699 40 14l28 -107c-32.667 -26.667 -71 -40 -115 -40c-46 0 -80.5 12 -103.5 36s-31 55.833 -24 95.5s29.5 80.834 67.5 123.501h121z" />
    <glyph glyph-name="tilde" unicode="&#x2dc;" horiz-adv-x="465" 
d="M137 745l-86.9971 48.998c15.333 80.667 57.666 120 126.999 118c12 0 26.333 -3.66699 43 -11s30.5 -14 41.5 -20s22.333 -7.33301 34 -4s21.167 13.666 28.5 30.999l91 -52c-9.33301 -37.333 -22.833 -65.666 -40.5 -84.999s-38.834 -28.666 -63.501 -27.999
c-16.667 0 -34.834 3.66699 -54.501 11s-35.667 13.833 -48 19.5s-25 6.83398 -38 3.50098s-24.167 -14 -33.5 -32z" />
    <glyph glyph-name="hungarumlaut" unicode="&#x2dd;" horiz-adv-x="534" 
d="M302 914l-111 -158h-141l75 158h177zM534 914l-117 -158h-140l74 158h183z" />
    <glyph glyph-name="uni0326" unicode="&#x326;" horiz-adv-x="0" 
d="M401 -50l-75 -204h-163l61 204h177z" />
    <glyph glyph-name="uni03A9" unicode="&#x3a9;" horiz-adv-x="776" 
d="M40 176l65 -0.00195312c-40 52 -60 118 -60 198c0 72 16.833 134 50.5 186s75.667 90 126 114s105.166 36 164.499 36s114.833 -12.167 166.5 -36.5s94.667 -62.333 129 -114s51.5 -112.167 51.5 -181.5c0 -81.333 -21 -148.666 -63 -201.999h64v-176h-333v141
c107.333 34 161 107.667 161 221c0 49.333 -15.167 91 -45.5 125s-73.833 51 -130.5 51c-53.333 0 -95.166 -18 -125.499 -54s-45.5 -79.333 -45.5 -130c0 -48 13.333 -91.667 40 -131s65.667 -66.666 117 -81.999v-141h-332v176z" />
    <glyph glyph-name="uni03BC" unicode="&#x3bc;" horiz-adv-x="530" 
d="M337 -1l-6 38.001c-17.333 -25.333 -36.833 -37.833 -58.5 -37.5s-39.5 11.833 -53.5 34.5v-206h-171v688h171v-310c0 -20.667 7.5 -35.5 22.5 -44.5s30 -9.33301 45 -1s22.5 23.166 22.5 44.499v311h172l2 -518z" />
    <glyph glyph-name="pi" unicode="&#x3c0;" horiz-adv-x="575" 
d="M531 130l1.00098 -135c-141.333 -14 -212 44 -212 174v199h-51v-368h-168v353l-63 -14l-33 126l19 17c43.333 28 87.666 42 132.999 42h389l-16 -156h-40v-196c0 -28.667 13.667 -42.667 41 -42z" />
    <glyph glyph-name="uni0401" unicode="&#x401;" 
d="M104 834c0 24 8.16699 44.167 24.5 60.5s36.166 24.5 59.499 24.5s43.166 -8.16699 59.499 -24.5s24.5 -36.5 24.5 -60.5c0 -23.333 -8.16699 -43 -24.5 -59s-36.166 -24 -59.499 -24s-43.166 8 -59.499 24s-24.5 35.667 -24.5 59zM345 834c0 24 8 44.167 24 60.5
s36 24.5 60 24.5s44.167 -8.16699 60.5 -24.5s24.5 -36.5 24.5 -60.5c0 -23.333 -8.16699 -43 -24.5 -59s-36.5 -24 -60.5 -24s-44 8 -60 24s-24 35.667 -24 59zM237 540v-110h287v-155h-287v-106h312v-169h-493v708h493v-168h-312z" />
    <glyph glyph-name="uni0410" unicode="&#x410;" horiz-adv-x="648" 
d="M404 708l253 -708h-192l-46 142h-189l-44 -142h-192l247 708h163zM270 301h106l-49 207h-5z" />
    <glyph glyph-name="uni0411" unicode="&#x411;" horiz-adv-x="616" 
d="M598 231c0 -70.667 -22.668 -126.833 -68.001 -168.5s-107 -62.5 -185 -62.5h-289v708h484v-150h-304v-110h104c94.667 0 161.334 -17.667 200.001 -53s58 -90 58 -164zM235.999 157.001h104c54 0 81 27.667 81 83c0 52 -27.333 78 -82 78h-103v-161z" />
    <glyph glyph-name="uni0412" unicode="&#x412;" horiz-adv-x="626" 
d="M570 492c-0.666992 -19.333 -7.16797 -40.333 -19.501 -63s-30.166 -40 -53.499 -52c43.333 -22 72.333 -51.333 87 -88s19 -72 13 -106c-19.333 -122 -103.333 -183 -252 -183h-289v708h284c69.333 0 125.5 -19.5 168.5 -58.5s63.5 -91.5 61.5 -157.5zM235.999 431
h103.999c27.333 0 46.833 10.5 58.5 31.5s11.834 42 0.500977 63s-31 31.5 -59 31.5h-104v-126zM235.998 157h104c34 0 57.833 12.167 71.5 36.5s13.5 48.5 -0.5 72.5s-37.667 36 -71 36h-104v-145z" />
    <glyph glyph-name="uni0413" unicode="&#x413;" horiz-adv-x="511" 
d="M56 708h441v-170h-261v-538h-180v708z" />
    <glyph glyph-name="uni0414" unicode="&#x414;" horiz-adv-x="746" 
d="M201 -142h-183v303c15.333 0 29.166 1.5 41.499 4.5s23 8.5 32 16.5s16.833 15.5 23.5 22.5s12.334 18 17.001 33l11.5 37c3 9.66699 5.5 24.667 7.5 45l4.5 46.5c1 10.667 2.16699 28.167 3.5 52.5s2.33301 41.833 3 52.5l17 237h462v-547h86v-303h-180v142h-346v-142z
M461 161v377h-120l-15 -215c-4 -65.333 -14 -119.333 -30 -162h165z" />
    <glyph glyph-name="uni0415" unicode="&#x415;" 
d="M237 540v-110h287v-155h-287v-106h312v-169h-493v708h493v-168h-312z" />
    <glyph glyph-name="uni0416" unicode="&#x416;" horiz-adv-x="948" 
d="M384 0v260l-6 8l-163 -268h-223l252 360l-253 348h216l177 -265v265h180v-265l177 265h216l-253 -348l252 -360h-223l-163 268l-6 -8v-260h-180z" />
    <glyph glyph-name="uni0417" unicode="&#x417;" horiz-adv-x="569" 
d="M440 377c67.333 -34 101 -88.999 101 -164.999c0 -70 -25 -124.5 -75 -163.5s-119.667 -58.5 -209 -58.5c-54.667 0 -104.834 12.333 -150.501 37s-81.834 58.667 -108.501 102l114 89c42 -47.333 87 -71 135 -71c76 0 114 25.333 114 76
c0 25.333 -8.16699 45.166 -24.5 59.499s-38.833 21.5 -67.5 21.5h-105v123h101c26.667 0 47.5 6.5 62.5 19.5s22.5 31.167 22.5 54.5c0 20.667 -7.66699 37 -23 49s-37.666 18 -66.999 18c-40.667 0 -83.667 -16.667 -129 -50l-94 92c58.667 72 137.334 108 236.001 108
c78 0 138.167 -18 180.5 -54s63.5 -86.333 63.5 -151c0 -25.333 -6.83301 -51.333 -20.5 -78s-32.5 -46 -56.5 -58z" />
    <glyph glyph-name="uni0418" unicode="&#x418;" horiz-adv-x="685" 
d="M449 0v283l18 133l-5 1l-67 -138l-170 -279h-169v708h180v-321l-15 -106l4 -1l59 127l181 301h164v-708h-180z" />
    <glyph glyph-name="uni0419" unicode="&#x419;" horiz-adv-x="685" 
d="M338 766c-50 0 -92.667 15.333 -128 46s-53 73.334 -53 128.001h139c0 -12 4 -21.833 12 -29.5s18 -11.5 30 -11.5s22 3.83301 30 11.5s12 17.5 12 29.5h139c0 -54.667 -17.667 -97.334 -53 -128.001s-78 -46 -128 -46zM449 0v283l18 133l-5 1l-67 -138l-170 -279h-169
v708h180v-321l-15 -106l4 -1l59 127l181 301h164v-708h-180z" />
    <glyph glyph-name="uni041A" unicode="&#x41a;" horiz-adv-x="640" 
d="M236 446l192 262h223l-280 -348l279 -360h-225l-183 253l-6 -8v-245h-180v708h180v-262z" />
    <glyph glyph-name="uni041B" unicode="&#x41b;" horiz-adv-x="709" 
d="M342 538l-11.9971 -214.999c-2 -34.667 -6.5 -67.667 -13.5 -99s-18.333 -62 -34 -92s-34.834 -55.333 -57.501 -76s-51.834 -36.334 -87.501 -47.001s-75.834 -13.667 -120.501 -9v167c16 -0.666992 30.333 0.333008 43 3s23.667 7.5 33 14.5s17.5 14.333 24.5 22
s12.667 18.5 17 32.5s8 26.5 11 37.5s5.5 26 7.5 45s3.33301 34.5 4 46.5l3 51.5l3 51.5l17 237h473v-708h-180v538h-131z" />
    <glyph glyph-name="uni041C" unicode="&#x41c;" horiz-adv-x="769" 
d="M56 0v708h179l149 -346l150 346h179v-708h-180l1 204l11 143l-6 1l-93 -243h-123l-95 243l-5 -1l12 -143v-204h-179z" />
    <glyph glyph-name="uni041D" unicode="&#x41d;" horiz-adv-x="676" 
d="M236 267v-267h-180v708h180v-268h204v268h180v-708h-180v267h-204z" />
    <glyph glyph-name="uni041E" unicode="&#x41e;" horiz-adv-x="665" 
d="M39 233v242c0 76.667 28.833 136.334 86.5 179.001s126.5 64 206.5 64c79.333 0 148.166 -21.333 206.499 -64s87.5 -102.334 87.5 -179.001v-242c0 -76.667 -29 -136.334 -87 -179.001s-126.667 -64 -206 -64s-148.166 21.333 -206.499 64s-87.5 102.334 -87.5 179.001z
M218 475l-0.000976562 -242c0 -24.667 11.333 -43.667 34 -57s49.667 -20 81 -20c30.667 0 57.334 6.83301 80.001 20.5s34 32.5 34 56.5v242c0 26 -11.5 45.833 -34.5 59.5s-50.5 20.5 -82.5 20.5c-30 0 -56.167 -7.16699 -78.5 -21.5s-33.5 -33.833 -33.5 -58.5z" />
    <glyph glyph-name="uni041F" unicode="&#x41f;" horiz-adv-x="671" 
d="M236 538v-538h-180v708h559v-708h-180v538h-199z" />
    <glyph glyph-name="uni0420" unicode="&#x420;" horiz-adv-x="618" 
d="M56 0l0.000976562 708h283c81.333 0 144.833 -24.667 190.5 -74s68.5 -108 68.5 -176s-22.833 -126.833 -68.5 -176.5s-108.834 -74.5 -189.501 -74.5h-105v-207h-179zM235.001 366h104c20.667 0 38 6 52 18s22.667 26.667 26 44s3.33301 34.5 0 51.5s-12 31.5 -26 43.5
s-31.333 18 -52 18h-104v-175z" />
    <glyph glyph-name="uni0421" unicode="&#x421;" horiz-adv-x="582" 
d="M417 221l156.001 -72.001c-18.667 -36.667 -42.834 -67.334 -72.501 -92.001s-59.667 -42 -90 -52s-61.166 -15 -92.499 -15c-75.333 0 -140.666 21.333 -195.999 64s-83 102 -83 178v244c0 51.333 13.833 95.666 41.5 132.999s62.5 64.833 104.5 82.5
s87.333 26.5 136 26.5c50 0 97.5 -12.667 142.5 -38s80.5 -67 106.5 -125l-146 -59c-15.333 28 -39.833 45.833 -73.5 53.5s-64.167 4.33398 -91.5 -9.99902s-41 -35.5 -41 -63.5v-244c0 -20.667 8.5 -37.667 25.5 -51s36.667 -21.166 59 -23.499
s44.666 1.83398 66.999 12.501s38.166 27.667 47.499 51z" />
    <glyph glyph-name="uni0422" unicode="&#x422;" horiz-adv-x="585" 
d="M571 539h-188v-539h-181v539h-188v170h557v-170z" />
    <glyph glyph-name="uni0423" unicode="&#x423;" horiz-adv-x="601" 
d="M246 554l48 -128h5l53 138l64 144h199l-320 -708h-193l104 229l-233 479h203z" />
    <glyph glyph-name="uni0424" unicode="&#x424;" horiz-adv-x="804" 
d="M317 0v58c-81.333 0 -150.166 19.5 -206.499 58.5s-84.5 97.833 -84.5 176.5v122c0 78.667 28.167 137.5 84.5 176.5s125.166 58.5 206.499 58.5v58h170v-58c81.333 0 150.166 -19.5 206.499 -58.5s84.5 -97.833 84.5 -176.5v-122c0 -78.667 -28.167 -137.5 -84.5 -176.5
s-125.166 -58.5 -206.499 -58.5v-58h-170zM206 416v-124c0 -48 37 -72 111 -72v268c-74 0 -111 -24 -111 -72zM598 292v124c0 48 -37 72 -111 72v-268c74 0 111 24 111 72z" />
    <glyph glyph-name="uni0425" unicode="&#x425;" horiz-adv-x="656" 
d="M327 466l124 242h208l-198 -355l198 -353h-208l-124 241l-121 -241h-209l199 353l-199 355h209z" />
    <glyph glyph-name="uni0426" unicode="&#x426;" horiz-adv-x="715" 
d="M56 0v708h180v-538h193v538h180v-538h86v-312h-170v142h-469z" />
    <glyph glyph-name="uni0427" unicode="&#x427;" horiz-adv-x="639" 
d="M403 0l-0.000976562 236.998c-12.667 -10.667 -30.667 -20 -54 -28s-48.333 -12 -75 -12c-66.667 0 -123.667 21.333 -171 64s-71 102.334 -71 179.001v268h180v-268c0 -47.333 25.667 -71.666 77 -72.999c50.667 0 88.334 11.333 113.001 34l1 307h180v-708h-180z" />
    <glyph glyph-name="uni0428" unicode="&#x428;" horiz-adv-x="988" 
d="M56 708h180v-538h168v538h180v-538h168v538h180v-708h-876v708z" />
    <glyph glyph-name="uni0429" unicode="&#x429;" horiz-adv-x="1038" 
d="M752 708h180v-538h86v-312h-170v142h-792v708h180v-538h168v538h180v-538h168v538z" />
    <glyph glyph-name="uni042A" unicode="&#x42a;" horiz-adv-x="714" 
d="M152 538l-134.999 -0.000976562v170h315v-241h106c91.333 0 156.666 -19.333 195.999 -58s59 -94 59 -166c0 -71.333 -22.5 -129.666 -67.5 -174.999s-105.833 -68 -182.5 -68h-291v538zM332.001 156.999h106c52.667 0 79 29.333 79 88c0 26 -7 45.833 -21 59.5
s-33.333 20.5 -58 20.5h-106v-168z" />
    <glyph glyph-name="uni042B" unicode="&#x42b;" horiz-adv-x="915" 
d="M597 243c0 -71.333 -22.499 -129.667 -67.499 -175s-105.833 -68 -182.5 -68h-291v708h180v-241h106c91.333 0 156.666 -19.333 195.999 -58s59 -94 59 -166zM859.001 707.999v-708h-179v708h179zM236.001 156.999h106c52.667 0 79 29.333 79 88c0 26 -7 45.833 -21 59.5
s-33.333 20.5 -58 20.5h-106v-168z" />
    <glyph glyph-name="uni042C" unicode="&#x42c;" horiz-adv-x="618" 
d="M597 243c0 -71.333 -22.499 -129.667 -67.499 -175s-105.833 -68 -182.5 -68h-291v708h180v-241h106c91.333 0 156.666 -19.333 195.999 -58s59 -94 59 -166zM236.001 156.999h106c52.667 0 79 29.333 79 88c0 26 -7 45.833 -21 59.5s-33.333 20.5 -58 20.5h-106v-168z
" />
    <glyph glyph-name="uni042D" unicode="&#x42d;" 
d="M369 233l-0.000976562 49.999h-157v149h157v42c0 23.333 -9.83301 42 -29.5 56s-43.167 21 -70.5 21c-50 0 -85.333 -19 -106 -57l-146 59c26 58 61.5 100 106.5 126s92.5 39 142.5 39c48.667 0 94.167 -9 136.5 -27s77.333 -45.833 105 -83.5s41.5 -82.167 41.5 -133.5
v-241c0 -76 -27.833 -135.5 -83.5 -178.5s-121.167 -64.5 -196.5 -64.5c-31.333 0 -62.166 5.16699 -92.499 15.5s-60.333 27.833 -90 52.5s-53.834 55.334 -72.501 92.001l156 72c16.667 -41.333 51.334 -62 104.001 -62c26 0.666992 48.333 7.5 67 20.5s28 30.5 28 52.5z
" />
    <glyph glyph-name="uni042E" unicode="&#x42e;" horiz-adv-x="975" 
d="M347 439l-0.000976562 36c0 76.667 29 136.334 87 179.001s127 64 207 64c50.667 0 97.834 -8.66699 141.501 -26s80.167 -45 109.5 -83s44 -82.667 44 -134v-242c0 -76.667 -29.167 -136.334 -87.5 -179.001s-127.166 -64 -206.499 -64
c-50.667 0 -97.834 8.66699 -141.501 26s-80.167 45 -109.5 83s-44 82.667 -44 134v42h-112v-275h-180v708h180v-269h112zM526.999 468v-231c0 -24 11.333 -42.833 34 -56.5s49.334 -20.5 80.001 -20.5c31.333 0 58.333 6.66699 81 20s34 32.333 34 57v231
c0 25.333 -11.333 45 -34 59s-49.667 21 -81 21c-30.667 -0.666992 -57.334 -8 -80.001 -22s-34 -33.333 -34 -58z" />
    <glyph glyph-name="uni042F" unicode="&#x42f;" horiz-adv-x="646" 
d="M590 0l-180.001 0.000976562v238h-29l-190 -238h-223l216 256c-45.333 16 -80.666 40.667 -105.999 74s-38 81.666 -38 144.999c2 74 26.5 131.333 73.5 172s111.833 61 194.5 61h282v-708zM409.999 538.001h-105c-27.333 0 -48.333 -6.66699 -63 -20
s-22 -32.333 -22 -57c0 -24 7.16699 -43.667 21.5 -59s35.5 -23 63.5 -23h105v159z" />
    <glyph glyph-name="uni0430" unicode="&#x430;" horiz-adv-x="648" 
d="M404 708l253 -708h-192l-46 142h-189l-44 -142h-192l247 708h163zM270 301h106l-49 207h-5z" />
    <glyph glyph-name="uni0431" unicode="&#x431;" horiz-adv-x="616" 
d="M598 231c0 -70.667 -22.668 -126.833 -68.001 -168.5s-107 -62.5 -185 -62.5h-289v708h484v-150h-304v-110h104c94.667 0 161.334 -17.667 200.001 -53s58 -90 58 -164zM235.999 157.001h104c54 0 81 27.667 81 83c0 52 -27.333 78 -82 78h-103v-161z" />
    <glyph glyph-name="uni0432" unicode="&#x432;" horiz-adv-x="626" 
d="M570 492c-0.666992 -19.333 -7.16797 -40.333 -19.501 -63s-30.166 -40 -53.499 -52c43.333 -22 72.333 -51.333 87 -88s19 -72 13 -106c-19.333 -122 -103.333 -183 -252 -183h-289v708h284c69.333 0 125.5 -19.5 168.5 -58.5s63.5 -91.5 61.5 -157.5zM235.999 431
h103.999c27.333 0 46.833 10.5 58.5 31.5s11.834 42 0.500977 63s-31 31.5 -59 31.5h-104v-126zM235.998 157h104c34 0 57.833 12.167 71.5 36.5s13.5 48.5 -0.5 72.5s-37.667 36 -71 36h-104v-145z" />
    <glyph glyph-name="uni0433" unicode="&#x433;" horiz-adv-x="511" 
d="M56 708h441v-170h-261v-538h-180v708z" />
    <glyph glyph-name="uni0434" unicode="&#x434;" horiz-adv-x="721" 
d="M197 -142h-182v303h64l185 547h189l191 -547h62v-303h-182v142h-327v-142zM397 352l-35 156h-4l-31 -158l-53 -189h172z" />
    <glyph glyph-name="uni0435" unicode="&#x435;" 
d="M237 540v-110h287v-155h-287v-106h312v-169h-493v708h493v-168h-312z" />
    <glyph glyph-name="uni0436" unicode="&#x436;" horiz-adv-x="948" 
d="M384 0v260l-6 8l-163 -268h-223l252 360l-253 348h216l177 -265v265h180v-265l177 265h216l-253 -348l252 -360h-223l-163 268l-6 -8v-260h-180z" />
    <glyph glyph-name="uni0437" unicode="&#x437;" horiz-adv-x="569" 
d="M440 377c67.333 -34 101 -88.999 101 -164.999c0 -70 -25 -124.5 -75 -163.5s-119.667 -58.5 -209 -58.5c-54.667 0 -104.834 12.333 -150.501 37s-81.834 58.667 -108.501 102l114 89c42 -47.333 87 -71 135 -71c76 0 114 25.333 114 76
c0 25.333 -8.16699 45.166 -24.5 59.499s-38.833 21.5 -67.5 21.5h-105v123h101c26.667 0 47.5 6.5 62.5 19.5s22.5 31.167 22.5 54.5c0 20.667 -7.66699 37 -23 49s-37.666 18 -66.999 18c-40.667 0 -83.667 -16.667 -129 -50l-94 92c58.667 72 137.334 108 236.001 108
c78 0 138.167 -18 180.5 -54s63.5 -86.333 63.5 -151c0 -25.333 -6.83301 -51.333 -20.5 -78s-32.5 -46 -56.5 -58z" />
    <glyph glyph-name="uni0438" unicode="&#x438;" horiz-adv-x="685" 
d="M449 0v283l18 133l-5 1l-67 -138l-170 -279h-169v708h180v-321l-15 -106l4 -1l59 127l181 301h164v-708h-180z" />
    <glyph glyph-name="uni0439" unicode="&#x439;" horiz-adv-x="685" 
d="M338 766c-50 0 -92.667 15.333 -128 46s-53 73.334 -53 128.001h139c0 -12 4 -21.833 12 -29.5s18 -11.5 30 -11.5s22 3.83301 30 11.5s12 17.5 12 29.5h139c0 -54.667 -17.667 -97.334 -53 -128.001s-78 -46 -128 -46zM449 0v283l18 133l-5 1l-67 -138l-170 -279h-169
v708h180v-321l-15 -106l4 -1l59 127l181 301h164v-708h-180z" />
    <glyph glyph-name="uni043A" unicode="&#x43a;" horiz-adv-x="640" 
d="M236 446l192 262h223l-280 -348l279 -360h-225l-183 253l-6 -8v-245h-180v708h180v-262z" />
    <glyph glyph-name="uni043B" unicode="&#x43b;" horiz-adv-x="634" 
d="M320 508h-6l-43 -207l-84 -301h-192l238 708h165l244 -708h-192l-89 301z" />
    <glyph glyph-name="uni043C" unicode="&#x43c;" horiz-adv-x="769" 
d="M56 0v708h179l149 -346l150 346h179v-708h-180l1 204l11 143l-6 1l-93 -243h-123l-95 243l-5 -1l12 -143v-204h-179z" />
    <glyph glyph-name="uni043D" unicode="&#x43d;" horiz-adv-x="676" 
d="M236 267v-267h-180v708h180v-268h204v268h180v-708h-180v267h-204z" />
    <glyph glyph-name="uni043E" unicode="&#x43e;" horiz-adv-x="665" 
d="M39 233v242c0 76.667 28.833 136.334 86.5 179.001s126.5 64 206.5 64c79.333 0 148.166 -21.333 206.499 -64s87.5 -102.334 87.5 -179.001v-242c0 -76.667 -29 -136.334 -87 -179.001s-126.667 -64 -206 -64s-148.166 21.333 -206.499 64s-87.5 102.334 -87.5 179.001z
M218 475l-0.000976562 -242c0 -24.667 11.333 -43.667 34 -57s49.667 -20 81 -20c30.667 0 57.334 6.83301 80.001 20.5s34 32.5 34 56.5v242c0 26 -11.5 45.833 -34.5 59.5s-50.5 20.5 -82.5 20.5c-30 0 -56.167 -7.16699 -78.5 -21.5s-33.5 -33.833 -33.5 -58.5z" />
    <glyph glyph-name="uni043F" unicode="&#x43f;" horiz-adv-x="671" 
d="M236 538v-538h-180v708h559v-708h-180v538h-199z" />
    <glyph glyph-name="uni0440" unicode="&#x440;" horiz-adv-x="618" 
d="M56 0l0.000976562 708h283c81.333 0 144.833 -24.667 190.5 -74s68.5 -108 68.5 -176s-22.833 -126.833 -68.5 -176.5s-108.834 -74.5 -189.501 -74.5h-105v-207h-179zM235.001 366h104c20.667 0 38 6 52 18s22.667 26.667 26 44s3.33301 34.5 0 51.5s-12 31.5 -26 43.5
s-31.333 18 -52 18h-104v-175z" />
    <glyph glyph-name="uni0441" unicode="&#x441;" horiz-adv-x="582" 
d="M417 221l156.001 -72.001c-18.667 -36.667 -42.834 -67.334 -72.501 -92.001s-59.667 -42 -90 -52s-61.166 -15 -92.499 -15c-75.333 0 -140.666 21.333 -195.999 64s-83 102 -83 178v244c0 51.333 13.833 95.666 41.5 132.999s62.5 64.833 104.5 82.5
s87.333 26.5 136 26.5c50 0 97.5 -12.667 142.5 -38s80.5 -67 106.5 -125l-146 -59c-15.333 28 -39.833 45.833 -73.5 53.5s-64.167 4.33398 -91.5 -9.99902s-41 -35.5 -41 -63.5v-244c0 -20.667 8.5 -37.667 25.5 -51s36.667 -21.166 59 -23.499
s44.666 1.83398 66.999 12.501s38.166 27.667 47.499 51z" />
    <glyph glyph-name="uni0442" unicode="&#x442;" horiz-adv-x="585" 
d="M571 539h-188v-539h-181v539h-188v170h557v-170z" />
    <glyph glyph-name="uni0443" unicode="&#x443;" horiz-adv-x="601" 
d="M246 554l48 -128h5l53 138l64 144h199l-320 -708h-193l104 229l-233 479h203z" />
    <glyph glyph-name="uni0444" unicode="&#x444;" horiz-adv-x="804" 
d="M317 0v58c-81.333 0 -150.166 19.5 -206.499 58.5s-84.5 97.833 -84.5 176.5v122c0 78.667 28.167 137.5 84.5 176.5s125.166 58.5 206.499 58.5v58h170v-58c81.333 0 150.166 -19.5 206.499 -58.5s84.5 -97.833 84.5 -176.5v-122c0 -78.667 -28.167 -137.5 -84.5 -176.5
s-125.166 -58.5 -206.499 -58.5v-58h-170zM206 416v-124c0 -48 37 -72 111 -72v268c-74 0 -111 -24 -111 -72zM598 292v124c0 48 -37 72 -111 72v-268c74 0 111 24 111 72z" />
    <glyph glyph-name="uni0445" unicode="&#x445;" horiz-adv-x="656" 
d="M327 466l124 242h208l-198 -355l198 -353h-208l-124 241l-121 -241h-209l199 353l-199 355h209z" />
    <glyph glyph-name="uni0446" unicode="&#x446;" horiz-adv-x="715" 
d="M56 0v708h180v-538h193v538h180v-538h86v-312h-170v142h-469z" />
    <glyph glyph-name="uni0447" unicode="&#x447;" horiz-adv-x="639" 
d="M403 0l-0.000976562 236.998c-12.667 -10.667 -30.667 -20 -54 -28s-48.333 -12 -75 -12c-66.667 0 -123.667 21.333 -171 64s-71 102.334 -71 179.001v268h180v-268c0 -47.333 25.667 -71.666 77 -72.999c50.667 0 88.334 11.333 113.001 34l1 307h180v-708h-180z" />
    <glyph glyph-name="uni0448" unicode="&#x448;" horiz-adv-x="988" 
d="M56 708h180v-538h168v538h180v-538h168v538h180v-708h-876v708z" />
    <glyph glyph-name="uni0449" unicode="&#x449;" horiz-adv-x="1038" 
d="M752 708h180v-538h86v-312h-170v142h-792v708h180v-538h168v538h180v-538h168v538z" />
    <glyph glyph-name="uni044A" unicode="&#x44a;" horiz-adv-x="714" 
d="M152 538l-134.999 -0.000976562v170h315v-241h106c91.333 0 156.666 -19.333 195.999 -58s59 -94 59 -166c0 -71.333 -22.5 -129.666 -67.5 -174.999s-105.833 -68 -182.5 -68h-291v538zM332.001 156.999h106c52.667 0 79 29.333 79 88c0 26 -7 45.833 -21 59.5
s-33.333 20.5 -58 20.5h-106v-168z" />
    <glyph glyph-name="uni044B" unicode="&#x44b;" horiz-adv-x="915" 
d="M597 243c0 -71.333 -22.499 -129.667 -67.499 -175s-105.833 -68 -182.5 -68h-291v708h180v-241h106c91.333 0 156.666 -19.333 195.999 -58s59 -94 59 -166zM859.001 707.999v-708h-179v708h179zM236.001 156.999h106c52.667 0 79 29.333 79 88c0 26 -7 45.833 -21 59.5
s-33.333 20.5 -58 20.5h-106v-168z" />
    <glyph glyph-name="uni044C" unicode="&#x44c;" horiz-adv-x="618" 
d="M597 243c0 -71.333 -22.499 -129.667 -67.499 -175s-105.833 -68 -182.5 -68h-291v708h180v-241h106c91.333 0 156.666 -19.333 195.999 -58s59 -94 59 -166zM236.001 156.999h106c52.667 0 79 29.333 79 88c0 26 -7 45.833 -21 59.5s-33.333 20.5 -58 20.5h-106v-168z
" />
    <glyph glyph-name="uni044D" unicode="&#x44d;" 
d="M369 233l-0.000976562 49.999h-157v149h157v42c0 23.333 -9.83301 42 -29.5 56s-43.167 21 -70.5 21c-50 0 -85.333 -19 -106 -57l-146 59c26 58 61.5 100 106.5 126s92.5 39 142.5 39c48.667 0 94.167 -9 136.5 -27s77.333 -45.833 105 -83.5s41.5 -82.167 41.5 -133.5
v-241c0 -76 -27.833 -135.5 -83.5 -178.5s-121.167 -64.5 -196.5 -64.5c-31.333 0 -62.166 5.16699 -92.499 15.5s-60.333 27.833 -90 52.5s-53.834 55.334 -72.501 92.001l156 72c16.667 -41.333 51.334 -62 104.001 -62c26 0.666992 48.333 7.5 67 20.5s28 30.5 28 52.5z
" />
    <glyph glyph-name="uni044E" unicode="&#x44e;" horiz-adv-x="975" 
d="M347 439l-0.000976562 36c0 76.667 29 136.334 87 179.001s127 64 207 64c50.667 0 97.834 -8.66699 141.501 -26s80.167 -45 109.5 -83s44 -82.667 44 -134v-242c0 -76.667 -29.167 -136.334 -87.5 -179.001s-127.166 -64 -206.499 -64
c-50.667 0 -97.834 8.66699 -141.501 26s-80.167 45 -109.5 83s-44 82.667 -44 134v42h-112v-275h-180v708h180v-269h112zM526.999 468v-231c0 -24 11.333 -42.833 34 -56.5s49.334 -20.5 80.001 -20.5c31.333 0 58.333 6.66699 81 20s34 32.333 34 57v231
c0 25.333 -11.333 45 -34 59s-49.667 21 -81 21c-30.667 -0.666992 -57.334 -8 -80.001 -22s-34 -33.333 -34 -58z" />
    <glyph glyph-name="uni044F" unicode="&#x44f;" horiz-adv-x="646" 
d="M590 0l-180.001 0.000976562v238h-29l-190 -238h-223l216 256c-45.333 16 -80.666 40.667 -105.999 74s-38 81.666 -38 144.999c2 74 26.5 131.333 73.5 172s111.833 61 194.5 61h282v-708zM409.999 538.001h-105c-27.333 0 -48.333 -6.66699 -63 -20
s-22 -32.333 -22 -57c0 -24 7.16699 -43.667 21.5 -59s35.5 -23 63.5 -23h105v159z" />
    <glyph glyph-name="uni0451" unicode="&#x451;" 
d="M104 834c0 24 8.16699 44.167 24.5 60.5s36.166 24.5 59.499 24.5s43.166 -8.16699 59.499 -24.5s24.5 -36.5 24.5 -60.5c0 -23.333 -8.16699 -43 -24.5 -59s-36.166 -24 -59.499 -24s-43.166 8 -59.499 24s-24.5 35.667 -24.5 59zM345 834c0 24 8 44.167 24 60.5
s36 24.5 60 24.5s44.167 -8.16699 60.5 -24.5s24.5 -36.5 24.5 -60.5c0 -23.333 -8.16699 -43 -24.5 -59s-36.5 -24 -60.5 -24s-44 8 -60 24s-24 35.667 -24 59zM237 540v-110h287v-155h-287v-106h312v-169h-493v708h493v-168h-312z" />
    <glyph glyph-name="Wgrave" unicode="&#x1e80;" horiz-adv-x="915" 
d="M563 756h-155l-131 166h186zM644 367l86 341h185l-204 -708h-166l-63 196l-25 162h-3l-27 -161l-56 -197h-166l-205 708h186l84 -339l18 -150h5l17 149l79 248h136l73 -249l23 -148h3z" />
    <glyph glyph-name="wgrave" unicode="&#x1e81;" horiz-adv-x="915" 
d="M563 756h-155l-131 166h186zM644 367l86 341h185l-204 -708h-166l-63 196l-25 162h-3l-27 -161l-56 -197h-166l-205 708h186l84 -339l18 -150h5l17 149l79 248h136l73 -249l23 -148h3z" />
    <glyph glyph-name="Wacute" unicode="&#x1e82;" horiz-adv-x="915" 
d="M644 922l-131 -166h-155l100 166h186zM644 367l86 341h185l-204 -708h-166l-63 196l-25 162h-3l-27 -161l-56 -197h-166l-205 708h186l84 -339l18 -150h5l17 149l79 248h136l73 -249l23 -148h3z" />
    <glyph glyph-name="wacute" unicode="&#x1e83;" horiz-adv-x="915" 
d="M644 922l-131 -166h-155l100 166h186zM644 367l86 341h185l-204 -708h-166l-63 196l-25 162h-3l-27 -161l-56 -197h-166l-205 708h186l84 -339l18 -150h5l17 149l79 248h136l73 -249l23 -148h3z" />
    <glyph glyph-name="Wdieresis" unicode="&#x1e84;" horiz-adv-x="915" 
d="M256 834c0 24 8.16699 44.167 24.5 60.5s36.166 24.5 59.499 24.5s43.166 -8.16699 59.499 -24.5s24.5 -36.5 24.5 -60.5c0 -23.333 -8.16699 -43 -24.5 -59s-36.166 -24 -59.499 -24s-43.166 8 -59.499 24s-24.5 35.667 -24.5 59zM497 834c0 24 8 44.167 24 60.5
s36 24.5 60 24.5s44.167 -8.16699 60.5 -24.5s24.5 -36.5 24.5 -60.5c0 -23.333 -8.16699 -43 -24.5 -59s-36.5 -24 -60.5 -24s-44 8 -60 24s-24 35.667 -24 59zM644 367l86 341h185l-204 -708h-166l-63 196l-25 162h-3l-27 -161l-56 -197h-166l-205 708h186l84 -339
l18 -150h5l17 149l79 248h136l73 -249l23 -148h3z" />
    <glyph glyph-name="wdieresis" unicode="&#x1e85;" horiz-adv-x="915" 
d="M256 834c0 24 8.16699 44.167 24.5 60.5s36.166 24.5 59.499 24.5s43.166 -8.16699 59.499 -24.5s24.5 -36.5 24.5 -60.5c0 -23.333 -8.16699 -43 -24.5 -59s-36.166 -24 -59.499 -24s-43.166 8 -59.499 24s-24.5 35.667 -24.5 59zM497 834c0 24 8 44.167 24 60.5
s36 24.5 60 24.5s44.167 -8.16699 60.5 -24.5s24.5 -36.5 24.5 -60.5c0 -23.333 -8.16699 -43 -24.5 -59s-36.5 -24 -60.5 -24s-44 8 -60 24s-24 35.667 -24 59zM644 367l86 341h185l-204 -708h-166l-63 196l-25 162h-3l-27 -161l-56 -197h-166l-205 708h186l84 -339
l18 -150h5l17 149l79 248h136l73 -249l23 -148h3z" />
    <glyph glyph-name="Ygrave" unicode="&#x1ef2;" horiz-adv-x="655" 
d="M426 756h-155l-131 166h186zM417 0h-179v279l-247 429h208l128 -260l128 260h210l-248 -429v-279z" />
    <glyph glyph-name="ygrave" unicode="&#x1ef3;" horiz-adv-x="655" 
d="M426 756h-155l-131 166h186zM417 0h-179v279l-247 429h208l128 -260l128 260h210l-248 -429v-279z" />
    <glyph glyph-name="endash" unicode="&#x2013;" horiz-adv-x="571" 
d="M525 374v-169h-479v169h479z" />
    <glyph glyph-name="emdash" unicode="&#x2014;" horiz-adv-x="868" 
d="M822 374v-169h-776v169h776z" />
    <glyph glyph-name="quoteleft" unicode="&#x2018;" horiz-adv-x="310" 
d="M23 492l113 217h157l-68 -217h-202z" />
    <glyph glyph-name="quoteright" unicode="&#x2019;" horiz-adv-x="299" 
d="M289 706l-103 -206h-157l58 206h202z" />
    <glyph glyph-name="quotesinglbase" unicode="&#x201a;" horiz-adv-x="295" 
d="M260 115l-117 -219h-152l74 219h195z" />
    <glyph glyph-name="quotedblleft" unicode="&#x201c;" horiz-adv-x="544" 
d="M23 492l113 217h157l-68 -217h-202zM257 492l113 217h157l-68 -217h-202z" />
    <glyph glyph-name="quotedblright" unicode="&#x201d;" horiz-adv-x="530" 
d="M289 706l-103 -206h-157l58 206h202zM520 706l-103 -206h-157l58 206h202z" />
    <glyph glyph-name="quotedblbase" unicode="&#x201e;" horiz-adv-x="518" 
d="M259 104l-117 -208h-152l74 208h195zM483 104l-117 -208h-152l73 208h196z" />
    <glyph glyph-name="dagger" unicode="&#x2020;" horiz-adv-x="511" 
d="M25 348v170h145v190h171v-190h145v-170h-145v-444h-171v444h-145z" />
    <glyph glyph-name="daggerdbl" unicode="&#x2021;" horiz-adv-x="547" 
d="M43 69v166h145v141h-145v165h145v167h171v-167h145v-165h-145v-141h145v-166h-145v-165h-171v165h-145z" />
    <glyph glyph-name="bullet" unicode="&#x2022;" horiz-adv-x="420" 
d="M48 331c0 44.667 15.833 82.834 47.5 114.501s70.167 47.5 115.5 47.5c44.667 0 82.667 -15.833 114 -47.5s47 -69.834 47 -114.501c0 -45.333 -15.667 -83.833 -47 -115.5s-69.333 -47.5 -114 -47.5c-45.333 0 -83.833 15.833 -115.5 47.5s-47.5 70.167 -47.5 115.5z
" />
    <glyph glyph-name="ellipsis" unicode="&#x2026;" horiz-adv-x="786" 
d="M29 95c0 27.333 9.66699 50.666 29 69.999s43.333 29 72 29c27.333 0 50.666 -9.66699 69.999 -29s29 -42.666 29 -69.999c0 -28 -9.66699 -51.833 -29 -71.5s-42.666 -29.5 -69.999 -29.5c-28.667 0 -52.667 9.83301 -72 29.5s-29 43.5 -29 71.5zM294 95
c0 27.333 9.5 50.666 28.5 69.999s42.167 29 69.5 29c28.667 0 52.667 -9.66699 72 -29s29 -42.666 29 -69.999c0 -28 -9.66699 -51.833 -29 -71.5s-43.333 -29.5 -72 -29.5c-27.333 0 -50.5 9.83301 -69.5 29.5s-28.5 43.5 -28.5 71.5zM557 95c0 27.333 9.5 50.667 28.5 70
s42.5 29 70.5 29c28.667 0 52.5 -9.5 71.5 -28.5s28.5 -42.5 28.5 -70.5s-9.5 -51.833 -28.5 -71.5s-42.833 -29.5 -71.5 -29.5c-28 0 -51.5 9.83301 -70.5 29.5s-28.5 43.5 -28.5 71.5z" />
    <glyph glyph-name="perthousand" unicode="&#x2030;" horiz-adv-x="1072" 
d="M55 7l492 760l129 -86l-492 -757zM325 541c0 -54 -14.167 -96.999 -42.5 -128.999s-64.5 -48 -108.5 -48c-47.333 0 -83.833 15.333 -109.5 46s-38.5 75 -38.5 133c0 52.667 13.833 95 41.5 127s63.167 48 106.5 48c48.667 0 86 -15.333 112 -46s39 -74.334 39 -131.001z
M206 541.001c0 40 -11 60 -33 60c-23.333 0 -35 -19.667 -35 -59s11.667 -59 35 -59c22 0 33 19.333 33 58zM715 171.001c0 -54 -14.167 -96.999 -42.5 -128.999s-64.5 -48 -108.5 -48c-47.333 0 -83.833 15.333 -109.5 46s-38.5 75 -38.5 133c0 52.667 13.833 95 41.5 127
s63.167 48 106.5 48c48.667 0 86 -15.333 112 -46s39 -74.334 39 -131.001zM1049 171.002c0 -54 -14.167 -96.999 -42.5 -128.999s-64.5 -48 -108.5 -48c-47.333 0 -83.833 15.333 -109.5 46s-38.5 75 -38.5 133c0 52.667 13.833 95 41.5 127s63.167 48 106.5 48
c48.667 0 86 -15.333 112 -46s39 -74.334 39 -131.001zM596 171.003c0 40 -11 60 -33 60c-23.333 0 -35 -19.667 -35 -59s11.667 -59 35 -59c22 0 33 19.333 33 58zM930 171.003c0 40 -11 60 -33 60c-23.333 0 -35 -19.667 -35 -59s11.667 -59 35 -59c22 0 33 19.333 33 58z
" />
    <glyph glyph-name="guilsinglleft" unicode="&#x2039;" horiz-adv-x="352" 
d="M179 525l144 -87l-103 -150l52.5 -78.5l50.5 -76.5l-145 -85l-159 239z" />
    <glyph glyph-name="guilsinglright" unicode="&#x203a;" horiz-adv-x="352" 
d="M176 49l-148 84l103 154l-102 151l145 86l159 -237z" />
    <glyph glyph-name="fraction" unicode="&#x2044;" horiz-adv-x="583" 
d="M589 685l-454 -762l-141 87l454 761z" />
    <glyph glyph-name="Euro" unicode="&#x20ac;" horiz-adv-x="645" 
d="M87 470v3.99902c0 76 27.5 135.667 82.5 179s120.5 65 196.5 65c50 0 97.5 -13 142.5 -39s80.5 -68 106.5 -126l-146 -59c-15.333 28 -39.833 45.833 -73.5 53.5s-64.167 4.33398 -91.5 -9.99902s-41 -35.5 -41 -63.5v-4h178l-23 -108h-155v-31h178l-23 -108h-154
c4 -24.667 19.667 -43.167 47 -55.5s56.333 -13.666 87 -3.99902s52 29.167 64 58.5l156 -72c-18.667 -36.667 -42.834 -67.334 -72.501 -92.001s-59.667 -42.167 -90 -52.5s-61.166 -15.5 -92.499 -15.5c-73.333 0 -137 20.5 -191 61.5s-82.333 98.167 -85 171.5h-62
l22 108h40v31h-62l22 108h40z" />
    <glyph glyph-name="uni2113" unicode="&#x2113;" horiz-adv-x="450" 
d="M340 173l86.999 -100.001c-30.667 -37.333 -68.5 -61.833 -113.5 -73.5s-86.833 -7.66699 -125.5 12s-64 52.834 -76 99.501l-37 -28l-59 136l81 69v185c0 86.667 16 148.667 48 186s71.667 56 119 56c48.667 0 85.834 -16.833 111.501 -50.5s38.5 -77.5 38.5 -131.5
c0 -99.333 -50.333 -203.333 -151 -312v-7c0 -32 7.83301 -51.667 23.5 -59s33.5 -1.33301 53.5 18zM234.999 400.999l0.00195312 -4.99805c27.333 57.333 41 101.666 41 132.999c0 36 -5.83301 53.167 -17.5 51.5s-20.834 -18.834 -27.501 -51.501
c-6.66699 -37.333 -5.33398 -80 3.99902 -128z" />
    <glyph glyph-name="trademark" unicode="&#x2122;" horiz-adv-x="863" 
d="M117 289v258h-88v162h343v-162h-90v-258h-165zM401 291v418h137l69 -132l71 132h133v-418h-149l3 119l-42 -73h-25l-45 74l2 -120h-154z" />
    <glyph glyph-name="Omega" unicode="&#x2126;" horiz-adv-x="774" 
d="M414 0l-0.999023 142.999c45.333 18 80.833 47.5 106.5 88.5s38.5 84.5 38.5 130.5c0 49.333 -14.833 91 -44.5 125s-72.5 51 -128.5 51c-53.333 0 -94.5 -17.833 -123.5 -53.5s-43.5 -79.167 -43.5 -130.5c0 -44.667 12.333 -86.667 37 -126s59 -67.666 103 -84.999
v-143h-319v176h79c-49.333 51.333 -74 117.333 -74 198c0 72 16.833 134 50.5 186s75.667 90 126 114s105.166 36 164.499 36s114.833 -12.167 166.5 -36.5s94.667 -62.333 129 -114s51.5 -112.167 51.5 -181.5c0 -38.667 -6.83301 -76.5 -20.5 -113.5
s-32.167 -66.5 -55.5 -88.5h77v-176h-319z" />
    <glyph glyph-name="estimated" unicode="&#x212e;" horiz-adv-x="798" 
d="M271 260v-31.001c0 -6 0.166992 -13.5 0.5 -22.5s0.5 -16.833 0.5 -23.5c37.333 -33.333 80.666 -50 129.999 -50c36 0 72.167 7.33301 108.5 22s65.833 38.334 88.5 71.001l167 -1c-46 -79.333 -101.833 -137.833 -167.5 -175.5s-131.5 -56.5 -197.5 -56.5
c-102 0 -189.167 32.833 -261.5 98.5s-108.5 145.5 -108.5 239.5c0 93.333 36.333 173.333 109 240s159.667 100 261 100c102.667 0 190.334 -33.333 263.001 -100s109 -146.667 109 -240v-71h-502zM533 400.999l0.00195312 76c-40.667 34 -84.334 51 -131.001 51
c-48.667 0 -92.334 -17 -131.001 -51v-76h262z" />
    <glyph glyph-name="partialdiff" unicode="&#x2202;" horiz-adv-x="506" 
d="M133 515l-75.999 114.001c64 41.333 121 62 171 62c67.333 0 125.166 -27.833 173.499 -83.5s72.5 -138.5 72.5 -248.5c0 -108.667 -22.167 -196.667 -66.5 -264s-106.166 -101 -185.499 -101c-62.667 0 -110.834 21.833 -144.501 65.5s-51.167 97.167 -52.5 160.5
c-2 73.333 19.167 133.666 63.5 180.999s94.833 71 151.5 71c21.333 0 43 -4 65 -12c-1.33301 30.667 -11.5 53.167 -30.5 67.5s-41.333 20 -67 17s-50.5 -12.833 -74.5 -29.5zM223.001 153.001l8.00098 0.000976562c9.33301 -0.666992 19 4.33301 29 15s19 24.667 27 42
c11.333 25.333 17.666 57.333 18.999 96c-42 31.333 -75 28.333 -99 -9c-18 -28.667 -24.333 -61.334 -19 -98.001c4 -30.667 15.667 -46 35 -46z" />
    <glyph glyph-name="Delta" unicode="&#x2206;" horiz-adv-x="585" 
d="M223 675h139l199 -567v-108h-537v107zM290 442l-73 -273h145z" />
    <glyph glyph-name="product" unicode="&#x220f;" horiz-adv-x="632" 
d="M527 -53h-169v594h-85v-594h-170v594h-76v168h579v-168h-79v-594z" />
    <glyph glyph-name="summation" unicode="&#x2211;" horiz-adv-x="547" 
d="M27 52l189 260l-88.5 136l-90.5 139v119h468v-147h-242l75.5 -119c36.333 -58 63.833 -100.667 82.5 -128l-166 -223h262v-154h-490v117z" />
    <glyph glyph-name="minus" unicode="&#x2212;" horiz-adv-x="605" 
d="M558 379v-168h-511v168h511z" />
    <glyph glyph-name="uni2215" unicode="&#x2215;" horiz-adv-x="563" 
d="M575 702l-445 -751l-141 87l445 750z" />
    <glyph glyph-name="uni2219" unicode="&#x2219;" horiz-adv-x="264" 
d="M33 303c0 28.667 9.33301 52.667 28 72s42.667 29 72 29c28 0 51.333 -9.83301 70 -29.5s28 -43.5 28 -71.5s-9.33301 -51.333 -28 -70s-42 -28 -70 -28c-29.333 0 -53.333 9.33301 -72 28s-28 42 -28 70z" />
    <glyph glyph-name="radical" unicode="&#x221a;" horiz-adv-x="541" 
d="M215 -116l-108 340l-56 -15l-53 145l217 83l56 -283l94 605h174l-184 -875h-140z" />
    <glyph glyph-name="infinity" unicode="&#x221e;" horiz-adv-x="671" 
d="M643 285l0.000976562 -1c0 -52 -17.667 -94.667 -53 -128s-76.333 -50 -123 -50c-55.333 0 -99 20.333 -131 61c-36.667 -40.667 -81.667 -61 -135 -61c-48 0 -88.667 16.833 -122 50.5s-50 75.167 -50 124.5c0 52 16.667 95 50 129s75.666 51 126.999 51
c52 0 96.333 -22.333 133 -67c39.333 46.667 84 69 134 67c50.667 -2 91.667 -19 123 -51s47 -73.667 47 -125zM205.001 324c-20 0 -34 -6.66699 -42 -20s-8 -26.833 0 -40.5s21.667 -20.5 41 -20.5c15.333 0 36 13.667 62 41c-26.667 26.667 -47 40 -61 40zM469.001 324
c-14 0 -34.333 -13.333 -61 -40c26 -27.333 46.667 -41 62 -41c19.333 0 33 6.83301 41 20.5s8 27.167 0 40.5s-22 20 -42 20z" />
    <glyph glyph-name="integral" unicode="&#x222b;" horiz-adv-x="383" 
d="M381 742l-34 -98.002c-16 10.667 -30.667 12.167 -44 4.5s-20.333 -24.167 -21 -49.5l5 -546c0 -55.333 -15.333 -98.166 -46 -128.499s-68.667 -45.5 -114 -45.5c-39.333 0 -81.666 14.333 -126.999 43l43 106c16.667 -12 32.167 -15.667 46.5 -11s21.5 16.667 21.5 36
c0 42 -3 225.333 -9 550c0 56.667 15.167 100.834 45.5 132.501s67.833 47.5 112.5 47.5c43.333 0 83.666 -13.667 120.999 -41z" />
    <glyph glyph-name="approxequal" unicode="&#x2248;" horiz-adv-x="497" 
d="M373 496l90.001 -73.999c-39.333 -72.667 -88 -109 -146 -109c-28.667 0 -63.334 9 -104.001 27c-40 20 -73.667 14.667 -101 -16l-82 75c21.333 34.667 44.333 61.667 69 81s49.334 30 74.001 32c14.667 2 32.167 -1.16699 52.5 -9.5s38 -17 53 -26
s31.167 -12.833 48.5 -11.5s32.666 11.666 45.999 30.999zM369.001 298.001l97.0039 -72.001c-41.333 -75.333 -91.333 -113 -150 -113c-32.667 0 -66.667 10.667 -102 32c-18 11.333 -31 17 -39 17s-24.667 -13 -50 -39l-91 78c38.667 62 73.667 98.5 105 109.5
s73 4.5 125 -19.5v1c4.66699 -1.33301 11 -3.5 19 -6.5s13.167 -5 15.5 -6s6.16602 -2 11.499 -3s9.16602 -1.16699 11.499 -0.5s6.16602 1.83398 11.499 3.50098s10.666 4 15.999 7z" />
    <glyph glyph-name="notequal" unicode="&#x2260;" horiz-adv-x="528" 
d="M38 114v142h139l22 42h-161v142h236l50 96l121 -55l-22 -41h66v-142h-141l-22 -42h163v-142h-238l-49 -94l-121 51l22 43h-65z" />
    <glyph glyph-name="lessequal" unicode="&#x2264;" horiz-adv-x="489" 
d="M432 477l-145 -77c0.666992 0 49 -24 145 -72v-148h16v-167h-412v167h325l-321 168v105l392 207v-183z" />
    <glyph glyph-name="greaterequal" unicode="&#x2265;" horiz-adv-x="489" 
d="M449 449v-104l-309 -162h313v-165h-412v165h16v142l115 58l29 14l-144 75v185z" />
    <glyph glyph-name="lozenge" unicode="&#x25ca;" horiz-adv-x="556" 
d="M216 -24l-196 355l201 357h117l198 -355l-200 -357h-120zM193 331l87 -156l83 153l-86 160z" />
    <glyph glyph-name=".null" horiz-adv-x="0" 
 />
    <glyph glyph-name="nonmarkingreturn" horiz-adv-x="333" 
 />
    <glyph glyph-name="i.loclTRK" horiz-adv-x="291" 
d="M235 708v-708h-179v708h179z" />
    <glyph glyph-name="uni0414.loclBGR" horiz-adv-x="721" 
d="M197 -142h-182v303h64l185 547h189l191 -547h62v-303h-182v142h-327v-142zM397 352l-35 156h-4l-31 -158l-53 -189h172z" />
    <glyph glyph-name="uni041B.loclBGR" horiz-adv-x="634" 
d="M320 508h-6l-43 -207l-84 -301h-192l238 708h165l244 -708h-192l-89 301z" />
    <glyph glyph-name="uni0432.loclBGR" horiz-adv-x="626" 
d="M570 492c-0.666992 -19.333 -7.16797 -40.333 -19.501 -63s-30.166 -40 -53.499 -52c43.333 -22 72.333 -51.333 87 -88s19 -72 13 -106c-19.333 -122 -103.333 -183 -252 -183h-289v708h284c69.333 0 125.5 -19.5 168.5 -58.5s63.5 -91.5 61.5 -157.5zM235.999 431
h103.999c27.333 0 46.833 10.5 58.5 31.5s11.834 42 0.500977 63s-31 31.5 -59 31.5h-104v-126zM235.998 157h104c34 0 57.833 12.167 71.5 36.5s13.5 48.5 -0.5 72.5s-37.667 36 -71 36h-104v-145z" />
    <glyph glyph-name="uni0433.loclBGR" horiz-adv-x="511" 
d="M56 708h441v-170h-261v-538h-180v708z" />
    <glyph glyph-name="uni0434.loclBGR" horiz-adv-x="721" 
d="M197 -142h-182v303h64l185 547h189l191 -547h62v-303h-182v142h-327v-142zM397 352l-35 156h-4l-31 -158l-53 -189h172z" />
    <glyph glyph-name="uni0436.loclBGR" horiz-adv-x="948" 
d="M384 0v260l-6 8l-163 -268h-223l252 360l-253 348h216l177 -265v265h180v-265l177 265h216l-253 -348l252 -360h-223l-163 268l-6 -8v-260h-180z" />
    <glyph glyph-name="uni0438.loclBGR" horiz-adv-x="685" 
d="M449 0v283l18 133l-5 1l-67 -138l-170 -279h-169v708h180v-321l-15 -106l4 -1l59 127l181 301h164v-708h-180z" />
    <glyph glyph-name="uni0439.loclBGR" horiz-adv-x="685" 
d="M338 766c-50 0 -92.667 15.333 -128 46s-53 73.334 -53 128.001h139c0 -12 4 -21.833 12 -29.5s18 -11.5 30 -11.5s22 3.83301 30 11.5s12 17.5 12 29.5h139c0 -54.667 -17.667 -97.334 -53 -128.001s-78 -46 -128 -46zM449 0v283l18 133l-5 1l-67 -138l-170 -279h-169
v708h180v-321l-15 -106l4 -1l59 127l181 301h164v-708h-180z" />
    <glyph glyph-name="uni043A.loclBGR" horiz-adv-x="640" 
d="M236 446l192 262h223l-280 -348l279 -360h-225l-183 253l-6 -8v-245h-180v708h180v-262z" />
    <glyph glyph-name="uni043B.loclBGR" horiz-adv-x="634" 
d="M320 508h-6l-43 -207l-84 -301h-192l238 708h165l244 -708h-192l-89 301z" />
    <glyph glyph-name="uni043F.loclBGR" horiz-adv-x="671" 
d="M236 538v-538h-180v708h559v-708h-180v538h-199z" />
    <glyph glyph-name="uni0442.loclBGR" horiz-adv-x="585" 
d="M571 539h-188v-539h-181v539h-188v170h557v-170z" />
    <glyph glyph-name="uni0446.loclBGR" horiz-adv-x="715" 
d="M56 0v708h180v-538h193v538h180v-538h86v-312h-170v142h-469z" />
    <glyph glyph-name="uni0448.loclBGR" horiz-adv-x="988" 
d="M56 708h180v-538h168v538h180v-538h168v538h180v-708h-876v708z" />
    <glyph glyph-name="uni0449.loclBGR" horiz-adv-x="1038" 
d="M752 708h180v-538h86v-312h-170v142h-792v708h180v-538h168v538h180v-538h168v538z" />
    <glyph glyph-name="uni044E.loclBGR" horiz-adv-x="975" 
d="M347 439l-0.000976562 36c0 76.667 29 136.334 87 179.001s127 64 207 64c50.667 0 97.834 -8.66699 141.501 -26s80.167 -45 109.5 -83s44 -82.667 44 -134v-242c0 -76.667 -29.167 -136.334 -87.5 -179.001s-127.166 -64 -206.499 -64
c-50.667 0 -97.834 8.66699 -141.501 26s-80.167 45 -109.5 83s-44 82.667 -44 134v42h-112v-275h-180v708h180v-269h112zM526.999 468v-231c0 -24 11.333 -42.833 34 -56.5s49.334 -20.5 80.001 -20.5c31.333 0 58.333 6.66699 81 20s34 32.333 34 57v231
c0 25.333 -11.333 45 -34 59s-49.667 21 -81 21c-30.667 -0.666992 -57.334 -8 -80.001 -22s-34 -33.333 -34 -58z" />
    <glyph glyph-name="at.001" horiz-adv-x="750" 
d="M469 538l72.002 -17.998c-16 22.667 -40.167 40 -72.5 52s-64.166 18 -95.499 18c-51.333 0 -96.333 -14 -135 -42s-67.334 -62.5 -86.001 -103.5s-28 -84.167 -28 -129.5c0 -80 28 -140.833 84 -182.5s125.667 -49.834 209 -24.501l27 -96c-45.333 -14 -87 -21 -125 -21
c-91.333 0 -168 32.667 -230 98s-90.667 149.333 -86 252c4.66699 61.333 21.667 119.5 51 174.5s71.5 100.833 126.5 137.5s116.167 55 183.5 55c36 0 71 -4.33301 105 -13c43.333 -12.667 83.666 -33.167 120.999 -61.5s65 -59.5 83 -93.5c30 -58 38.5 -123.667 25.5 -197
s-43.833 -131 -92.5 -173c-16 -14.667 -36.167 -26.834 -60.5 -36.501s-48.5 -14.5 -72.5 -14.5c-28.667 0 -53 7 -73 21c-20.667 -12.667 -44.334 -19 -71.001 -19c-52 0 -94.5 18.333 -127.5 55s-49.5 82.667 -49.5 138c0 64 19 120.5 57 169.5s83.667 73.5 137 73.5
c37.333 0 72.333 -13.333 105 -40zM558.002 495.002l-46.998 -256c24.667 11.333 43.667 32 57 62s19.666 61.333 18.999 94s-7.33398 60 -20.001 82zM344.004 244.002c19.333 0 34.333 5.33301 45 16l32 147c-35.333 37.333 -68.333 43 -99 17c-24.667 -20 -38 -50 -40 -90
c-1.33301 -30 6 -54.667 22 -74c10 -10.667 23.333 -16 40 -16z" />
    </font>
</defs>
</svg>
