<svg xmlns="http://www.w3.org/2000/svg"
 xmlns:xlink="http://www.w3.org/1999/xlink"
 width="19px" height="19px"  viewBox="0 0 19 19">
<path fill-rule="evenodd"  fill="#dedede"
 d="M12.812622,9.94812 C12.812622,9.94812 17.681519,14.817139 17.681519,14.817139 C17.997803,15.133423 17.997803,15.646484 17.681519,15.962769 C17.681519,15.962769 15.963013,17.681274 15.963013,17.681274 C15.6467285,17.997559 15.133789,17.997559 14.817505,17.681274 C14.817505,17.681274 9.948486,12.812378 9.948486,12.812378 C9.948486,12.812378 5.07959,17.681274 5.07959,17.681274 C4.7631836,17.997559 4.250366,17.997559 3.93396,17.681274 C3.93396,17.681274 2.215332,15.962769 2.215332,15.962769 C1.8991699,15.646484 1.8991699,15.133423 2.215332,14.817139 C2.215332,14.817139 7.0843506,9.94812 7.0843506,9.94812 C7.0843506,9.94812 2.215332,5.0793457 2.215332,5.0793457 C1.8991699,4.7629395 1.8991699,4.249878 2.215332,3.9337158 C2.215332,3.9337158 3.93396,2.21521 3.93396,2.21521 C4.250366,1.8989258 4.7631836,1.8989258 5.07959,2.21521 C5.07959,2.21521 9.948486,7.0839844 9.948486,7.0839844 C9.948486,7.0839844 14.817505,2.21521 14.817505,2.21521 C15.133789,1.8989258 15.6467285,1.8989258 15.963013,2.21521 C15.963013,2.21521 17.681519,3.9337158 17.681519,3.9337158 C17.997803,4.249878 17.997803,4.7629395 17.681519,5.0793457 C17.681519,5.0793457 12.812622,9.94812 12.812622,9.94812 Z"/>
</svg>